<svg id="SvgjsSvg1001" width="288" height="288" xmlns="http://www.w3.org/2000/svg" version="1.1" xmlns:xlink="http://www.w3.org/1999/xlink" xmlns:svgjs="http://svgjs.com/svgjs"><defs id="SvgjsDefs1002"></defs><g id="SvgjsG1008" transform="matrix(1,0,0,1,0,0)"><svg xmlns="http://www.w3.org/2000/svg" width="288" height="288" fill="none" viewBox="0 0 95 105"><g filter="url(#filter0_d)" fill="#000000" class="color000 svgShape"><path fill="#437aff" fill-rule="evenodd" d="M47.4999 17.9999C62.1355 17.9999 73.9999 29.8644 73.9999 44.4999C73.9999 59.1353 62.1355 70.9999 47.4999 70.9999C32.8644 70.9999 21 59.1353 21 44.4999C21 29.8644 32.8644 17.9999 47.4999 17.9999Z" clip-rule="evenodd" class="colorFF4361 svgShape"></path><path fill="url(#paint0_linear)" fill-rule="evenodd" d="M47.4999 17.9999C62.1355 17.9999 73.9999 29.8644 73.9999 44.4999C73.9999 59.1353 62.1355 70.9999 47.4999 70.9999C32.8644 70.9999 21 59.1353 21 44.4999C21 29.8644 32.8644 17.9999 47.4999 17.9999Z" clip-rule="evenodd"></path></g><path fill="#437aff" fill-rule="evenodd" d="M43 0.999936H52.9999C69.5685 0.999936 82.9999 14.4311 82.9999 30.9999V40.9999C82.9999 57.5682 69.5685 70.9998 52.9999 70.9998H43C26.4315 70.9998 12.9999 57.5682 12.9999 40.9999V30.9999C12.9999 14.4311 26.4315 0.999936 43 0.999936Z" clip-rule="evenodd" class="colorFF4361 svgShape"></path><path fill="url(#paint1_linear)" fill-rule="evenodd" d="M43 0.999936H52.9999C69.5685 0.999936 82.9999 14.4311 82.9999 30.9999V40.9999C82.9999 57.5682 69.5685 70.9998 52.9999 70.9998H43C26.4315 70.9998 12.9999 57.5682 12.9999 40.9999V30.9999C12.9999 14.4311 26.4315 0.999936 43 0.999936Z" clip-rule="evenodd"></path><path fill="#ffffff" fill-rule="evenodd" d="M51.4322 41.6398C51.6441 41.4247 51.7502 41.1709 51.7502 40.8774V38.1688H63V46.2952C63 47.0392 62.7379 47.6774 62.2132 48.2075C61.6887 48.7381 61.0581 49.0032 60.3216 49.0032H35.6787C34.942 49.0032 34.3114 48.7381 33.7869 48.2075C33.2622 47.6774 33 47.0392 33 46.2952V38.1688H44.25V40.8774C44.25 41.1709 44.3561 41.4247 44.5682 41.6398C44.7802 41.8537 45.0313 41.9613 45.3216 41.9613H50.6787C50.9688 41.9613 51.2201 41.8537 51.4322 41.6398ZM50.1431 38.1688H45.8571V40.3355H50.1431V38.1688ZM62.2132 28.1301C61.6887 27.5989 61.0581 27.3339 60.3216 27.3339H54.4285V24.6253C54.4285 24.1737 54.2724 23.7903 53.9598 23.4737C53.6475 23.1586 53.2678 23 52.8216 23H43.1787C42.7323 23 42.3529 23.1586 42.0404 23.4737C41.7278 23.7898 41.5716 24.1737 41.5716 24.6253V27.3339H35.6787C34.942 27.3339 34.3114 27.5989 33.7869 28.1301C33.2622 28.6597 33 29.2973 33 30.0425V36.5435H63V30.0425C63 29.2973 62.7379 28.6597 62.2132 28.1301ZM52.2858 27.3339H43.7144V25.1667H52.2858V27.3339Z" clip-rule="evenodd" class="colorfff svgShape"></path><defs><linearGradient id="paint0_linear" x1="51.635" x2="106.635" y1="103.635" y2="40.365" gradientUnits="userSpaceOnUse"><stop stop-color="#074ef8" class="stopColorF80759 svgShape"></stop><stop offset="1" stop-color="#574b90" class="stopColorBC4E9C svgShape"></stop></linearGradient><linearGradient id="paint1_linear" x1="53.413" x2="125.413" y1="113.413" y2="30.587" gradientUnits="userSpaceOnUse"><stop stop-color="#4179ff" class="stopColorFF416C svgShape"></stop><stop offset="1" stop-color="#9e579d" class="stopColorFF4B2B svgShape"></stop></linearGradient><filter id="filter0_d" width="95" height="95" x="0" y="10" color-interpolation-filters="sRGB" filterUnits="userSpaceOnUse"><feFlood flood-opacity="0" result="BackgroundImageFix"></feFlood><feColorMatrix in="SourceAlpha" values="0 0 0 0 0 0 0 0 0 0 0 0 0 0 0 0 0 0 127 0"></feColorMatrix><feOffset dy="13"></feOffset><feGaussianBlur stdDeviation="10.5"></feGaussianBlur><feColorMatrix values="0 0 0 0 1 0 0 0 0 0.266667 0 0 0 0 0.341176 0 0 0 0.3 0"></feColorMatrix><feBlend in2="BackgroundImageFix" result="effect1_dropShadow"></feBlend><feBlend in="SourceGraphic" in2="effect1_dropShadow" result="shape"></feBlend></filter></defs></svg></g></svg>