<svg xmlns="http://www.w3.org/2000/svg" enable-background="new 0 0 512 512" viewBox="0 0 512 512"><path fill="#ffce29" d="M463.453,381.643c17.008,0,30.78,13.772,30.78,30.78c0,17.008-13.773,30.826-30.78,30.826c17.008,0,30.78,13.772,30.78,30.78s-13.773,30.78-30.78,30.78H333.122c-22.785,0-45.107-6.332-64.518-18.256c-19.827-12.201-42.612-18.394-65.674-18.209V322.162c26.297-2.034,50.006-16.592,63.548-39.33c27.961-46.817,55.506-96.916,64.056-157.46c1.294-9.012,10.445-14.651,19.134-11.739c24.68,8.273,39.017,33.107,34.847,68.169c-4.885,41.078-19,76.673-19,76.673h97.938c17.008,0,30.78,13.772,30.78,30.78s-13.773,30.826-30.78,30.826c17.008,0,30.78,13.773,30.78,30.78S480.461,381.643,463.453,381.643z"/><path d="M463.453,381.643c17.008,0,30.78,13.772,30.78,30.78c0,17.008-13.773,30.826-30.78,30.826c17.008,0,30.78,13.772,30.78,30.78s-13.773,30.78-30.78,30.78h-41.41c17.008,0,30.78-13.773,30.78-30.78s-13.772-30.78-30.78-30.78c17.008,0,30.78-13.819,30.78-30.826c0-17.008-13.772-30.78-30.78-30.78c17.008,0,30.78-13.772,30.78-30.78s-13.772-30.78-30.78-30.78c17.008,0,30.78-13.819,30.78-30.826s-13.772-30.78-30.78-30.78h41.41c17.008,0,30.78,13.772,30.78,30.78s-13.773,30.826-30.78,30.826c17.008,0,30.78,13.773,30.78,30.78S480.461,381.643,463.453,381.643z" opacity=".08"/><path fill="#6d6d6d" d="M229.65,314.175v162.151c0,10.21-8.277,18.487-18.487,18.487h-67.754c-5.105,0-9.243-4.138-9.243-9.243V304.932c0-5.105,4.138-9.243,9.243-9.243h67.754C221.373,295.689,229.65,303.965,229.65,314.175z"/><path d="M229.644,314.167V476.34c0,10.214-8.273,18.487-18.487,18.487H191.7c10.214,0,18.487-8.273,18.487-18.487V314.167c0-10.214-8.273-18.487-18.487-18.487h19.457C221.371,295.68,229.644,303.953,229.644,314.167z" opacity=".08"/><path fill="#fff" d="M167.806,318.907v24.125c0,5.016-4.066,9.082-9.082,9.082h0c-5.016,0-9.082-4.066-9.082-9.082v-24.125c0-5.016,4.066-9.082,9.082-9.082h0C163.74,309.826,167.806,313.892,167.806,318.907z" opacity=".4"/><path fill="#f96464" d="M267.166,28.365v161.992c0,10.129-12.857,14.476-19.003,6.424l-34.729-45.494H38.942c-11.695,0-21.175-9.481-21.175-21.175V28.365c0-11.695,9.481-21.175,21.175-21.175h207.049C257.686,7.19,267.166,16.671,267.166,28.365z"/><path d="M267.181,28.365v161.991c0,10.111-12.864,14.452-19.005,6.406l-11.488-15.035V28.365c0-11.699-9.476-21.175-21.175-21.175h30.493C257.705,7.19,267.181,16.666,267.181,28.365z" opacity=".08"/><path fill="#fff" d="M57.851,40.338v24.125c0,5.016-4.066,9.082-9.082,9.082h0c-5.016,0-9.082-4.066-9.082-9.082V40.338c0-5.016,4.066-9.082,9.082-9.082h0C53.785,31.256,57.851,35.322,57.851,40.338z" opacity=".4"/><path fill="#fff" d="M119.359,109.839L101.42,87.955c-3.707-4.524-3.045-11.195,1.476-14.902c4.524-3.709,11.19-3.048,14.902,1.476l10.528,12.844l39.512-39.507c4.131-4.136,10.841-4.136,14.972,0c4.136,4.133,4.136,10.838,0,14.972l-47.776,47.774C130.601,115.044,123.327,114.672,119.359,109.839z"/></svg>