<svg xmlns="http://www.w3.org/2000/svg" fill-rule="evenodd" stroke-linejoin="round" stroke-miterlimit="2" clip-rule="evenodd" viewBox="0 0 33 33"><g transform="translate(.847 .99)"><rect width="32" height="32" fill="none"/><path fill="#f5f5f5" d="M95.847,98.99C95.847,102.453 95.847,109.527 95.847,112.99C95.847,113.786 96.163,114.549 96.726,115.111C97.289,115.674 98.052,115.99 98.847,115.99C103.69,115.99 116.004,115.99 120.847,115.99C121.643,115.99 122.406,115.674 122.969,115.111C123.531,114.549 123.847,113.786 123.847,112.99C123.847,109.527 123.847,102.453 123.847,98.99C123.847,98.194 123.531,97.431 122.969,96.869C122.406,96.306 121.643,95.99 120.847,95.99C116.004,95.99 103.69,95.99 98.847,95.99C98.052,95.99 97.289,96.306 96.726,96.869C96.163,97.431 95.847,98.194 95.847,98.99L95.847,98.99Z" transform="translate(-93.847 -89.99)"/><path fill="#e0e0e0" d="M95.847,112.99C95.847,109.527 95.847,109.99 95.847,109.99C95.847,110.786 96.163,111.549 96.726,112.111C97.289,112.674 98.052,112.99 98.847,112.99C103.69,112.99 116.004,112.99 120.847,112.99C121.643,112.99 122.406,112.674 122.969,112.111C123.531,111.549 123.847,110.786 123.847,109.99C123.847,109.99 123.847,109.527 123.847,112.99C123.847,113.786 123.531,114.549 122.969,115.111C122.406,115.674 121.643,115.99 120.847,115.99C116.004,115.99 103.69,115.99 98.847,115.99C98.052,115.99 97.289,115.674 96.726,115.111C96.163,114.549 95.847,113.786 95.847,112.99Z" transform="translate(-93.847 -89.99)"/><path fill="#757575" d="M99.847,108.99L107.847,108.99C108.399,108.99 108.847,108.542 108.847,107.99C108.847,107.438 108.399,106.99 107.847,106.99L99.847,106.99C99.295,106.99 98.847,107.438 98.847,107.99C98.847,108.542 99.295,108.99 99.847,108.99ZM99.847,104.99L106.847,104.99C107.399,104.99 107.847,104.542 107.847,103.99C107.847,103.438 107.399,102.99 106.847,102.99L99.847,102.99C99.295,102.99 98.847,103.438 98.847,103.99C98.847,104.542 99.295,104.99 99.847,104.99Z" transform="translate(-93.847 -89.99)"/><path fill="#ef5350" d="M114.847,110.709L112.164,111.603C111.859,111.705 111.523,111.654 111.263,111.466C111.002,111.278 110.847,110.976 110.847,110.655L110.847,102.99C110.847,102.438 111.295,101.99 111.847,101.99L117.847,101.99C118.4,101.99 118.847,102.438 118.847,102.99L118.847,110.655C118.847,110.976 118.693,111.278 118.432,111.466C118.171,111.654 117.836,111.705 117.531,111.603L114.847,110.709Z" transform="translate(-93.847 -89.99)"/><path fill="#e53935" d="M110.847,108.655C110.847,108.976 111.002,109.278 111.263,109.466C111.523,109.654 111.859,109.705 112.164,109.603L114.847,108.709L117.531,109.603C117.836,109.705 118.171,109.654 118.432,109.466C118.693,109.278 118.847,108.976 118.847,108.655L118.847,110.655C118.847,110.976 118.693,111.278 118.432,111.466C118.171,111.654 117.836,111.705 117.531,111.603L114.847,110.709L112.164,111.603C111.859,111.705 111.523,111.654 111.263,111.466C111.002,111.278 110.847,110.976 110.847,110.655L110.847,108.655Z" transform="translate(-93.847 -89.99)"/><circle cx="114.847" cy="99.632" r="6" fill="#ffee58" transform="translate(-93.847 -89.99)"/><path fill="#fdd835" d="M108.931,98.632C109.407,101.468 111.877,103.632 114.847,103.632C117.818,103.632 120.288,101.468 120.764,98.632C120.819,98.957 120.847,99.291 120.847,99.632C120.847,102.944 118.159,105.632 114.847,105.632C111.536,105.632 108.847,102.944 108.847,99.632C108.847,99.291 108.876,98.957 108.931,98.632Z" transform="translate(-93.847 -89.99)"/></g></svg>