<svg xmlns="http://www.w3.org/2000/svg" enable-background="new 0 0 64 64" viewBox="0 0 64 64"><polygon fill="#ff8088" points="32 13 33.236 15.633 36 16.056 34 18.106 34.472 21 32 19.633 29.528 21 30 18.106 28 16.056 30.764 15.633"/><path fill="#526273" d="M46,19.154v-5.385h-2.611c-0.305-1.076-0.758-2.087-1.336-3.014l1.75-1.751l-3.807-3.807l-1.75,1.75
	c-1.081-0.673-2.276-1.177-3.553-1.474V3h-5.385v2.473c-1.092,0.254-2.126,0.654-3.079,1.186l-1.844-1.843l-3.808,3.807l1.665,1.665
	c-0.723,1.05-1.275,2.223-1.631,3.48H18v5.385h2.359c0.272,1.48,0.821,2.859,1.588,4.091l-1.75,1.751l3.807,3.807l1.75-1.751
	c1.081,0.673,2.276,1.177,3.553,1.474V31h5.385v-2.473c1.462-0.34,2.821-0.944,4.019-1.77l1.665,1.665l3.807-3.807l-1.844-1.843
	c0.62-1.108,1.063-2.326,1.301-3.618H46z M32,25c-4.418,0-8-3.582-8-8s3.582-8,8-8s8,3.582,8,8S36.418,25,32,25z"/><path fill="#ffe38f" d="M11.861 51.795c-2.246-.693-2.963-1.41-3.656-3.656-.057-.185-.323-.185-.38 0-.693 2.246-1.41 2.963-3.656 3.656-.185.057-.185.323 0 .38 2.246.693 2.963 1.41 3.656 3.656.057.185.323.185.38 0 .693-2.246 1.41-2.963 3.656-3.656C12.046 52.118 12.046 51.852 11.861 51.795zM60.831 37.825c-2.246-.693-2.963-1.41-3.656-3.656-.057-.185-.323-.185-.38 0-.693 2.246-1.41 2.963-3.656 3.656-.185.057-.185.323 0 .38 2.246.693 2.963 1.41 3.656 3.656.057.185.323.185.38 0 .693-2.246 1.41-2.963 3.656-3.656C61.016 38.148 61.016 37.882 60.831 37.825z"/><path fill="#cfcfcf" d="M35,47h-6c-2.209,0-4,1.791-4,4v10h14V51C39,48.791,37.209,47,35,47z"/><path fill="#bfbfbf" d="M25,61h14v-9.65C36.843,56.989,31.397,61,25,61z"/><polygon fill="#759acc" points="32 47 30 54 32 57 34 54"/><path fill="#ffdbac" d="M37,42c0,0.21-0.01,0.42-0.05,0.62C36.66,45.09,34.55,47,32,47s-4.66-1.91-4.95-4.38
	C27.01,42.42,27,42.21,27,42c0-2.76,2.24-5,5-5S37,39.24,37,42z"/><path fill="#526273" d="M32,37c-2.76,0-5,2.24-5,5c0,0.21,0.01,0.42,0.05,0.62C28.12,41.04,29.94,40,32,40
	s3.88,1.04,4.95,2.62C36.99,42.42,37,42.21,37,42C37,39.24,34.76,37,32,37z"/><path d="M46,20.154c0.553,0,1-0.448,1-1v-5.385c0-0.552-0.447-1-1-1h-1.879c-0.223-0.636-0.496-1.255-0.817-1.851l1.207-1.207
	c0.188-0.188,0.293-0.442,0.293-0.707s-0.105-0.52-0.293-0.707L40.703,4.49c-0.391-0.391-1.023-0.391-1.414,0l-1.207,1.207
	c-0.763-0.412-1.562-0.744-2.39-0.992V3c0-0.552-0.447-1-1-1h-5.385c-0.553,0-1,0.448-1,1v1.704c-0.651,0.194-1.283,0.438-1.89,0.73
	l-1.326-1.326c-0.391-0.391-1.023-0.391-1.414,0L19.87,7.917c-0.188,0.188-0.293,0.442-0.293,0.707c0,0.266,0.105,0.52,0.293,0.708
	l1.097,1.096c-0.439,0.738-0.804,1.521-1.088,2.342H18c-0.553,0-1,0.448-1,1v5.385c0,0.552,0.447,1,1,1h1.555
	c0.257,1.018,0.639,1.998,1.142,2.928l-1.207,1.207c-0.188,0.188-0.293,0.442-0.293,0.707s0.105,0.52,0.293,0.707l3.808,3.808
	c0.391,0.391,1.023,0.391,1.414,0l1.207-1.207c0.763,0.412,1.562,0.744,2.39,0.992V31c0,0.552,0.447,1,1,1h5.385
	c0.553,0,1-0.448,1-1v-1.704c1.015-0.303,1.979-0.725,2.881-1.263l1.097,1.097c0.391,0.39,1.023,0.39,1.414,0l3.807-3.808
	c0.391-0.391,0.391-1.023,0-1.414l-1.324-1.325c0.374-0.775,0.668-1.588,0.88-2.429H46z M42.657,18.973
	c-0.215,1.171-0.615,2.285-1.189,3.31c-0.218,0.391-0.15,0.879,0.166,1.195l1.136,1.136l-2.393,2.394l-0.959-0.958
	c-0.341-0.34-0.878-0.389-1.274-0.116c-1.109,0.764-2.347,1.309-3.678,1.619c-0.453,0.105-0.773,0.509-0.773,0.974V30h-3.385v-1.473
	c0-0.465-0.32-0.869-0.773-0.974c-1.149-0.268-2.243-0.721-3.251-1.349c-0.394-0.244-0.904-0.187-1.235,0.142l-1.044,1.043
	l-2.394-2.394l1.044-1.043c0.329-0.329,0.388-0.841,0.142-1.236c-0.721-1.157-1.21-2.417-1.453-3.743
	c-0.087-0.475-0.501-0.819-0.983-0.819H19v-3.385h1.611c0.447,0,0.84-0.297,0.962-0.727c0.326-1.149,0.828-2.222,1.493-3.186
	c0.274-0.397,0.225-0.934-0.116-1.275l-0.959-0.958l2.394-2.394l1.137,1.137c0.316,0.316,0.804,0.385,1.195,0.166
	c0.873-0.488,1.821-0.854,2.817-1.085c0.453-0.105,0.773-0.509,0.773-0.974V4h3.385v1.473c0,0.465,0.32,0.869,0.773,0.974
	c1.149,0.268,2.243,0.721,3.251,1.349c0.395,0.246,0.905,0.188,1.235-0.142l1.044-1.043l2.394,2.394l-1.044,1.043
	c-0.329,0.329-0.388,0.841-0.142,1.236c0.537,0.862,0.948,1.79,1.223,2.758c0.122,0.431,0.515,0.728,0.962,0.728H45v3.385h-1.359
	C43.158,18.154,42.744,18.499,42.657,18.973z"/><path d="M32,8c-4.963,0-9,4.038-9,9s4.037,9,9,9s9-4.038,9-9S36.963,8,32,8z M32,24c-3.859,0-7-3.14-7-7s3.141-7,7-7s7,3.14,7,7
	S35.859,24,32,24z"/><path d="M36.151 15.067l-2.236-.342-1.01-2.15C32.74 12.224 32.388 12 32 12s-.74.224-.905.575l-1.01 2.15-2.236.342c-.37.056-.678.315-.797.671s-.029.748.232 1.016l1.647 1.689-.391 2.396c-.062.378.099.758.411.978s.725.243 1.061.058L32 20.776l1.987 1.099C34.139 21.958 34.306 22 34.472 22c.202 0 .404-.062.576-.183.312-.22.473-.6.411-.978l-.391-2.396 1.647-1.689c.262-.268.352-.66.232-1.016S36.521 15.124 36.151 15.067zM33.284 17.407c-.222.227-.322.546-.271.859l.141.862-.669-.37c-.151-.083-.317-.125-.484-.125s-.333.042-.484.125l-.669.37.141-.862c.051-.313-.05-.632-.271-.859l-.641-.657.84-.128c.329-.05.612-.261.754-.563L32 15.353l.331.705c.142.302.425.513.754.563l.84.128L33.284 17.407zM57.964 33.234C57.845 32.8 57.45 32.5 57 32.5s-.845.3-.964.734c-.738 2.673-1.129 3.064-3.803 3.802C51.8 37.156 51.5 37.55 51.5 38s.3.844.733.964c2.674.738 3.064 1.129 3.803 3.802C56.155 43.2 56.55 43.5 57 43.5s.845-.3.964-.734c.738-2.673 1.129-3.064 3.803-3.802C62.2 38.844 62.5 38.45 62.5 38s-.3-.844-.733-.964C59.093 36.298 58.702 35.907 57.964 33.234zM57 39.689c-.424-.741-.948-1.265-1.689-1.689.741-.424 1.266-.948 1.689-1.689.424.741.948 1.265 1.689 1.689C57.948 38.424 57.424 38.948 57 39.689zM8.964 47.234C8.845 46.8 8.45 46.5 8 46.5s-.845.3-.964.734c-.738 2.673-1.129 3.064-3.803 3.802C2.8 51.156 2.5 51.55 2.5 52s.3.844.733.964c2.674.738 3.064 1.129 3.803 3.802C7.155 57.2 7.55 57.5 8 57.5s.845-.3.964-.734c.738-2.673 1.129-3.064 3.803-3.802C13.2 52.844 13.5 52.45 13.5 52s-.3-.844-.733-.964C10.093 50.298 9.702 49.907 8.964 47.234zM8 53.689C7.576 52.948 7.052 52.424 6.311 52 7.052 51.576 7.576 51.052 8 50.311 8.424 51.052 8.948 51.576 9.689 52 8.948 52.424 8.424 52.948 8 53.689zM24 51v10c0 .552.447 1 1 1h14c.553 0 1-.448 1-1V51c0-2.312-1.586-4.244-3.721-4.813.886-.9 1.499-2.061 1.652-3.37C37.992 42.509 38 42.219 38 42c0-3.309-2.691-6-6-6s-6 2.691-6 6c0 .219.008.509.057.737.159 1.35.779 2.535 1.673 3.447C25.59 46.75 24 48.685 24 51zM32 38c1.423 0 2.666.752 3.375 1.874C34.357 39.312 33.201 39 32 39s-2.357.312-3.375.874C29.334 38.752 30.577 38 32 38zM32 41c1.522 0 2.941.695 3.879 1.867C35.491 44.673 33.894 46 32 46c-1.873 0-3.456-1.298-3.877-3.137C29.062 41.693 30.479 41 32 41zM32.911 53.83L32 55.197l-.911-1.367L32 50.64 32.911 53.83zM26 51c0-1.654 1.346-3 3-3h1.674l-1.636 5.725c-.08.282-.033.585.13.83l2 3C31.354 57.833 31.666 58 32 58s.646-.167.832-.445l2-3c.163-.244.21-.547.13-.83L33.326 48H35c1.654 0 3 1.346 3 3v9H26V51z"/></svg>