<svg xmlns="http://www.w3.org/2000/svg" width="32" height="32" viewBox="0 0 32 32"><g transform="translate(-206.997 -1355.373)"><ellipse cx="16" cy="12.684" fill="#ffe6a1" rx="3.938" ry="6.371" transform="matrix(1.39683 0 0 .94177 202.849 1358.917)"/><path fill="#fff4b2" d="m 246.15625,383.34375 c -1.61994,1.04401 -2.71875,2.95504 -2.71875,5.15625 0,3.31371 2.46243,6 5.5,6 1.76997,0 3.33772,-0.92693 4.34375,-2.34375 C 252.46252,392.6839 251.51979,393 250.5,393 c -3.03757,0 -5.5,-2.68629 -5.5,-6 0,-1.38283 0.43576,-2.64156 1.15625,-3.65625 z" transform="translate(-23.75 982.362)"/><ellipse cx="16" cy="12.684" fill="none" stroke="#373449" stroke-width=".872" rx="3.938" ry="6.371" transform="matrix(1.39683 0 0 .94177 202.849 1358.917)"/><path fill="#ffd15e" d="m 12.062634,12.73609 c -0.01795,-3.5184907 1.730247,-6.4124286 3.904869,-6.423373 3.595613,-0.018096 4.67165,3.8287 4.368906,7.220234 -0.30331,3.39787 0.268617,5.096805 0.268617,5.096805 -1.143854,0 -1.333868,-1.759872 -1.522993,-3.39787 -0.192787,-2.548402 -2.480494,-1.698935 -3.052421,-4.247337 -0.571926,2.548402 -3.43156,1.66957 -3.43156,4.247337 -0.236517,-0.515824 -0.494006,-0.917434 -0.535418,-2.495796 z" transform="matrix(1.74848 0 0 1.1772 197.223 1353.431)"/><path fill="#ffd15e" d="m 238.47799,386.5 c -1.93238,-4.55409 0.22888,-8.43381 3.78775,-9.9439 2.56791,-1.08961 5.53764,-0.55056 7.5588,1.37203 -5.08599,-0.23097 -8.07425,4.34349 -7.44827,8.5404 0.89961,6.03147 7.65687,8.98956 3.77834,13.03147 -0.95958,1 -3.83831,2 -3.83831,2 1.21552,-1.4889 1.77371,-1.86363 0.95958,-3 -0.95958,1 -2.87873,1 -2.87873,1 1.18691,-1.66667 1.69141,-1.33333 0.95957,-3 -0.56195,0.4684 -0.9167,1.29668 -1.91915,1 0,0 0.97278,-6.44591 -0.95958,-11 z" transform="matrix(1.04213 0 0 1 -34.274 982.862)"/><path fill="#ffe695" d="m 245.0625,376.5 c -1.04709,-0.0365 -2.12147,0.1539 -3.125,0.5625 -3.70879,1.51009 -5.95128,5.38341 -3.9375,9.9375 2.01376,4.55409 1,11 1,11 0.98441,0.27956 1.3751,-0.4304 1.90625,-0.90625 0.17936,-2.13696 0.28772,-6.32823 -1.15625,-9.59375 -2.01379,-4.5541 0.22871,-8.4274 3.9375,-9.9375 1.30807,-0.5326 2.71868,-0.65452 4.0625,-0.4375 -0.84931,-0.36008 -1.76328,-0.59276 -2.6875,-0.625 z m -2.3125,21 c -0.49067,0.39246 -0.81971,1.03815 -1.53125,1.0625 -0.20385,0.31888 -0.62902,0.64287 -1.21875,1.4375 0,0 2,0 3,-1 0.19072,-0.33333 0.13134,-0.66665 -0.25,-1.5 z m 2,2 c -0.38971,0.38971 -0.92161,0.60485 -1.4375,0.75 -0.15892,0.4564 -0.61667,0.93213 -1.3125,1.75 0,0 1.84558,-0.61971 3.125,-1.375 0.0721,-0.332 -0.0345,-0.66888 -0.375,-1.125 z" transform="translate(-23.75 982.362)"/><path fill="none" stroke="#373449" stroke-linecap="round" stroke-linejoin="round" stroke-width=".98" d="m 238.47799,386.5 c -1.93238,-4.55409 0.22888,-8.43381 3.78775,-9.9439 2.56791,-1.08961 5.53764,-0.55056 7.5588,1.37203 -5.08599,-0.23097 -8.07425,4.34349 -7.44827,8.5404 0.89961,6.03147 7.65687,8.98956 3.77834,13.03147 -0.95958,1 -3.83831,2 -3.83831,2 1.21552,-1.4889 1.77371,-1.86363 0.95958,-3 -0.95958,1 -2.87873,1 -2.87873,1 1.18691,-1.66667 1.69141,-1.33333 0.95957,-3 -0.56195,0.4684 -0.9167,1.29668 -1.91915,1 0,0 0.97278,-6.44591 -0.95958,-11 z" transform="matrix(1.04213 0 0 1 -34.274 982.862)"/><path fill="#ffbc34" d="m 225.1875,1360.8622 c -3.80227,0.013 -6.87514,3.4205 -6.84375,7.5625 0.0724,1.8581 0.52396,2.3303 0.9375,2.9375 0,-0.4085 1.05945,-1.7193 1.21875,-2 -0.12754,-0.4004 -0.2204,0.072 -0.25,-0.6875 -0.0314,-4.142 2.04148,-7.5496 5.84375,-7.5625 0.78585,0 1.50417,0.058 2.15625,0.1875 -0.88218,-0.2824 -1.88372,-0.4415 -3.0625,-0.4375 z"/><path fill="#ffe695" d="m 248.90625,378.5 c -0.29182,9.9e-4 -0.59302,0.0227 -0.875,0.0625 5.38497,0.4948 7.62126,4.69453 7.125,8.4375 -0.1105,0.83344 -0.15574,1.55896 -0.15625,2.21875 0.32061,1.86301 0.0753,3.78125 2,3.78125 0,0 -0.99908,-2 -0.46875,-6 0.52934,-3.99254 -1.33816,-8.5213 -7.625,-8.5 z" transform="translate(-23.75 982.362)"/><path fill="none" stroke="#373449" stroke-linecap="round" stroke-linejoin="round" stroke-width=".697" d="m 12.062634,12.73609 c -0.01795,-3.5184907 1.730247,-6.4124286 3.904869,-6.423373 3.595613,-0.018096 4.67165,3.8287 4.368906,7.220234 -0.30331,3.39787 0.268617,5.096805 0.268617,5.096805 -1.143854,0 -1.333868,-1.759872 -1.522993,-3.39787 -0.192787,-2.548402 -2.480494,-1.698935 -3.052421,-4.247337 -0.571926,2.548402 -3.43156,1.66957 -3.43156,4.247337 -0.236517,-0.515824 -0.494006,-0.917434 -0.535418,-2.495796 z" transform="matrix(1.74848 0 0 1.1772 197.223 1353.431)"/></g></svg>