<svg xmlns="http://www.w3.org/2000/svg" enable-background="new 0 0 64 64" viewBox="0 0 64 64"><path fill="#25d9f8" d="M43.515,28.865v0.658v0.658l-12.121,2.319l-12.121-2.319v-0.658v-0.658c0-1.979,0.802-3.772,2.1-5.069c1.297-1.297,3.089-2.1,5.069-2.1c1.576,0,3.264,0,4.953,0c1.688,0,3.377,0,4.953,0c1.979,0,3.772,0.802,5.069,2.1C42.713,25.094,43.515,26.886,43.515,28.865z"/><path fill="#ff641a" d="M60.485,30.182l-6.061,10.909L60.485,52H3.515l6.061-10.909L3.515,30.182C6.366,30.182,57.59,30.182,60.485,30.182z"/><polygon fill="#ffda2d" points="50.182 39.547 47.805 41.863 48.366 45.135 45.429 43.59 42.491 45.135 43.052 41.863 40.675 39.547 43.96 39.069 45.429 36.093 46.897 39.069"/><polygon fill="#ffda2d" points="36.658 39.547 34.281 41.863 34.842 45.135 31.904 43.59 28.967 45.135 29.528 41.863 27.152 39.547 30.436 39.069 31.904 36.093 33.373 39.069"/><polygon fill="#ffda2d" points="23.325 39.547 20.948 41.863 21.509 45.135 18.571 43.59 15.634 45.135 16.195 41.863 13.818 39.547 17.103 39.069 18.571 36.093 20.04 39.069"/><path fill="#4f737c" d="M37.455,9.615v1.173H25.333c-1.004,0-1.913-0.407-2.571-1.065c-2.268-2.264-0.685-6.207,2.571-6.207h1.212c0,1.339,1.085,2.424,2.424,2.424h4.81C35.808,5.939,37.455,7.585,37.455,9.615z"/><path fill="#ffcdbe" d="M37.455,10.788v4.848c0,3.347-2.714,6.061-6.061,6.061s-6.061-2.714-6.061-6.061v-4.848H37.455z"/><circle cx="58.667" cy="12.606" r="1.818" fill="#4f737c"/><circle cx="52" cy="22.909" r="1.212" fill="#ffda2d"/><circle cx="51.394" cy="58.667" r="1.818" fill="#ffcdbe"/><circle cx="47.152" cy="5.939" r="1.212" fill="#ececf1"/><circle cx="32.606" cy="58.061" r="1.212" fill="#ececf1"/><circle cx="12.606" cy="19.879" r="1.818" fill="#ffda2d"/><circle cx="10.788" cy="9.576" r="1.212" fill="#ffcdbe"/><circle cx="9.576" cy="58.061" r="1.212" fill="#4f737c"/><path fill="#faa68e" d="M32.606,18.061h-2.424c-0.669,0-1.212-0.543-1.212-1.212s0.543-1.212,1.212-1.212h2.424c0.669,0,1.212,0.543,1.212,1.212S33.275,18.061,32.606,18.061z"/></svg>