<svg id="svg" version="1.1" xmlns="http://www.w3.org/2000/svg" xmlns:xlink="http://www.w3.org/1999/xlink" width="400" height="400" viewBox="0, 0, 400,400"><g id="svgg"><path id="path0" d="M123.412 134.282 C 120.677 138.611,111.570 148.664,107.181 152.200 C 106.635 152.640,105.290 153.735,104.194 154.634 C 103.097 155.533,101.030 157.050,99.600 158.006 C 98.170 158.962,96.940 159.892,96.867 160.072 C 96.793 160.253,96.587 160.400,96.408 160.400 C 96.228 160.400,94.915 161.109,93.488 161.976 C 87.824 165.417,78.804 169.357,72.400 171.187 C 70.750 171.659,68.847 172.215,68.172 172.422 C 67.496 172.630,66.497 172.800,65.952 172.800 C 65.406 172.800,64.789 172.962,64.580 173.159 C 64.197 173.521,62.358 173.853,58.500 174.255 L 56.400 174.474 56.400 192.265 L 56.400 210.056 57.683 211.928 C 58.389 212.958,59.289 214.149,59.683 214.575 C 60.078 215.002,60.400 215.495,60.400 215.671 C 60.400 215.847,60.661 216.308,60.979 216.695 C 61.928 217.849,65.857 223.425,69.933 229.400 C 72.034 232.480,73.868 235.090,74.009 235.200 C 74.149 235.310,75.225 236.840,76.400 238.600 C 77.575 240.360,78.645 241.890,78.778 242.000 C 78.911 242.110,79.916 243.537,81.010 245.171 C 98.881 271.850,138.085 276.095,161.469 253.883 C 165.011 250.518,167.942 246.926,171.981 241.000 C 173.181 239.240,174.306 237.740,174.481 237.667 C 174.656 237.593,174.800 237.293,174.800 237.000 C 174.800 236.707,174.945 236.407,175.123 236.333 C 175.301 236.260,176.780 234.220,178.410 231.800 C 180.040 229.380,181.486 227.310,181.623 227.200 C 181.760 227.090,183.467 224.660,185.417 221.800 C 187.366 218.940,189.074 216.510,189.211 216.400 C 189.348 216.290,190.244 215.030,191.202 213.600 C 192.161 212.170,193.092 210.940,193.272 210.867 C 193.453 210.793,193.600 202.576,193.600 192.605 L 193.600 174.477 191.700 174.265 C 189.221 173.988,183.568 172.847,180.800 172.065 C 180.030 171.847,178.410 171.397,177.200 171.064 C 168.983 168.802,149.880 159.095,147.600 156.023 C 147.490 155.875,147.006 155.485,146.524 155.156 C 143.036 152.776,133.451 143.381,130.350 139.301 C 129.387 138.036,128.398 136.785,128.151 136.522 C 127.904 136.259,127.184 135.225,126.551 134.223 C 125.117 131.953,124.881 131.957,123.412 134.282 M100.400 285.196 C 100.400 293.194,100.136 296.262,99.109 300.200 C 97.926 304.737,97.667 305.461,96.053 308.756 C 95.364 310.162,94.800 311.557,94.800 311.856 C 94.800 312.310,99.809 312.400,125.000 312.400 C 149.083 312.400,155.200 312.298,155.200 311.894 C 155.200 311.616,154.681 310.311,154.047 308.994 C 150.637 301.910,149.600 296.208,149.600 284.543 C 149.600 278.396,149.493 276.747,149.120 277.120 C 148.856 277.384,148.256 277.600,147.787 277.600 C 147.317 277.600,146.810 277.723,146.659 277.874 C 146.220 278.313,143.481 279.187,142.524 279.194 C 142.042 279.197,141.536 279.380,141.400 279.600 C 141.264 279.820,140.544 280.000,139.800 280.000 C 139.056 280.000,138.349 280.158,138.230 280.351 C 137.598 281.374,119.546 281.770,114.600 280.870 C 113.060 280.589,111.124 280.260,110.297 280.138 C 109.471 280.016,108.695 279.755,108.574 279.558 C 108.452 279.361,107.834 279.200,107.200 279.200 C 106.566 279.200,105.936 279.020,105.800 278.800 C 105.664 278.580,105.124 278.400,104.600 278.400 C 104.076 278.400,103.536 278.220,103.400 278.000 C 103.264 277.780,102.749 277.600,102.256 277.600 C 101.763 277.600,101.144 277.384,100.880 277.120 C 100.507 276.747,100.400 278.541,100.400 285.196 " stroke="none" fill="#eac2a2" fill-rule="evenodd"></path><path id="path1" d="M254.627 79.854 C 240.202 94.293,228.400 106.179,228.400 106.266 C 228.400 106.545,243.531 121.600,243.810 121.600 C 243.958 121.600,244.556 121.101,245.140 120.492 C 247.775 117.739,252.944 114.584,256.400 113.619 C 257.390 113.343,258.613 112.955,259.119 112.758 C 259.624 112.561,262.541 112.400,265.600 112.400 C 268.659 112.400,271.576 112.561,272.081 112.758 C 272.587 112.955,273.810 113.348,274.800 113.631 C 280.663 115.306,282.372 116.697,299.036 133.363 C 322.834 157.164,322.180 156.624,325.877 155.536 C 330.234 154.254,332.111 149.127,329.544 145.521 C 329.111 144.913,320.877 136.537,311.247 126.908 C 301.618 117.278,293.155 108.539,292.441 107.487 C 290.762 105.010,288.800 101.276,288.800 100.554 C 288.800 100.243,288.641 99.677,288.447 99.295 C 286.729 95.911,286.762 85.961,288.507 81.600 C 288.727 81.050,289.048 80.240,289.220 79.800 C 290.252 77.162,290.628 76.400,290.898 76.400 C 291.064 76.400,291.200 76.164,291.200 75.875 C 291.200 75.587,291.560 74.964,292.000 74.492 C 292.440 74.020,292.800 73.538,292.800 73.421 C 292.800 73.135,293.923 71.778,295.499 70.162 L 296.798 68.829 289.245 61.215 C 285.092 57.027,281.504 53.600,281.273 53.600 C 281.043 53.600,269.052 65.414,254.627 79.854 M343.989 254.450 C 333.762 269.179,312.285 280.053,291.200 281.177 C 276.363 281.967,268.376 289.702,268.871 302.800 L 269.000 306.200 275.900 306.195 C 279.695 306.192,300.727 306.147,322.637 306.095 L 362.475 306.000 362.262 296.700 C 362.014 285.830,361.600 282.857,359.408 276.200 C 356.872 268.503,352.411 260.881,347.379 255.650 L 344.926 253.100 343.989 254.450 " stroke="none" fill="#443890" fill-rule="evenodd"></path><path id="path2" d="M116.000 19.248 C 108.540 20.096,101.881 21.313,96.600 22.796 C 95.720 23.043,94.460 23.390,93.800 23.568 C 63.123 31.817,31.670 63.304,23.545 93.900 C 23.355 94.615,23.008 95.875,22.773 96.700 C 21.343 101.730,19.995 109.226,19.216 116.477 C 18.937 119.080,18.800 163.201,18.800 250.777 L 18.800 381.200 31.200 381.200 L 43.600 381.200 43.600 278.210 L 43.600 175.221 37.500 175.110 L 31.400 175.000 31.400 168.800 L 31.400 162.600 42.600 162.361 C 74.523 161.680,97.836 149.322,114.738 124.122 C 115.652 122.759,116.400 121.552,116.400 121.440 C 116.400 121.327,116.940 120.319,117.600 119.200 L 118.800 117.165 118.800 110.631 L 118.800 104.097 117.700 103.671 C 115.521 102.826,112.569 101.890,111.000 101.548 C 106.149 100.488,104.507 100.275,99.400 100.049 L 93.800 99.800 93.690 93.700 L 93.579 87.600 98.490 87.614 C 104.290 87.631,113.828 89.042,117.450 90.419 C 118.790 90.929,118.843 90.674,118.712 84.380 L 118.600 79.000 115.506 77.917 C 110.431 76.142,106.585 75.475,100.000 75.231 L 93.800 75.000 93.800 68.800 L 93.800 62.600 96.677 62.483 C 101.505 62.287,114.276 64.063,116.467 65.236 C 118.649 66.403,118.800 66.054,118.800 59.849 L 118.800 54.097 117.600 53.649 C 111.116 51.225,106.839 50.379,99.400 50.049 L 93.800 49.800 93.690 43.700 L 93.579 37.600 98.324 37.600 C 104.050 37.600,111.675 38.664,116.479 40.134 C 118.888 40.871,118.800 41.038,118.800 35.733 L 118.800 31.200 125.000 31.200 L 131.200 31.200 131.200 35.733 C 131.200 41.038,131.112 40.871,133.521 40.134 C 138.322 38.665,145.949 37.600,151.665 37.600 L 156.400 37.600 156.400 43.800 L 156.400 50.000 151.700 50.007 C 145.008 50.018,138.297 51.312,132.300 53.748 L 131.200 54.195 131.200 59.943 L 131.200 65.691 132.300 65.488 C 132.905 65.376,134.570 64.987,136.000 64.623 C 137.430 64.260,139.320 63.798,140.200 63.597 C 142.739 63.018,151.170 62.315,153.800 62.464 L 156.200 62.600 156.200 68.800 L 156.200 75.000 149.800 75.257 C 143.041 75.529,140.175 76.028,134.741 77.880 L 131.400 79.018 131.288 84.577 C 131.160 90.974,131.161 90.977,133.808 90.168 C 138.822 88.636,145.872 87.615,151.500 87.607 L 156.400 87.600 156.400 93.800 L 156.400 100.000 151.700 100.007 C 145.008 100.018,138.297 101.312,132.300 103.748 L 131.200 104.195 131.200 110.666 L 131.200 117.137 133.187 120.577 C 144.984 141.004,165.458 155.890,188.224 160.592 C 194.514 161.892,196.983 162.116,207.600 162.354 L 218.600 162.600 218.600 168.800 L 218.600 175.000 212.500 175.110 L 206.400 175.221 206.400 278.210 L 206.400 381.200 218.800 381.200 L 231.200 381.200 231.200 254.347 L 231.200 127.494 210.134 106.447 C 187.700 84.032,187.604 83.925,187.601 81.274 C 187.599 78.720,187.692 78.604,198.100 68.126 L 207.709 58.453 206.367 56.726 C 201.004 49.827,187.564 38.472,178.931 33.548 C 168.098 27.369,158.426 23.658,146.200 20.992 C 137.708 19.140,123.948 18.345,116.000 19.248 M56.400 233.052 C 56.400 233.285,56.850 233.999,57.400 234.638 C 57.949 235.277,58.399 236.025,58.400 236.300 C 58.400 236.575,58.538 236.800,58.706 236.800 C 58.874 236.800,59.456 237.520,60.000 238.400 C 60.544 239.280,61.126 240.000,61.294 240.000 C 61.462 240.000,61.600 240.225,61.600 240.500 C 61.601 240.775,62.006 241.484,62.500 242.076 C 62.995 242.668,64.919 245.368,66.775 248.076 C 68.631 250.784,70.521 253.463,70.975 254.029 C 71.429 254.594,72.250 255.653,72.800 256.382 C 75.544 260.017,80.884 265.284,84.375 267.800 L 87.151 269.800 87.175 279.893 C 87.233 303.682,80.866 315.279,64.000 322.102 C 61.732 323.020,61.348 323.151,60.200 323.398 C 59.540 323.541,58.415 323.754,57.700 323.872 C 56.985 323.991,56.400 324.219,56.400 324.380 C 56.400 324.541,57.165 324.535,58.100 324.367 C 70.835 322.071,81.691 312.468,85.732 299.923 C 87.392 294.768,87.600 292.655,87.600 280.935 L 87.600 269.718 85.100 267.767 C 81.597 265.033,75.528 259.105,73.504 256.441 C 72.568 255.208,71.702 254.110,71.580 254.000 C 71.457 253.890,70.365 252.360,69.151 250.600 C 57.948 234.348,56.400 232.218,56.400 233.052 M191.380 235.626 C 190.291 237.174,188.860 239.185,188.200 240.094 C 187.110 241.596,185.878 243.363,180.428 251.239 C 176.269 257.251,171.114 262.804,165.700 267.107 L 162.400 269.729 162.400 280.965 C 162.401 292.449,162.658 295.104,164.235 299.905 C 168.093 311.641,178.423 321.277,190.000 323.937 C 193.397 324.718,193.543 324.725,193.774 324.123 C 194.126 323.207,194.027 233.862,193.674 233.306 C 193.463 232.974,192.711 233.735,191.380 235.626 M193.600 278.844 L 193.600 324.088 192.300 323.872 C 190.119 323.511,188.644 323.158,187.700 322.770 C 187.205 322.566,186.395 322.239,185.900 322.042 C 177.220 318.589,170.300 312.172,166.548 304.098 C 165.807 302.502,165.200 300.938,165.200 300.622 C 165.200 300.306,165.020 299.936,164.800 299.800 C 164.580 299.664,164.400 299.059,164.400 298.456 C 164.400 297.853,164.237 297.189,164.039 296.980 C 163.387 296.294,163.150 292.760,162.979 281.200 L 162.811 269.800 165.709 267.708 C 168.838 265.450,174.142 260.432,175.901 258.066 C 176.501 257.260,177.277 256.330,177.626 256.000 C 177.975 255.670,179.237 253.984,180.430 252.253 C 181.624 250.521,182.870 248.717,183.200 248.243 C 183.530 247.768,185.413 245.045,187.384 242.190 C 189.354 239.336,191.109 236.940,191.284 236.867 C 191.458 236.793,191.600 236.478,191.600 236.167 C 191.600 235.855,191.750 235.600,191.932 235.600 C 192.115 235.600,192.506 235.150,192.800 234.600 C 193.094 234.050,193.395 233.600,193.468 233.600 C 193.540 233.600,193.600 253.960,193.600 278.844 " stroke="none" fill="#612a14" fill-rule="evenodd"></path><path id="path3" d="M111.200 6.400 C 111.200 6.631,109.933 6.800,108.200 6.800 C 106.467 6.800,105.200 6.969,105.200 7.200 C 105.200 7.420,104.300 7.600,103.200 7.600 C 102.100 7.600,101.200 7.754,101.200 7.942 C 101.200 8.130,99.936 8.390,98.391 8.520 C 95.712 8.744,93.417 9.285,91.905 10.049 C 91.523 10.242,90.769 10.400,90.229 10.400 C 89.689 10.400,89.136 10.580,89.000 10.800 C 88.864 11.020,88.324 11.200,87.800 11.200 C 87.276 11.200,86.736 11.380,86.600 11.600 C 86.464 11.820,85.924 12.000,85.400 12.000 C 84.876 12.000,84.336 12.180,84.200 12.400 C 84.064 12.620,83.603 12.800,83.176 12.800 C 82.749 12.800,82.400 12.980,82.400 13.200 C 82.400 13.420,81.860 13.600,81.200 13.600 C 80.540 13.600,80.000 13.780,80.000 14.000 C 80.000 14.220,79.651 14.400,79.224 14.400 C 78.797 14.400,78.336 14.580,78.200 14.800 C 78.064 15.020,77.603 15.200,77.176 15.200 C 76.749 15.200,76.400 15.380,76.400 15.600 C 76.400 15.820,76.040 16.000,75.600 16.000 C 75.160 16.000,74.800 16.180,74.800 16.400 C 74.800 16.620,74.440 16.800,74.000 16.800 C 73.560 16.800,73.200 16.980,73.200 17.200 C 73.200 17.420,72.840 17.600,72.400 17.600 C 71.960 17.600,71.600 17.780,71.600 18.000 C 71.600 18.220,71.240 18.400,70.800 18.400 C 70.360 18.400,70.000 18.580,70.000 18.800 C 70.000 19.020,69.640 19.200,69.200 19.200 C 68.760 19.200,68.400 19.380,68.400 19.600 C 68.400 19.820,68.040 20.000,67.600 20.000 C 67.160 20.000,66.800 20.180,66.800 20.400 C 66.800 20.620,66.564 20.800,66.275 20.800 C 65.987 20.800,65.364 21.160,64.892 21.600 C 64.420 22.040,63.756 22.400,63.417 22.400 C 63.078 22.400,62.800 22.580,62.800 22.800 C 62.800 23.020,62.564 23.200,62.275 23.200 C 61.987 23.200,61.388 23.538,60.945 23.951 C 60.501 24.364,59.747 24.826,59.269 24.978 C 58.791 25.130,58.400 25.410,58.400 25.600 C 58.400 25.790,58.034 26.062,57.587 26.204 C 57.140 26.346,56.338 26.898,55.805 27.431 C 55.272 27.964,54.630 28.400,54.379 28.400 C 54.127 28.400,53.417 28.940,52.800 29.600 C 52.183 30.260,51.467 30.800,51.208 30.800 C 50.949 30.800,50.046 31.520,49.200 32.400 C 48.354 33.280,47.484 34.000,47.266 34.000 C 47.049 34.000,45.862 35.035,44.630 36.300 C 41.905 39.099,39.553 41.450,36.392 44.535 C 35.076 45.819,34.000 47.048,34.000 47.266 C 34.000 47.484,33.280 48.354,32.400 49.200 C 31.520 50.046,30.800 50.905,30.800 51.109 C 30.800 51.314,30.260 52.046,29.600 52.737 C 28.940 53.428,28.400 54.129,28.400 54.296 C 28.399 54.463,27.949 55.123,27.400 55.762 C 26.850 56.401,26.400 57.049,26.400 57.201 C 26.400 57.353,26.040 57.893,25.600 58.400 C 25.160 58.907,24.800 59.565,24.800 59.861 C 24.800 60.158,24.620 60.400,24.400 60.400 C 24.180 60.400,24.000 60.670,24.000 61.000 C 24.000 61.330,23.820 61.600,23.600 61.600 C 23.380 61.600,23.200 61.870,23.200 62.200 C 23.200 62.530,23.020 62.800,22.800 62.800 C 22.580 62.800,22.400 63.078,22.400 63.417 C 22.400 63.756,22.040 64.420,21.600 64.892 C 21.160 65.364,20.800 65.987,20.800 66.275 C 20.800 66.564,20.620 66.800,20.400 66.800 C 20.180 66.800,20.000 67.160,20.000 67.600 C 20.000 68.040,19.820 68.400,19.600 68.400 C 19.380 68.400,19.200 68.760,19.200 69.200 C 19.200 69.640,19.020 70.000,18.800 70.000 C 18.580 70.000,18.400 70.360,18.400 70.800 C 18.400 71.240,18.220 71.600,18.000 71.600 C 17.780 71.600,17.600 71.960,17.600 72.400 C 17.600 72.840,17.420 73.200,17.200 73.200 C 16.980 73.200,16.800 73.560,16.800 74.000 C 16.800 74.440,16.620 74.800,16.400 74.800 C 16.180 74.800,16.000 75.160,16.000 75.600 C 16.000 76.040,15.820 76.400,15.600 76.400 C 15.380 76.400,15.200 76.749,15.200 77.176 C 15.200 77.603,15.020 78.064,14.800 78.200 C 14.580 78.336,14.400 78.797,14.400 79.224 C 14.400 79.651,14.220 80.000,14.000 80.000 C 13.780 80.000,13.600 80.540,13.600 81.200 C 13.600 81.860,13.420 82.400,13.200 82.400 C 12.980 82.400,12.800 82.749,12.800 83.176 C 12.800 83.603,12.620 84.064,12.400 84.200 C 12.180 84.336,12.000 84.876,12.000 85.400 C 12.000 85.924,11.820 86.464,11.600 86.600 C 11.380 86.736,11.200 87.276,11.200 87.800 C 11.200 88.324,11.020 88.864,10.800 89.000 C 10.580 89.136,10.400 89.689,10.400 90.229 C 10.400 90.769,10.242 91.523,10.049 91.905 C 9.285 93.417,8.744 95.712,8.520 98.391 C 8.390 99.936,8.130 101.200,7.942 101.200 C 7.754 101.200,7.600 102.100,7.600 103.200 C 7.600 104.300,7.420 105.200,7.200 105.200 C 6.969 105.200,6.800 106.467,6.800 108.200 C 6.800 109.933,6.631 111.200,6.400 111.200 C 6.134 111.200,6.000 158.133,6.000 251.200 C 6.000 344.267,6.134 391.200,6.400 391.200 C 6.620 391.200,6.800 391.393,6.800 391.629 C 6.800 392.132,7.485 392.803,8.710 393.500 C 9.844 394.145,241.200 394.244,241.200 393.600 C 241.200 393.380,241.393 393.200,241.629 393.200 C 242.182 393.200,243.200 392.182,243.200 391.629 C 243.200 391.393,243.380 391.200,243.600 391.200 C 243.860 391.200,244.004 385.359,244.012 374.500 C 244.021 361.796,244.133 357.991,244.480 358.600 C 244.731 359.040,245.265 359.691,245.668 360.047 C 246.071 360.403,246.400 360.916,246.400 361.186 C 246.400 361.457,246.940 362.183,247.600 362.800 C 248.260 363.417,248.800 364.111,248.800 364.343 C 248.800 364.975,259.982 376.000,260.623 376.000 C 260.764 376.000,261.383 376.540,262.000 377.200 C 262.617 377.860,263.274 378.400,263.460 378.401 C 263.647 378.401,264.430 378.941,265.200 379.600 C 265.970 380.259,266.743 380.799,266.917 380.799 C 267.091 380.800,267.620 381.160,268.092 381.600 C 268.564 382.040,269.187 382.400,269.475 382.400 C 269.764 382.400,270.000 382.580,270.000 382.800 C 270.000 383.020,270.360 383.200,270.800 383.200 C 271.240 383.200,271.600 383.345,271.600 383.521 C 271.600 383.698,272.497 384.283,273.594 384.821 C 274.690 385.360,275.590 385.935,275.594 386.100 C 275.597 386.265,275.949 386.400,276.376 386.400 C 276.803 386.400,277.264 386.580,277.400 386.800 C 277.536 387.020,277.997 387.200,278.424 387.200 C 278.851 387.200,279.200 387.380,279.200 387.600 C 279.200 387.820,279.560 388.000,280.000 388.000 C 280.440 388.000,280.800 388.147,280.800 388.328 C 280.800 388.508,281.711 388.904,282.825 389.207 C 283.939 389.510,284.940 389.903,285.049 390.079 C 285.158 390.256,285.651 390.400,286.144 390.400 C 286.637 390.400,287.219 390.579,287.438 390.798 C 287.656 391.016,288.952 391.312,290.318 391.454 C 291.683 391.597,292.800 391.868,292.800 392.057 C 292.800 392.246,293.520 392.400,294.400 392.400 C 295.280 392.400,296.000 392.580,296.000 392.800 C 296.000 393.022,297.059 393.200,298.376 393.200 C 299.683 393.200,300.864 393.380,301.000 393.600 C 301.337 394.145,323.463 394.145,323.800 393.600 C 323.936 393.380,325.016 393.200,326.200 393.200 C 327.384 393.200,328.464 393.020,328.600 392.800 C 328.736 392.580,329.647 392.400,330.624 392.400 C 331.601 392.400,332.400 392.246,332.400 392.057 C 332.400 391.868,333.517 391.597,334.882 391.454 C 336.248 391.312,337.544 391.016,337.762 390.798 C 337.981 390.579,338.486 390.400,338.885 390.400 C 339.284 390.400,339.968 390.220,340.405 390.000 C 340.842 389.780,341.558 389.420,341.995 389.200 C 342.432 388.980,343.062 388.800,343.395 388.800 C 343.728 388.800,344.000 388.620,344.000 388.400 C 344.000 388.180,344.279 388.000,344.619 388.000 C 344.960 388.000,345.984 387.640,346.894 387.200 C 347.805 386.760,348.786 386.400,349.075 386.400 C 349.364 386.400,349.600 386.220,349.600 386.000 C 349.600 385.780,349.960 385.600,350.400 385.600 C 350.840 385.600,351.200 385.420,351.200 385.200 C 351.200 384.980,351.436 384.800,351.725 384.800 C 352.013 384.800,352.636 384.440,353.108 384.000 C 353.580 383.560,354.244 383.200,354.583 383.200 C 354.922 383.200,355.200 383.020,355.200 382.800 C 355.200 382.580,355.470 382.400,355.800 382.400 C 356.130 382.400,356.400 382.220,356.400 382.000 C 356.400 381.780,356.670 381.600,357.000 381.600 C 357.330 381.600,357.600 381.420,357.600 381.200 C 357.600 380.980,357.830 380.800,358.112 380.800 C 358.393 380.800,358.883 380.440,359.200 380.000 C 359.517 379.560,360.007 379.200,360.288 379.200 C 360.569 379.200,361.541 378.480,362.448 377.600 C 363.355 376.720,364.253 376.000,364.445 376.000 C 365.392 376.000,376.000 365.410,376.000 364.465 C 376.000 364.262,376.720 363.355,377.600 362.448 C 378.480 361.541,379.200 360.569,379.200 360.288 C 379.200 360.007,379.560 359.517,380.000 359.200 C 380.440 358.883,380.800 358.393,380.800 358.112 C 380.800 357.830,380.980 357.600,381.200 357.600 C 381.420 357.600,381.600 357.330,381.600 357.000 C 381.600 356.670,381.780 356.400,382.000 356.400 C 382.220 356.400,382.400 356.130,382.400 355.800 C 382.400 355.470,382.580 355.200,382.800 355.200 C 383.020 355.200,383.200 354.840,383.200 354.400 C 383.200 353.960,383.352 353.600,383.537 353.600 C 383.723 353.600,384.308 352.745,384.837 351.700 C 385.367 350.655,385.935 349.740,386.100 349.667 C 386.265 349.593,386.400 349.312,386.400 349.042 C 386.400 348.771,386.760 347.805,387.200 346.894 C 387.640 345.984,388.000 344.960,388.000 344.619 C 388.000 344.279,388.180 344.000,388.400 344.000 C 388.620 344.000,388.800 343.728,388.800 343.395 C 388.800 343.062,388.980 342.432,389.200 341.995 C 389.420 341.558,389.780 340.842,390.000 340.405 C 390.220 339.968,390.400 339.284,390.400 338.885 C 390.400 338.486,390.579 337.981,390.798 337.762 C 391.016 337.544,391.312 336.248,391.454 334.882 C 391.597 333.517,391.868 332.400,392.057 332.400 C 392.246 332.400,392.400 331.601,392.400 330.624 C 392.400 329.647,392.580 328.736,392.800 328.600 C 393.020 328.464,393.200 327.373,393.200 326.176 C 393.200 324.979,393.380 324.000,393.600 324.000 C 394.220 324.000,394.127 309.812,393.500 308.710 C 392.803 307.485,392.132 306.800,391.629 306.800 C 391.393 306.800,391.200 306.620,391.200 306.400 C 391.200 306.147,388.267 306.000,383.200 306.000 L 375.200 306.000 375.166 294.900 C 375.133 284.104,374.946 281.333,373.999 277.600 C 373.748 276.610,373.446 275.215,373.327 274.500 C 373.209 273.785,372.952 273.200,372.756 273.200 C 372.560 273.200,372.400 272.660,372.400 272.000 C 372.400 271.340,372.220 270.800,372.000 270.800 C 371.780 270.800,371.600 270.260,371.600 269.600 C 371.600 268.940,371.420 268.400,371.200 268.400 C 370.980 268.400,370.800 268.128,370.800 267.795 C 370.800 267.462,370.639 266.877,370.442 266.495 C 370.245 266.113,369.484 264.540,368.750 263.000 C 368.016 261.460,367.322 260.110,367.207 260.000 C 367.093 259.890,366.744 259.305,366.432 258.700 C 366.120 258.095,365.715 257.600,365.532 257.600 C 365.350 257.600,365.200 257.280,365.200 256.888 C 365.200 256.497,364.840 255.917,364.400 255.600 C 363.960 255.283,363.600 254.743,363.600 254.400 C 363.600 254.057,363.240 253.517,362.800 253.200 C 362.360 252.883,362.000 252.379,362.000 252.080 C 362.000 251.782,361.280 250.846,360.400 250.000 C 359.520 249.154,358.800 248.258,358.800 248.007 C 358.800 247.413,352.587 241.200,351.993 241.200 C 351.742 241.200,350.846 240.480,350.000 239.600 C 349.154 238.720,348.179 238.000,347.831 238.000 C 347.484 238.000,347.200 237.820,347.200 237.600 C 347.200 237.365,345.800 237.200,343.800 237.200 C 341.800 237.200,340.400 237.365,340.400 237.600 C 340.400 237.820,340.117 238.000,339.771 238.000 C 339.000 238.000,338.000 238.951,338.000 239.683 C 338.000 239.980,337.640 240.483,337.200 240.800 C 336.760 241.117,336.400 241.579,336.400 241.826 C 336.400 242.074,336.040 242.602,335.600 243.000 C 335.160 243.398,334.800 243.876,334.800 244.062 C 334.800 244.247,334.080 245.141,333.200 246.048 C 332.320 246.955,331.600 247.865,331.600 248.070 C 331.600 248.415,330.145 249.878,324.807 254.900 C 323.696 255.945,322.560 256.800,322.282 256.800 C 322.004 256.800,321.517 257.160,321.200 257.600 C 320.883 258.040,320.314 258.400,319.935 258.400 C 319.557 258.400,319.147 258.563,319.024 258.762 C 318.842 259.056,315.208 261.058,312.400 262.411 C 312.070 262.570,311.018 263.082,310.062 263.550 C 309.106 264.017,307.981 264.400,307.562 264.400 C 307.143 264.400,306.800 264.580,306.800 264.800 C 306.800 265.020,306.260 265.200,305.600 265.200 C 304.940 265.200,304.400 265.380,304.400 265.600 C 304.400 265.820,303.680 266.000,302.800 266.000 C 301.920 266.000,301.200 266.180,301.200 266.400 C 301.200 266.620,300.300 266.800,299.200 266.800 C 298.100 266.800,297.200 266.980,297.200 267.200 C 297.200 267.441,295.533 267.600,293.000 267.600 C 290.467 267.600,288.800 267.759,288.800 268.000 C 288.800 268.240,287.200 268.400,284.800 268.400 C 282.400 268.400,280.800 268.560,280.800 268.800 C 280.800 269.020,280.170 269.200,279.400 269.200 C 278.630 269.200,278.000 269.380,278.000 269.600 C 278.000 269.820,277.651 270.000,277.224 270.000 C 276.797 270.000,276.336 270.180,276.200 270.400 C 276.064 270.620,275.513 270.800,274.976 270.800 C 274.439 270.800,274.000 270.980,274.000 271.200 C 274.000 271.420,273.680 271.600,273.288 271.600 C 272.897 271.600,272.317 271.960,272.000 272.400 C 271.683 272.840,271.143 273.200,270.800 273.200 C 270.457 273.200,269.917 273.560,269.600 274.000 C 269.283 274.440,268.794 274.800,268.515 274.800 C 267.654 274.800,262.000 280.057,262.000 280.857 C 262.000 281.064,261.640 281.620,261.200 282.092 C 260.760 282.564,260.400 283.187,260.400 283.475 C 260.400 283.764,260.253 284.000,260.074 284.000 C 259.582 284.000,258.400 286.692,258.400 287.814 C 258.400 288.356,258.220 288.800,258.000 288.800 C 257.780 288.800,257.600 289.160,257.600 289.600 C 257.600 290.040,257.420 290.400,257.200 290.400 C 256.980 290.400,256.800 291.019,256.800 291.776 C 256.800 292.533,256.620 293.264,256.400 293.400 C 256.161 293.548,256.000 296.137,256.000 299.824 L 256.000 306.000 250.000 306.000 L 244.000 306.000 244.000 222.000 L 244.000 138.000 245.600 138.000 C 246.480 138.000,247.200 137.820,247.200 137.600 C 247.200 137.380,247.447 137.200,247.748 137.200 C 248.050 137.200,250.283 135.220,252.711 132.800 C 255.139 130.380,257.322 128.400,257.562 128.400 C 257.803 128.400,258.000 128.220,258.000 128.000 C 258.000 127.780,258.360 127.600,258.800 127.600 C 259.240 127.600,259.600 127.420,259.600 127.200 C 259.600 126.980,259.960 126.800,260.400 126.800 C 260.840 126.800,261.200 126.620,261.200 126.400 C 261.200 126.158,262.933 126.000,265.600 126.000 C 268.267 126.000,270.000 126.158,270.000 126.400 C 270.000 126.620,270.360 126.800,270.800 126.800 C 271.240 126.800,271.600 126.980,271.600 127.200 C 271.600 127.420,271.960 127.600,272.400 127.600 C 272.840 127.600,273.200 127.780,273.200 128.000 C 273.200 128.220,273.441 128.400,273.735 128.400 C 274.029 128.400,282.564 136.680,292.700 146.800 C 302.837 156.920,311.287 165.200,311.477 165.200 C 311.668 165.200,312.083 165.560,312.400 166.000 C 312.717 166.440,313.297 166.800,313.688 166.800 C 314.080 166.800,314.400 166.980,314.400 167.200 C 314.400 167.420,314.760 167.600,315.200 167.600 C 315.640 167.600,316.000 167.780,316.000 168.000 C 316.000 168.220,316.540 168.400,317.200 168.400 C 317.860 168.400,318.400 168.580,318.400 168.800 C 318.400 169.048,320.600 169.200,324.200 169.200 C 327.800 169.200,330.000 169.048,330.000 168.800 C 330.000 168.580,330.540 168.400,331.200 168.400 C 331.860 168.400,332.400 168.220,332.400 168.000 C 332.400 167.780,332.760 167.600,333.200 167.600 C 333.640 167.600,334.000 167.420,334.000 167.200 C 334.000 166.980,334.320 166.800,334.712 166.800 C 335.103 166.800,335.683 166.440,336.000 166.000 C 336.317 165.560,336.745 165.200,336.951 165.200 C 337.837 165.200,341.600 160.602,341.600 159.519 C 341.600 159.123,341.780 158.800,342.000 158.800 C 342.220 158.800,342.400 158.530,342.400 158.200 C 342.400 157.870,342.580 157.600,342.800 157.600 C 343.020 157.600,343.200 157.060,343.200 156.400 C 343.200 155.740,343.380 155.200,343.600 155.200 C 343.849 155.200,344.000 152.933,344.000 149.200 C 344.000 145.467,343.849 143.200,343.600 143.200 C 343.380 143.200,343.200 142.750,343.200 142.200 C 343.200 141.650,343.020 141.200,342.800 141.200 C 342.580 141.200,342.400 140.840,342.400 140.400 C 342.400 139.960,342.220 139.600,342.000 139.600 C 341.780 139.600,341.600 139.277,341.600 138.881 C 341.600 137.683,340.787 136.811,323.600 119.569 C 306.078 101.990,302.800 98.546,302.800 97.714 C 302.800 97.431,302.620 97.200,302.400 97.200 C 302.180 97.200,302.000 96.761,302.000 96.224 C 302.000 95.687,301.820 95.136,301.600 95.000 C 301.375 94.861,301.200 92.937,301.200 90.600 C 301.200 88.263,301.375 86.339,301.600 86.200 C 301.820 86.064,302.000 85.513,302.000 84.976 C 302.000 84.439,302.180 84.000,302.400 84.000 C 302.620 84.000,302.800 83.769,302.800 83.486 C 302.800 82.919,305.646 79.627,309.500 75.738 C 310.875 74.350,312.000 73.031,312.000 72.807 C 312.000 72.583,312.180 72.400,312.400 72.400 C 312.637 72.400,312.800 70.933,312.800 68.800 C 312.800 66.667,312.637 65.200,312.400 65.200 C 312.180 65.200,312.000 64.946,312.000 64.635 C 312.000 63.885,260.932 12.800,260.182 12.800 C 259.862 12.800,259.600 12.620,259.600 12.400 C 259.600 12.165,258.200 12.000,256.200 12.000 C 254.200 12.000,252.800 12.165,252.800 12.400 C 252.800 12.620,252.557 12.800,252.259 12.800 C 251.962 12.800,249.757 14.808,247.359 17.263 C 244.962 19.717,240.952 23.722,238.449 26.163 C 235.947 28.603,232.257 32.297,230.249 34.370 C 219.151 45.838,216.646 48.078,216.000 47.119 C 215.670 46.629,214.433 45.299,213.252 44.162 C 210.807 41.811,209.709 40.715,205.869 36.791 C 204.368 35.256,202.973 34.000,202.771 34.000 C 202.569 34.000,201.485 33.100,200.361 32.000 C 199.238 30.900,198.107 30.000,197.848 30.000 C 197.589 30.000,197.117 29.640,196.800 29.200 C 196.483 28.760,196.038 28.398,195.812 28.395 C 195.585 28.392,194.950 28.031,194.400 27.592 C 192.805 26.321,190.398 24.800,189.982 24.800 C 189.772 24.800,189.600 24.620,189.600 24.400 C 189.600 24.180,189.330 24.000,189.000 24.000 C 188.670 24.000,188.400 23.820,188.400 23.600 C 188.400 23.380,188.130 23.200,187.800 23.200 C 187.470 23.200,187.200 23.020,187.200 22.800 C 187.200 22.580,186.840 22.400,186.400 22.400 C 185.960 22.400,185.600 22.220,185.600 22.000 C 185.600 21.780,185.364 21.600,185.075 21.600 C 184.787 21.600,184.164 21.240,183.692 20.800 C 183.220 20.360,182.556 20.000,182.217 20.000 C 181.878 20.000,181.600 19.820,181.600 19.600 C 181.600 19.380,181.240 19.200,180.800 19.200 C 180.360 19.200,180.000 19.020,180.000 18.800 C 180.000 18.580,179.640 18.400,179.200 18.400 C 178.760 18.400,178.400 18.220,178.400 18.000 C 178.400 17.780,178.040 17.600,177.600 17.600 C 177.160 17.600,176.800 17.420,176.800 17.200 C 176.800 16.980,176.440 16.800,176.000 16.800 C 175.560 16.800,175.200 16.620,175.200 16.400 C 175.200 16.180,174.851 16.000,174.424 16.000 C 173.997 16.000,173.536 15.820,173.400 15.600 C 173.264 15.380,172.803 15.200,172.376 15.200 C 171.949 15.200,171.600 15.020,171.600 14.800 C 171.600 14.580,171.251 14.400,170.824 14.400 C 170.397 14.400,169.936 14.220,169.800 14.000 C 169.664 13.780,169.113 13.600,168.576 13.600 C 168.039 13.600,167.600 13.420,167.600 13.200 C 167.600 12.980,167.238 12.800,166.795 12.800 C 166.352 12.800,165.677 12.641,165.295 12.447 C 164.079 11.828,162.651 11.305,160.800 10.800 C 159.810 10.530,158.640 10.163,158.200 9.985 C 157.760 9.806,156.860 9.549,156.200 9.412 C 155.540 9.276,154.280 9.000,153.400 8.800 C 152.520 8.599,151.125 8.427,150.300 8.417 C 149.475 8.408,148.800 8.220,148.800 8.000 C 148.800 7.780,147.911 7.600,146.824 7.600 C 145.737 7.600,144.736 7.420,144.600 7.200 C 144.464 6.980,143.103 6.800,141.576 6.800 C 139.992 6.800,138.800 6.628,138.800 6.400 C 138.800 6.141,133.933 6.000,125.000 6.000 C 116.067 6.000,111.200 6.141,111.200 6.400 M135.200 19.396 C 142.253 20.143,144.085 20.457,150.800 22.070 C 162.033 24.769,174.033 30.090,183.931 36.759 C 191.876 42.111,202.035 51.153,206.367 56.726 L 207.709 58.453 198.100 68.126 C 187.692 78.604,187.599 78.720,187.601 81.274 C 187.604 83.925,187.700 84.032,210.134 106.447 L 231.200 127.494 231.200 254.347 L 231.200 381.200 218.800 381.200 L 206.400 381.200 206.400 278.210 L 206.400 175.221 212.500 175.110 L 218.600 175.000 218.600 168.800 L 218.600 162.600 207.600 162.354 C 196.983 162.116,194.514 161.892,188.224 160.592 C 178.397 158.562,167.339 153.904,159.031 148.295 C 148.810 141.393,139.348 131.246,133.187 120.577 L 131.200 117.137 131.200 110.666 L 131.200 104.195 132.300 103.748 C 138.297 101.312,145.008 100.018,151.700 100.007 L 156.400 100.000 156.400 93.800 L 156.400 87.600 151.500 87.607 C 145.872 87.615,138.822 88.636,133.808 90.168 C 131.161 90.977,131.160 90.974,131.288 84.577 L 131.400 79.018 134.741 77.880 C 140.175 76.028,143.041 75.529,149.800 75.257 L 156.200 75.000 156.200 68.800 L 156.200 62.600 153.800 62.464 C 151.170 62.315,142.739 63.018,140.200 63.597 C 139.320 63.798,137.430 64.260,136.000 64.623 C 134.570 64.987,132.905 65.376,132.300 65.488 L 131.200 65.691 131.200 59.943 L 131.200 54.195 132.300 53.748 C 138.297 51.312,145.008 50.018,151.700 50.007 L 156.400 50.000 156.400 43.800 L 156.400 37.600 151.665 37.600 C 145.949 37.600,138.322 38.665,133.521 40.134 C 131.112 40.871,131.200 41.038,131.200 35.733 L 131.200 31.200 125.000 31.200 L 118.800 31.200 118.800 35.733 C 118.800 41.038,118.888 40.871,116.479 40.134 C 111.675 38.664,104.050 37.600,98.324 37.600 L 93.579 37.600 93.690 43.700 L 93.800 49.800 99.400 50.049 C 105.031 50.299,107.371 50.627,111.800 51.787 C 114.112 52.392,115.008 52.680,117.600 53.649 L 118.800 54.097 118.800 59.849 C 118.800 66.054,118.649 66.403,116.467 65.236 C 114.276 64.063,101.505 62.287,96.677 62.483 L 93.800 62.600 93.800 68.800 L 93.800 75.000 100.000 75.231 C 106.585 75.475,110.431 76.142,115.506 77.917 L 118.600 79.000 118.712 84.380 C 118.843 90.674,118.790 90.929,117.450 90.419 C 113.828 89.042,104.290 87.631,98.490 87.614 L 93.579 87.600 93.690 93.700 L 93.800 99.800 99.400 100.049 C 106.801 100.377,111.713 101.350,117.700 103.671 L 118.800 104.097 118.800 110.631 L 118.800 117.165 117.600 119.200 C 116.940 120.319,116.400 121.327,116.400 121.440 C 116.400 121.552,115.652 122.759,114.738 124.122 C 103.827 140.390,88.843 152.063,71.291 157.969 C 61.524 161.255,56.191 162.071,42.600 162.361 L 31.400 162.600 31.400 168.800 L 31.400 175.000 37.500 175.110 L 43.600 175.221 43.600 278.210 L 43.600 381.200 31.200 381.200 L 18.800 381.200 18.800 250.777 C 18.800 163.201,18.937 119.080,19.216 116.477 C 19.995 109.226,21.343 101.730,22.773 96.700 C 23.008 95.875,23.355 94.615,23.545 93.900 C 31.670 63.304,63.123 31.817,93.800 23.568 C 94.460 23.390,95.720 23.043,96.600 22.796 C 108.927 19.336,122.962 18.099,135.200 19.396 M264.496 35.496 C 268.843 39.839,272.400 43.570,272.400 43.787 C 272.400 44.369,266.305 50.400,265.717 50.400 C 265.012 50.400,249.600 35.092,249.600 34.392 C 249.600 33.744,255.559 27.600,256.187 27.600 C 256.410 27.600,260.149 31.153,264.496 35.496 M248.692 50.900 C 252.746 54.915,256.246 58.538,256.472 58.950 C 256.915 59.762,251.247 66.000,250.066 66.000 C 249.321 66.000,234.011 50.757,234.005 50.009 C 233.998 49.135,239.652 43.600,240.552 43.600 C 241.016 43.600,244.254 46.503,248.692 50.900 M289.468 60.572 C 298.128 69.276,297.756 68.652,295.633 70.923 C 286.119 81.100,285.044 95.472,292.918 107.200 C 293.583 108.190,302.236 117.143,312.147 127.096 C 331.925 146.957,331.166 146.075,331.186 149.220 C 331.218 154.266,326.194 157.824,321.719 155.925 C 321.103 155.664,312.230 147.141,302.000 136.984 C 286.184 121.283,282.952 118.259,280.407 116.787 C 269.221 110.317,255.004 111.884,245.927 120.587 C 245.116 121.364,244.140 122.000,243.756 122.000 C 242.944 122.000,228.000 107.151,228.000 106.345 C 228.000 105.748,280.772 52.800,281.367 52.800 C 281.569 52.800,285.215 56.297,289.468 60.572 M233.247 66.688 C 237.391 70.807,240.883 74.441,241.007 74.763 C 241.275 75.460,235.346 81.600,234.406 81.600 C 233.618 81.600,218.401 66.388,218.397 65.596 C 218.393 64.739,224.056 59.227,224.956 59.212 C 225.410 59.205,228.709 62.179,233.247 66.688 M217.624 82.341 C 222.220 86.915,225.200 90.184,225.200 90.651 C 225.200 91.548,219.665 97.200,218.787 97.200 C 218.013 97.200,202.801 81.977,202.795 81.196 C 202.789 80.373,208.431 74.874,209.324 74.833 C 209.754 74.813,213.119 77.857,217.624 82.341 M126.207 132.300 C 126.889 133.373,129.999 137.602,130.399 138.000 C 130.510 138.110,131.311 139.100,132.181 140.200 C 134.178 142.726,142.008 150.584,144.440 152.503 C 149.383 156.403,153.758 159.453,157.800 161.815 C 163.602 165.206,174.087 169.617,179.200 170.818 C 179.970 170.999,181.320 171.354,182.200 171.607 C 183.992 172.122,186.719 172.670,190.000 173.175 C 191.210 173.361,192.605 173.644,193.100 173.803 L 194.000 174.093 194.000 192.460 L 194.000 210.827 191.201 214.913 C 189.661 217.161,186.507 221.700,184.193 225.000 C 181.878 228.300,179.236 232.080,178.320 233.400 C 177.405 234.720,176.508 235.860,176.328 235.933 C 176.147 236.007,176.000 236.288,176.000 236.558 C 176.000 236.828,175.679 237.398,175.287 237.825 C 174.634 238.536,171.648 242.760,168.661 247.200 C 167.185 249.393,159.389 257.207,157.654 258.232 C 156.964 258.639,156.400 259.114,156.400 259.286 C 156.400 259.459,156.164 259.600,155.875 259.600 C 155.587 259.600,155.001 259.915,154.573 260.300 C 154.145 260.685,153.077 261.387,152.198 261.860 C 151.319 262.333,149.970 263.064,149.200 263.484 C 148.430 263.905,146.720 264.660,145.400 265.163 C 144.080 265.666,142.640 266.216,142.200 266.384 C 132.939 269.921,116.378 269.932,107.800 266.407 C 107.360 266.226,105.920 265.665,104.600 265.161 C 96.596 262.102,87.860 255.447,82.335 248.200 C 80.825 246.220,79.235 244.150,78.801 243.600 C 78.366 243.050,78.008 242.375,78.005 242.100 C 78.002 241.825,77.862 241.600,77.694 241.600 C 77.526 241.600,76.944 240.880,76.400 240.000 C 75.856 239.120,75.274 238.400,75.106 238.400 C 74.938 238.400,74.800 238.164,74.800 237.875 C 74.800 237.587,74.478 237.002,74.085 236.575 C 73.691 236.149,72.194 234.090,70.757 232.000 C 69.320 229.910,67.379 227.120,66.444 225.800 C 65.509 224.480,63.647 221.780,62.306 219.800 C 60.965 217.820,59.749 216.110,59.604 216.000 C 59.459 215.890,58.588 214.685,57.670 213.322 L 56.000 210.844 56.000 192.469 L 56.000 174.093 57.100 173.817 C 57.705 173.664,59.190 173.384,60.400 173.194 C 61.610 173.003,63.500 172.647,64.600 172.402 C 65.700 172.156,67.187 171.856,67.904 171.734 C 68.621 171.612,69.306 171.351,69.427 171.156 C 69.548 170.960,70.010 170.800,70.453 170.800 C 72.736 170.800,90.675 163.492,92.000 162.022 C 92.110 161.900,92.605 161.575,93.100 161.300 C 93.595 161.025,94.405 160.575,94.900 160.300 C 95.395 160.025,95.890 159.696,96.000 159.570 C 96.110 159.443,97.370 158.557,98.800 157.600 C 100.230 156.643,101.490 155.756,101.600 155.629 C 101.710 155.502,102.790 154.640,104.000 153.713 C 111.033 148.328,119.155 139.538,123.788 132.300 C 124.175 131.695,124.721 131.200,125.000 131.200 C 125.279 131.200,125.822 131.695,126.207 132.300 M62.225 240.600 C 64.821 244.340,67.938 248.840,69.151 250.600 C 70.365 252.360,71.457 253.890,71.580 254.000 C 71.702 254.110,72.568 255.208,73.504 256.441 C 75.528 259.105,81.597 265.033,85.100 267.767 L 87.600 269.718 87.600 280.935 C 87.600 292.655,87.392 294.768,85.732 299.923 C 81.691 312.468,70.835 322.071,58.100 324.367 L 56.400 324.673 56.400 278.651 C 56.400 239.486,56.482 232.716,56.952 233.214 C 57.256 233.536,59.629 236.860,62.225 240.600 M193.994 278.667 C 194.000 326.036,194.036 324.812,192.674 324.531 C 176.943 321.284,166.257 310.685,163.007 295.105 C 162.549 292.910,162.401 289.455,162.400 280.965 L 162.400 269.729 165.700 267.107 C 171.114 262.804,176.269 257.251,180.428 251.239 C 185.878 243.363,187.110 241.596,188.200 240.094 C 188.860 239.185,190.291 237.174,191.380 235.626 C 192.711 233.735,193.463 232.974,193.674 233.306 C 193.847 233.578,193.991 253.990,193.994 278.667 M347.000 254.467 C 350.385 258.445,351.733 260.182,353.465 262.800 C 355.612 266.044,358.800 272.340,358.800 273.337 C 358.800 273.676,358.959 274.051,359.152 274.170 C 359.346 274.290,359.603 274.796,359.724 275.294 C 359.845 275.792,360.125 276.830,360.346 277.600 C 362.308 284.442,362.877 289.519,362.723 298.800 L 362.600 306.200 315.600 306.200 L 268.600 306.200 268.477 304.040 C 267.767 291.575,276.355 281.200,287.381 281.200 C 291.815 281.200,301.043 280.008,305.200 278.898 C 306.410 278.574,307.897 278.220,308.505 278.109 C 309.113 277.998,309.708 277.749,309.829 277.554 C 309.949 277.359,310.399 277.200,310.829 277.200 C 311.259 277.200,311.923 277.041,312.305 276.847 C 312.687 276.652,313.450 276.316,314.000 276.100 C 316.321 275.188,317.102 274.853,319.000 273.960 C 327.441 269.985,337.717 261.872,343.386 254.708 C 345.007 252.659,345.438 252.630,347.000 254.467 M150.394 284.123 C 150.403 295.189,151.926 303.146,155.265 309.589 C 155.889 310.793,156.400 312.008,156.400 312.289 C 156.400 312.699,150.215 312.800,125.000 312.800 C 102.458 312.800,93.600 312.676,93.600 312.361 C 93.600 312.119,94.320 310.427,95.200 308.600 C 96.080 306.773,96.800 305.079,96.800 304.834 C 96.800 304.589,96.972 304.077,97.183 303.695 C 98.472 301.357,99.346 294.802,99.571 285.800 L 99.800 276.600 101.100 276.475 C 101.830 276.404,102.400 276.536,102.400 276.775 C 102.400 277.009,102.702 277.200,103.072 277.200 C 103.703 277.200,105.594 277.730,107.400 278.414 C 108.140 278.694,110.293 279.161,114.800 280.020 C 120.780 281.160,129.341 281.127,135.600 279.940 C 140.357 279.038,141.827 278.701,142.495 278.357 C 142.877 278.161,143.631 278.000,144.171 278.000 C 144.711 278.000,145.264 277.820,145.400 277.600 C 145.536 277.380,146.051 277.200,146.544 277.200 C 147.037 277.200,147.611 277.037,147.820 276.839 C 149.939 274.824,150.387 276.091,150.394 284.123 M335.525 318.800 L 381.249 318.800 380.988 320.700 C 379.880 328.755,376.849 338.692,373.956 343.755 C 373.140 345.184,371.998 347.203,371.161 348.700 C 367.294 355.615,353.716 369.246,348.826 371.122 C 348.503 371.246,347.109 372.034,345.727 372.874 C 344.345 373.713,343.126 374.400,343.017 374.400 C 342.909 374.400,341.665 374.929,340.253 375.576 C 327.155 381.575,309.816 383.181,296.400 379.639 C 294.750 379.204,292.950 378.732,292.400 378.590 C 291.850 378.449,291.040 378.186,290.600 378.007 C 290.160 377.828,289.170 377.460,288.400 377.191 C 287.630 376.922,285.886 376.184,284.525 375.551 C 283.164 374.918,281.859 374.400,281.625 374.400 C 281.391 374.400,281.200 374.262,281.200 374.094 C 281.200 373.926,280.525 373.478,279.700 373.099 C 273.813 370.393,265.708 363.885,260.397 357.600 C 259.189 356.170,258.093 354.910,257.961 354.800 C 254.812 352.160,246.000 334.223,246.000 330.453 C 246.000 330.010,245.839 329.548,245.642 329.426 C 245.445 329.305,245.184 328.529,245.061 327.703 C 244.591 324.541,244.055 321.351,243.790 320.138 C 243.400 318.346,242.472 318.406,267.400 318.613 C 279.720 318.716,310.376 318.799,335.525 318.800 M167.800 325.925 C 173.194 330.966,186.383 336.800,192.382 336.800 C 193.046 336.800,193.615 337.062,193.757 337.433 C 194.080 338.273,194.066 360.210,193.735 371.900 L 193.472 381.200 124.936 381.200 L 56.400 381.200 56.400 359.235 L 56.400 337.270 58.100 337.014 C 67.185 335.646,75.232 331.959,82.314 325.920 L 83.628 324.800 125.114 324.802 L 166.600 324.804 167.800 325.925 " stroke="none" fill="#040404" fill-rule="evenodd"></path><path id="path4" d="M253.200 31.242 C 251.770 32.781,250.550 34.182,250.489 34.354 C 250.337 34.781,265.111 49.600,265.688 49.600 C 266.194 49.600,271.603 44.203,271.594 43.708 C 271.586 43.252,256.591 28.396,256.165 28.421 C 255.964 28.433,254.630 29.702,253.200 31.242 M237.600 46.849 C 236.170 48.397,234.949 49.802,234.887 49.971 C 234.739 50.373,249.473 65.200,250.020 65.200 C 250.435 65.200,256.000 59.810,256.000 59.408 C 256.000 59.066,240.825 43.999,240.500 44.017 C 240.335 44.026,239.030 45.301,237.600 46.849 M222.020 62.363 C 220.601 63.857,219.374 65.277,219.294 65.518 C 219.214 65.759,222.594 69.394,226.806 73.595 L 234.463 81.234 237.432 78.207 C 239.064 76.542,240.400 75.116,240.400 75.037 C 240.400 74.744,225.158 59.601,224.884 59.623 C 224.728 59.635,223.439 60.868,222.020 62.363 M206.300 78.047 C 204.815 79.584,203.601 81.058,203.603 81.321 C 203.605 81.584,207.016 85.187,211.183 89.327 L 218.760 96.853 221.780 93.833 C 223.441 92.172,224.800 90.762,224.800 90.701 C 224.800 90.435,209.513 75.203,209.269 75.226 C 209.121 75.240,207.785 76.510,206.300 78.047 M244.934 321.500 C 245.390 326.628,246.821 332.069,249.432 338.600 C 251.170 342.945,255.591 350.986,256.800 352.000 C 256.931 352.110,257.477 352.830,258.012 353.600 C 261.384 358.450,268.737 365.395,274.913 369.565 C 277.384 371.233,283.466 374.503,285.400 375.203 C 286.562 375.624,288.493 376.439,289.295 376.847 C 289.677 377.041,290.341 377.200,290.771 377.200 C 291.201 377.200,291.651 377.359,291.771 377.554 C 291.892 377.749,292.487 378.007,293.095 378.129 C 293.703 378.251,295.010 378.553,296.000 378.800 C 302.869 380.516,316.186 381.574,317.270 380.490 C 317.519 380.241,316.402 379.428,314.128 378.204 C 299.582 370.377,287.576 357.182,281.002 341.800 C 280.626 340.920,280.163 339.840,279.972 339.400 C 278.801 336.692,277.178 330.678,276.410 326.200 C 275.919 323.340,275.443 320.595,275.351 320.100 L 275.185 319.200 259.957 319.200 L 244.729 319.200 244.934 321.500 " stroke="none" fill="#6c7c83" fill-rule="evenodd"></path><path id="path5" d="M256.000 28.287 C 256.713 28.553,271.586 43.261,271.594 43.708 C 271.602 44.138,266.227 49.600,265.796 49.600 C 265.602 49.600,264.905 49.105,264.247 48.500 L 263.051 47.400 264.026 48.678 C 264.562 49.381,265.266 49.966,265.591 49.978 C 266.246 50.002,272.000 44.462,272.000 43.806 C 272.000 43.131,256.646 27.997,255.996 28.032 C 255.472 28.059,255.472 28.090,256.000 28.287 M250.900 33.010 C 249.723 34.267,249.754 34.474,251.347 36.067 C 253.633 38.353,254.316 38.679,252.220 36.484 L 250.240 34.410 251.395 33.205 C 252.030 32.542,252.381 32.011,252.175 32.024 C 251.969 32.038,251.395 32.481,250.900 33.010 M239.600 44.200 C 239.256 44.615,239.241 44.800,239.551 44.800 C 239.798 44.800,240.000 44.620,240.000 44.400 C 240.000 43.648,240.878 43.999,242.000 45.200 C 242.617 45.860,243.264 46.400,243.439 46.400 C 243.614 46.400,243.146 45.770,242.400 45.000 C 240.907 43.459,240.347 43.299,239.600 44.200 M235.700 48.216 C 234.985 48.965,234.400 49.768,234.400 50.002 C 234.400 50.479,237.010 53.200,237.468 53.200 C 237.630 53.200,237.059 52.480,236.200 51.600 L 234.638 50.000 236.200 48.400 C 237.059 47.520,237.591 46.812,237.381 46.827 C 237.172 46.843,236.415 47.467,235.700 48.216 M244.564 47.800 C 245.114 48.350,245.693 48.800,245.852 48.800 C 246.010 48.800,245.717 48.350,245.200 47.800 C 244.683 47.250,244.104 46.800,243.912 46.800 C 243.720 46.800,244.014 47.250,244.564 47.800 M247.684 50.921 C 249.305 52.550,250.249 53.037,248.800 51.497 C 248.030 50.678,247.258 50.007,247.084 50.004 C 246.910 50.002,247.180 50.414,247.684 50.921 M255.200 58.351 C 255.200 58.598,255.380 58.800,255.600 58.800 C 256.493 58.800,255.864 59.753,253.219 62.408 C 250.251 65.388,249.977 65.537,249.192 64.590 C 248.914 64.255,248.600 64.066,248.495 64.171 C 248.205 64.461,249.469 65.600,250.081 65.600 C 250.723 65.600,256.400 59.976,256.400 59.340 C 256.400 59.097,256.130 58.674,255.800 58.400 C 255.385 58.056,255.200 58.041,255.200 58.351 M218.804 65.500 C 218.809 66.199,221.186 68.800,221.821 68.800 C 222.005 68.800,221.471 68.172,220.633 67.405 C 219.676 66.528,219.197 65.785,219.343 65.405 C 219.470 65.072,219.401 64.800,219.187 64.800 C 218.974 64.800,218.802 65.115,218.804 65.500 M233.789 68.389 C 235.311 69.922,236.628 71.106,236.715 71.018 C 236.916 70.817,231.719 65.600,231.318 65.600 C 231.155 65.600,232.267 66.855,233.789 68.389 M228.187 75.587 C 230.372 77.780,232.230 79.504,232.316 79.418 C 232.515 79.218,224.911 71.600,224.513 71.600 C 224.349 71.600,226.002 73.394,228.187 75.587 M240.432 74.722 C 240.414 75.009,239.365 76.272,238.100 77.528 C 236.835 78.784,235.542 80.169,235.227 80.606 C 234.912 81.043,236.059 80.026,237.776 78.348 C 239.658 76.508,240.812 75.078,240.681 74.748 C 240.512 74.324,240.456 74.318,240.432 74.722 M217.792 83.512 C 219.988 85.760,221.871 87.600,221.976 87.600 C 222.275 87.600,216.852 82.054,214.947 80.412 C 214.316 79.868,215.597 81.263,217.792 83.512 M232.800 79.955 C 232.800 80.395,233.959 81.374,234.198 81.136 C 234.296 81.038,234.021 80.654,233.588 80.283 C 233.155 79.911,232.800 79.764,232.800 79.955 M203.200 81.104 C 203.200 81.491,206.659 85.226,210.886 89.404 C 215.114 93.582,218.129 96.479,217.586 95.843 C 217.044 95.207,213.668 91.787,210.084 88.243 C 205.495 83.706,203.620 81.593,203.746 81.100 C 203.845 80.715,203.762 80.400,203.563 80.400 C 203.363 80.400,203.200 80.717,203.200 81.104 M222.400 87.864 C 222.400 88.082,222.895 88.697,223.500 89.230 L 224.600 90.200 223.600 89.000 C 223.050 88.340,222.555 87.725,222.500 87.633 C 222.445 87.542,222.400 87.645,222.400 87.864 M222.064 93.493 C 220.449 95.125,219.198 96.532,219.285 96.619 C 219.372 96.706,220.774 95.437,222.400 93.800 C 224.026 92.163,225.276 90.756,225.178 90.675 C 225.080 90.593,223.679 91.861,222.064 93.493 M112.400 146.600 C 111.428 147.590,110.723 148.400,110.833 148.400 C 110.943 148.400,111.828 147.590,112.800 146.600 C 113.772 145.610,114.477 144.800,114.367 144.800 C 114.257 144.800,113.372 145.610,112.400 146.600 M193.600 192.520 L 193.800 211.000 193.904 192.824 C 193.961 182.827,193.871 174.511,193.704 174.344 C 193.537 174.177,193.490 182.356,193.600 192.520 M56.184 192.600 C 56.184 202.500,56.236 206.493,56.300 201.473 C 56.363 196.453,56.363 188.353,56.300 183.473 C 56.236 178.593,56.184 182.700,56.184 192.600 M164.975 250.900 L 163.800 252.200 165.100 251.025 C 165.815 250.379,166.400 249.794,166.400 249.725 C 166.400 249.416,166.070 249.688,164.975 250.900 M84.400 250.525 C 84.400 250.594,84.985 251.179,85.700 251.825 L 87.000 253.000 85.825 251.700 C 84.730 250.488,84.400 250.216,84.400 250.525 M88.000 254.125 C 88.000 254.194,88.585 254.779,89.300 255.425 L 90.600 256.600 89.425 255.300 C 88.330 254.088,88.000 253.816,88.000 254.125 M160.575 255.300 L 159.400 256.600 160.700 255.425 C 161.912 254.330,162.184 254.000,161.875 254.000 C 161.806 254.000,161.221 254.585,160.575 255.300 M109.670 312.700 C 117.959 312.760,131.639 312.760,140.070 312.700 C 148.502 312.640,141.720 312.590,125.000 312.590 C 108.280 312.590,101.382 312.639,109.670 312.700 M244.310 319.099 C 244.234 319.264,244.286 320.210,244.426 321.200 L 244.680 323.000 244.740 321.100 L 244.800 319.200 259.992 319.200 L 275.185 319.200 275.351 320.100 C 275.443 320.595,275.919 323.340,276.410 326.200 C 277.178 330.678,278.801 336.692,279.972 339.400 C 280.163 339.840,280.626 340.920,281.002 341.800 C 287.576 357.182,299.582 370.377,314.128 378.204 C 317.888 380.228,318.053 380.647,315.200 380.924 C 314.210 381.020,314.570 381.042,316.000 380.974 C 319.640 380.798,325.645 379.814,329.400 378.776 C 330.280 378.533,331.497 378.238,332.105 378.121 C 332.713 378.004,333.308 377.749,333.429 377.554 C 333.549 377.359,333.999 377.200,334.429 377.200 C 334.859 377.200,335.523 377.041,335.905 376.847 C 336.287 376.652,337.050 376.310,337.600 376.087 C 355.378 368.860,368.860 355.378,376.087 337.600 C 376.310 337.050,376.652 336.287,376.847 335.905 C 377.041 335.523,377.200 334.859,377.200 334.429 C 377.200 333.999,377.380 333.536,377.600 333.400 C 377.820 333.264,378.000 332.801,378.000 332.371 C 378.000 331.941,378.164 331.277,378.365 330.895 C 378.565 330.513,378.940 329.120,379.197 327.800 C 379.454 326.480,379.843 324.672,380.062 323.782 C 380.280 322.892,380.400 321.452,380.329 320.582 L 380.200 319.000 312.324 318.899 C 274.993 318.843,244.386 318.933,244.310 319.099 M244.853 324.200 C 244.876 324.640,245.032 325.540,245.200 326.200 L 245.505 327.400 245.547 326.000 C 245.569 325.230,245.413 324.330,245.200 324.000 C 244.881 323.506,244.820 323.542,244.853 324.200 M82.244 326.620 C 81.389 327.390,80.174 328.325,79.544 328.697 C 77.805 329.724,78.009 330.617,81.626 337.800 C 86.478 347.436,95.935 357.032,105.400 361.920 C 108.741 363.646,113.132 365.600,113.669 365.600 C 113.916 365.600,115.126 365.943,116.359 366.363 C 118.605 367.127,120.709 367.583,125.646 368.375 C 127.356 368.650,139.847 368.800,160.946 368.800 L 193.600 368.800 193.600 353.245 L 193.600 337.691 190.900 337.212 C 182.529 335.729,174.289 331.967,167.944 326.731 L 166.089 325.200 124.944 325.209 L 83.800 325.219 82.244 326.620 M245.646 328.000 C 245.665 328.330,245.824 329.050,246.000 329.600 L 246.320 330.600 246.354 329.600 C 246.373 329.050,246.213 328.330,246.000 328.000 C 245.655 327.467,245.616 327.467,245.646 328.000 M246.641 331.900 C 247.102 333.877,250.101 341.323,251.511 343.991 C 252.269 345.426,253.064 346.930,253.277 347.334 C 253.490 347.738,253.755 347.979,253.864 347.869 C 253.974 347.759,253.802 347.249,253.481 346.735 C 251.405 343.406,248.908 337.752,247.373 332.900 C 246.669 330.676,246.210 330.049,246.641 331.900 M257.191 353.188 C 258.428 354.924,259.025 355.134,257.932 353.448 C 257.419 352.657,256.853 352.008,256.673 352.005 C 256.493 352.002,256.726 352.535,257.191 353.188 M260.390 357.188 C 264.280 361.834,277.600 372.902,277.600 371.488 C 277.600 371.375,276.657 370.680,275.504 369.942 C 270.583 366.791,263.078 360.190,260.582 356.816 C 259.932 355.938,259.248 355.215,259.063 355.209 C 258.877 355.204,259.475 356.095,260.390 357.188 M278.400 372.022 C 278.730 372.247,279.720 372.804,280.600 373.259 C 282.569 374.279,281.976 373.594,279.888 372.438 C 278.328 371.574,277.337 371.297,278.400 372.022 M293.200 378.400 C 293.530 378.613,294.070 378.788,294.400 378.788 C 294.933 378.788,294.933 378.745,294.400 378.400 C 294.070 378.187,293.530 378.012,293.200 378.012 C 292.667 378.012,292.667 378.055,293.200 378.400 M296.200 379.200 C 297.396 379.714,298.395 379.714,297.600 379.200 C 297.270 378.987,296.640 378.822,296.200 378.834 L 295.400 378.856 296.200 379.200 M300.000 380.000 C 300.550 380.176,301.360 380.326,301.800 380.332 L 302.600 380.344 301.800 380.000 C 301.360 379.811,300.550 379.662,300.000 379.668 L 299.000 379.680 300.000 380.000 M305.400 380.823 C 306.280 381.005,308.080 381.138,309.400 381.118 L 311.800 381.082 309.400 380.785 C 308.080 380.621,306.280 380.488,305.400 380.489 L 303.800 380.492 305.400 380.823 " stroke="none" fill="#4b5363" fill-rule="evenodd"></path><path id="path6" d="M56.400 278.782 L 56.400 324.088 57.700 323.872 C 59.881 323.511,61.356 323.158,62.300 322.770 C 62.795 322.566,63.605 322.242,64.100 322.049 C 73.698 318.305,80.957 311.037,84.521 301.600 C 86.777 295.628,87.205 292.126,87.175 279.893 L 87.151 269.800 84.375 267.800 C 80.884 265.284,75.544 260.017,72.800 256.382 C 72.250 255.653,71.429 254.594,70.975 254.029 C 70.521 253.463,68.631 250.784,66.775 248.076 C 64.919 245.368,62.995 242.668,62.500 242.076 C 62.006 241.484,61.601 240.775,61.600 240.500 C 61.600 240.225,61.462 240.000,61.294 240.000 C 61.126 240.000,60.544 239.280,60.000 238.400 C 59.456 237.520,58.874 236.800,58.706 236.800 C 58.538 236.800,58.400 236.575,58.400 236.300 C 58.399 236.025,57.949 235.277,57.400 234.638 L 56.400 233.476 56.400 278.782 M192.800 234.600 C 192.506 235.150,192.115 235.600,191.932 235.600 C 191.750 235.600,191.600 235.855,191.600 236.167 C 191.600 236.478,191.458 236.793,191.284 236.867 C 191.109 236.940,189.354 239.336,187.384 242.190 C 185.413 245.045,183.530 247.768,183.200 248.243 C 182.870 248.717,181.624 250.521,180.430 252.253 C 179.237 253.984,177.975 255.670,177.626 256.000 C 177.277 256.330,176.501 257.260,175.901 258.066 C 174.142 260.432,168.838 265.450,165.709 267.708 L 162.811 269.800 162.979 281.200 C 163.150 292.760,163.387 296.294,164.039 296.980 C 164.237 297.189,164.400 297.853,164.400 298.456 C 164.400 299.059,164.580 299.664,164.800 299.800 C 165.020 299.936,165.200 300.306,165.200 300.622 C 165.200 300.938,165.807 302.502,166.548 304.098 C 170.300 312.172,177.220 318.589,185.900 322.042 C 186.395 322.239,187.205 322.566,187.700 322.770 C 188.644 323.158,190.119 323.511,192.300 323.872 L 193.600 324.088 193.600 278.844 C 193.600 253.960,193.540 233.600,193.468 233.600 C 193.395 233.600,193.094 234.050,192.800 234.600 " stroke="none" fill="#83341c" fill-rule="evenodd"></path><path id="path7" d="M252.691 30.709 C 248.877 34.545,248.869 34.359,253.000 38.354 C 254.870 40.162,256.400 41.498,256.400 41.321 C 256.400 41.144,254.960 39.593,253.200 37.873 C 251.440 36.153,250.000 34.576,250.000 34.367 C 250.000 33.914,255.850 28.000,256.297 28.000 C 256.764 28.000,272.000 43.344,272.000 43.814 C 272.000 44.408,266.273 50.000,265.665 50.000 C 265.381 50.000,264.694 49.460,264.139 48.800 C 263.583 48.140,262.970 47.600,262.777 47.600 C 262.583 47.600,263.003 48.230,263.710 49.000 C 264.416 49.770,265.270 50.400,265.607 50.400 C 266.271 50.400,272.400 44.434,272.400 43.787 C 272.400 43.265,256.710 27.600,256.187 27.600 C 255.964 27.600,254.390 28.999,252.691 30.709 M256.800 41.767 C 256.800 42.188,258.005 43.328,258.221 43.112 C 258.322 43.011,258.044 42.602,257.602 42.202 C 257.161 41.803,256.800 41.607,256.800 41.767 M236.890 46.509 C 233.337 50.087,233.335 49.959,237.000 53.600 C 238.650 55.239,240.000 56.441,240.000 56.271 C 240.000 56.101,238.740 54.719,237.200 53.200 C 233.829 49.875,233.848 50.104,236.700 47.272 C 239.030 44.958,240.228 43.600,239.939 43.600 C 239.852 43.600,238.479 44.909,236.890 46.509 M259.364 44.600 C 259.914 45.150,260.493 45.600,260.652 45.600 C 260.810 45.600,260.517 45.150,260.000 44.600 C 259.483 44.050,258.904 43.600,258.712 43.600 C 258.520 43.600,258.814 44.050,259.364 44.600 M243.600 46.152 C 243.600 46.377,254.938 57.706,255.832 58.374 C 256.254 58.689,253.722 56.034,250.205 52.474 C 244.056 46.250,243.600 45.813,243.600 46.152 M254.499 79.301 C 239.924 93.877,228.000 106.046,228.000 106.345 C 228.000 107.151,242.944 122.000,243.756 122.000 C 244.140 122.000,245.116 121.364,245.927 120.587 C 255.004 111.884,269.221 110.317,280.407 116.787 C 282.952 118.259,286.184 121.283,302.000 136.984 C 312.230 147.141,321.103 155.664,321.719 155.925 C 326.194 157.824,331.218 154.266,331.186 149.220 C 331.166 146.075,331.925 146.957,312.147 127.096 C 302.236 117.143,293.583 108.190,292.918 107.200 C 285.044 95.472,286.119 81.100,295.633 70.923 C 296.495 70.001,297.200 69.044,297.200 68.795 C 297.200 68.256,281.900 52.800,281.367 52.800 C 281.164 52.800,269.073 64.726,254.499 79.301 M289.245 61.215 L 296.798 68.829 295.499 70.162 C 293.923 71.778,292.800 73.135,292.800 73.421 C 292.800 73.538,292.440 74.020,292.000 74.492 C 291.560 74.964,291.200 75.587,291.200 75.875 C 291.200 76.164,291.064 76.400,290.898 76.400 C 290.628 76.400,290.252 77.162,289.220 79.800 C 289.048 80.240,288.727 81.050,288.507 81.600 C 286.762 85.961,286.729 95.911,288.447 99.295 C 288.641 99.677,288.800 100.243,288.800 100.554 C 288.800 101.276,290.762 105.010,292.441 107.487 C 293.155 108.539,301.618 117.278,311.247 126.908 C 320.877 136.537,329.111 144.913,329.544 145.521 C 332.111 149.127,330.234 154.254,325.877 155.536 C 322.180 156.624,322.834 157.164,299.036 133.363 C 282.372 116.697,280.663 115.306,274.800 113.631 C 273.810 113.348,272.587 112.955,272.081 112.758 C 271.576 112.561,268.659 112.400,265.600 112.400 C 262.541 112.400,259.624 112.561,259.119 112.758 C 258.613 112.955,257.390 113.343,256.400 113.619 C 252.944 114.584,247.775 117.739,245.140 120.492 C 244.556 121.101,243.958 121.600,243.810 121.600 C 243.531 121.600,228.400 106.545,228.400 106.266 C 228.400 105.889,280.895 53.600,281.273 53.600 C 281.504 53.600,285.092 57.027,289.245 61.215 M241.200 57.564 C 241.200 57.939,243.225 59.708,243.425 59.508 C 243.508 59.425,243.042 58.888,242.388 58.315 C 241.735 57.741,241.200 57.403,241.200 57.564 M221.297 62.112 C 219.701 63.701,218.396 65.268,218.397 65.596 C 218.401 66.388,233.618 81.600,234.406 81.600 C 234.976 81.600,241.200 75.680,241.200 75.137 C 241.200 75.002,239.819 76.311,238.131 78.046 C 236.442 79.781,234.777 81.200,234.431 81.200 C 233.703 81.199,218.800 66.342,218.800 65.617 C 218.800 65.352,220.171 63.800,221.846 62.168 C 223.521 60.536,224.736 59.206,224.546 59.212 C 224.356 59.219,222.894 60.524,221.297 62.112 M226.206 60.320 C 226.863 60.937,227.481 61.380,227.581 61.306 C 227.812 61.134,225.739 59.200,225.323 59.200 C 225.152 59.200,225.549 59.704,226.206 60.320 M253.628 62.493 C 250.188 66.088,250.044 66.127,248.000 64.000 C 247.154 63.120,246.321 62.400,246.148 62.400 C 245.975 62.400,246.628 63.210,247.600 64.200 C 248.572 65.190,249.648 66.000,249.993 66.000 C 250.600 66.000,257.137 59.744,256.779 59.505 C 256.680 59.440,255.262 60.784,253.628 62.493 M228.800 62.509 C 228.800 62.906,239.619 73.714,239.818 73.516 C 239.902 73.431,237.458 70.852,234.386 67.786 C 231.314 64.720,228.800 62.345,228.800 62.509 M210.596 75.996 C 211.226 76.654,211.819 77.114,211.913 77.020 C 212.122 76.812,210.156 74.800,209.743 74.800 C 209.582 74.800,209.966 75.338,210.596 75.996 M207.260 76.242 C 206.962 76.578,206.799 76.932,206.895 77.029 C 206.992 77.126,207.398 76.844,207.798 76.402 C 208.197 75.961,208.361 75.607,208.162 75.615 C 207.963 75.624,207.557 75.905,207.260 76.242 M204.475 78.924 C 203.554 79.862,202.800 80.892,202.800 81.211 C 202.800 81.991,218.025 97.200,218.806 97.200 C 219.144 97.200,220.766 95.805,222.410 94.100 L 225.400 91.000 222.391 93.900 C 220.735 95.495,219.114 96.800,218.787 96.800 C 218.053 96.800,203.200 81.996,203.200 81.265 C 203.200 80.975,203.942 80.024,204.850 79.152 C 205.757 78.280,206.421 77.488,206.325 77.392 C 206.229 77.295,205.396 77.985,204.475 78.924 M212.404 77.481 C 212.409 77.942,222.351 87.783,222.580 87.554 C 222.685 87.448,220.438 85.067,217.586 82.262 C 214.734 79.458,212.402 77.306,212.404 77.481 M223.796 89.196 C 224.426 89.854,225.019 90.314,225.113 90.220 C 225.322 90.012,223.356 88.000,222.943 88.000 C 222.782 88.000,223.166 88.538,223.796 89.196 M123.822 132.300 L 123.153 133.400 123.975 132.457 C 124.470 131.890,125.046 131.609,125.420 131.752 C 125.777 131.889,125.937 131.822,125.797 131.595 C 125.354 130.879,124.503 131.182,123.822 132.300 M121.544 135.500 C 120.393 136.889,119.906 137.600,120.104 137.600 C 120.214 137.600,120.786 136.970,121.373 136.200 C 122.463 134.771,122.595 134.232,121.544 135.500 M128.575 136.132 C 129.191 136.939,129.776 137.600,129.875 137.600 C 130.153 137.600,128.421 135.260,127.909 134.944 C 127.659 134.789,127.959 135.324,128.575 136.132 M130.409 138.284 C 130.419 138.657,134.000 142.994,134.000 142.634 C 134.000 142.499,133.190 141.394,132.200 140.179 C 131.210 138.963,130.404 138.111,130.409 138.284 M118.000 139.913 C 118.000 140.085,116.525 141.840,114.721 143.813 C 112.918 145.786,112.035 146.860,112.759 146.200 C 114.949 144.203,118.912 139.600,118.441 139.600 C 118.199 139.600,118.000 139.741,118.000 139.913 M135.200 144.110 C 135.200 144.171,136.595 145.566,138.300 147.210 L 141.400 150.200 138.410 147.100 C 135.633 144.221,135.200 143.817,135.200 144.110 M109.775 148.900 L 108.600 150.200 109.900 149.025 C 111.112 147.930,111.384 147.600,111.075 147.600 C 111.006 147.600,110.421 148.185,109.775 148.900 M142.800 151.318 C 142.800 151.420,143.647 152.197,144.681 153.045 C 145.716 153.893,146.434 154.378,146.276 154.123 C 145.940 153.579,142.800 151.045,142.800 151.318 M103.902 153.791 C 103.299 154.323,102.490 154.934,102.106 155.149 C 101.721 155.364,101.503 155.636,101.620 155.753 C 101.737 155.870,102.635 155.261,103.616 154.400 C 104.597 153.539,105.310 152.832,105.200 152.830 C 105.090 152.827,104.506 153.260,103.902 153.791 M146.800 154.525 C 146.800 154.624,147.461 155.209,148.268 155.825 C 149.076 156.441,149.611 156.741,149.456 156.491 C 149.140 155.979,146.800 154.247,146.800 154.525 M178.833 170.944 C 178.925 171.023,179.540 171.208,180.200 171.356 C 181.076 171.552,181.238 171.515,180.800 171.218 C 180.260 170.853,178.432 170.598,178.833 170.944 M66.400 172.018 C 65.962 172.315,66.124 172.352,67.000 172.156 C 68.471 171.827,68.790 171.598,67.767 171.606 C 67.345 171.609,66.730 171.795,66.400 172.018 M181.633 171.744 C 181.725 171.823,182.340 172.008,183.000 172.156 C 183.876 172.352,184.038 172.315,183.600 172.018 C 183.060 171.653,181.232 171.398,181.633 171.744 M62.800 172.806 C 62.378 173.082,62.615 173.123,63.600 172.942 C 65.325 172.625,65.651 172.398,64.367 172.406 C 63.835 172.409,63.130 172.589,62.800 172.806 M185.233 172.543 C 185.325 172.621,186.030 172.801,186.800 172.942 C 187.785 173.123,188.022 173.082,187.600 172.806 C 187.058 172.450,184.837 172.203,185.233 172.543 M58.000 173.595 C 57.591 173.855,57.910 173.899,59.000 173.732 C 60.977 173.429,61.314 173.198,59.767 173.206 C 59.125 173.209,58.330 173.384,58.000 173.595 M189.633 173.343 C 189.725 173.422,190.520 173.597,191.400 173.732 C 192.490 173.899,192.809 173.855,192.400 173.595 C 191.853 173.246,189.245 173.009,189.633 173.343 M190.115 216.100 C 188.291 218.484,187.480 219.711,187.895 219.459 C 188.415 219.144,190.962 215.600,190.668 215.600 C 190.575 215.600,190.326 215.825,190.115 216.100 M64.416 222.963 C 65.168 224.009,65.956 224.973,66.167 225.103 C 66.378 225.233,65.935 224.484,65.184 223.437 C 64.432 222.391,63.644 221.427,63.433 221.297 C 63.222 221.167,63.665 221.916,64.416 222.963 M181.436 228.417 C 180.217 230.187,179.398 231.525,179.616 231.390 C 180.085 231.100,184.110 225.200,183.838 225.200 C 183.736 225.200,182.655 226.648,181.436 228.417 M72.437 234.400 C 73.596 236.196,73.600 236.201,73.598 235.767 C 73.597 235.565,73.132 234.860,72.565 234.200 L 71.534 233.000 72.437 234.400 M175.045 237.388 C 174.680 237.944,174.522 238.400,174.695 238.400 C 175.084 238.400,176.119 236.786,175.882 236.549 C 175.786 236.453,175.410 236.831,175.045 237.388 M78.025 242.200 C 78.025 242.420,78.290 242.949,78.613 243.376 C 78.936 243.804,79.200 243.973,79.200 243.753 C 79.200 243.533,78.936 243.004,78.613 242.576 C 78.290 242.149,78.025 241.980,78.025 242.200 M170.344 244.300 C 169.193 245.689,168.706 246.400,168.904 246.400 C 169.014 246.400,169.586 245.770,170.173 245.000 C 171.263 243.571,171.395 243.032,170.344 244.300 M167.500 248.179 C 166.895 248.937,166.400 249.682,166.400 249.834 C 166.400 249.986,166.940 249.431,167.600 248.600 C 168.711 247.202,168.957 246.800,168.700 246.800 C 168.645 246.800,168.105 247.420,167.500 248.179 M84.000 250.247 C 84.000 250.456,85.035 251.611,86.300 252.814 L 88.600 255.000 86.400 252.609 C 85.190 251.294,84.155 250.139,84.100 250.043 C 84.045 249.946,84.000 250.038,84.000 250.247 M163.586 252.700 L 161.400 255.000 163.700 252.814 C 164.965 251.611,166.000 250.576,166.000 250.514 C 166.000 250.217,165.618 250.563,163.586 252.700 M343.393 254.700 C 337.890 261.653,327.264 270.120,319.500 273.738 C 317.983 274.445,317.409 274.999,318.700 274.510 C 325.687 271.863,338.808 261.471,344.013 254.462 L 345.006 253.125 347.350 255.582 C 348.639 256.933,349.755 257.979,349.828 257.905 C 349.991 257.743,345.427 252.800,345.115 252.800 C 344.995 252.800,344.220 253.655,343.393 254.700 M351.216 260.163 C 352.995 262.640,353.706 263.079,352.057 260.682 C 351.360 259.669,350.578 258.710,350.320 258.550 C 350.061 258.391,350.465 259.116,351.216 260.163 M354.067 264.244 C 354.161 264.440,355.161 266.490,356.288 268.800 C 358.336 272.994,360.107 277.800,360.860 281.200 C 361.857 285.703,362.063 287.989,362.262 296.698 L 362.475 305.996 322.637 306.101 L 282.800 306.206 322.700 306.203 L 362.600 306.200 362.723 298.800 C 362.877 289.519,362.308 284.442,360.346 277.600 C 360.125 276.830,359.845 275.792,359.724 275.294 C 359.603 274.796,359.346 274.290,359.152 274.170 C 358.959 274.051,358.800 273.671,358.800 273.328 C 358.800 272.542,354.855 264.481,354.304 264.140 C 354.080 264.002,353.973 264.049,354.067 264.244 M104.600 265.171 C 105.480 265.594,106.470 265.947,106.800 265.955 C 107.486 265.971,105.439 265.027,103.974 264.651 C 103.438 264.514,103.720 264.748,104.600 265.171 M145.300 264.812 C 143.961 265.351,144.211 265.624,145.600 265.140 C 146.260 264.910,146.800 264.649,146.800 264.561 C 146.800 264.324,146.313 264.405,145.300 264.812 M138.400 267.200 C 137.576 267.464,137.541 267.526,138.200 267.554 C 138.640 267.573,139.270 267.413,139.600 267.200 C 140.301 266.747,139.814 266.747,138.400 267.200 M112.000 267.600 C 113.368 268.038,114.419 268.038,113.400 267.600 C 112.960 267.411,112.240 267.262,111.800 267.268 C 111.157 267.277,111.196 267.343,112.000 267.600 M114.900 268.276 C 115.285 268.376,115.915 268.376,116.300 268.276 C 116.685 268.175,116.370 268.093,115.600 268.093 C 114.830 268.093,114.515 268.175,114.900 268.276 M132.400 268.420 C 131.726 268.649,132.051 268.684,133.400 268.528 C 134.500 268.401,135.475 268.231,135.567 268.149 C 135.882 267.868,133.399 268.080,132.400 268.420 M122.915 269.096 C 124.188 269.176,126.168 269.175,127.315 269.094 C 128.462 269.014,127.420 268.949,125.000 268.950 C 122.580 268.951,121.642 269.016,122.915 269.096 M316.000 275.177 C 315.285 275.571,313.695 276.232,312.643 276.573 C 312.226 276.708,311.979 276.913,312.094 277.027 C 312.305 277.238,317.600 275.248,317.600 274.957 C 317.600 274.694,316.637 274.827,316.000 275.177 M99.690 283.844 C 99.641 287.828,99.515 291.968,99.411 293.044 L 99.222 295.000 99.620 293.101 C 99.839 292.057,99.965 287.917,99.899 283.901 L 99.781 276.600 99.690 283.844 M150.167 284.400 C 150.167 288.690,150.226 290.445,150.298 288.300 C 150.370 286.155,150.370 282.645,150.298 280.500 C 150.226 278.355,150.167 280.110,150.167 284.400 M309.800 277.600 C 309.508 278.073,309.899 278.073,311.000 277.600 C 311.771 277.269,311.769 277.255,310.924 277.228 C 310.442 277.213,309.936 277.380,309.800 277.600 M307.200 278.400 C 306.405 278.914,307.404 278.914,308.600 278.400 L 309.400 278.056 308.600 278.034 C 308.160 278.022,307.530 278.187,307.200 278.400 M109.400 279.200 C 109.840 279.389,110.470 279.544,110.800 279.544 C 111.178 279.544,111.104 279.417,110.600 279.200 C 110.160 279.011,109.530 278.856,109.200 278.856 C 108.822 278.856,108.896 278.983,109.400 279.200 M139.400 279.200 C 138.896 279.417,138.822 279.544,139.200 279.544 C 139.530 279.544,140.160 279.389,140.600 279.200 C 141.104 278.983,141.178 278.856,140.800 278.856 C 140.470 278.856,139.840 279.011,139.400 279.200 M304.200 279.200 C 303.181 279.638,304.232 279.638,305.600 279.200 C 306.404 278.943,306.443 278.877,305.800 278.868 C 305.360 278.862,304.640 279.011,304.200 279.200 M113.200 280.000 C 114.568 280.438,115.619 280.438,114.600 280.000 C 114.160 279.811,113.440 279.662,113.000 279.668 C 112.357 279.677,112.396 279.743,113.200 280.000 M135.400 280.000 C 134.381 280.438,135.432 280.438,136.800 280.000 C 137.604 279.743,137.643 279.677,137.000 279.668 C 136.560 279.662,135.840 279.811,135.400 280.000 M300.000 280.000 L 299.000 280.320 300.000 280.320 C 300.550 280.320,301.450 280.176,302.000 280.000 L 303.000 279.680 302.000 279.680 C 301.450 279.680,300.550 279.824,300.000 280.000 M119.000 280.801 C 120.594 281.153,124.284 281.336,123.967 281.049 C 123.875 280.965,122.360 280.796,120.600 280.673 C 118.250 280.508,117.825 280.542,119.000 280.801 M127.800 280.800 L 125.800 281.074 127.600 281.114 C 128.590 281.136,130.120 281.005,131.000 280.823 L 132.600 280.492 131.200 280.509 C 130.430 280.518,128.900 280.649,127.800 280.800 M293.000 280.800 L 291.400 281.086 293.200 281.114 C 294.190 281.129,295.810 280.997,296.800 280.820 L 298.600 280.500 296.600 280.507 C 295.500 280.511,293.880 280.642,293.000 280.800 M283.600 281.621 C 283.170 281.914,283.454 281.954,284.600 281.762 C 286.584 281.430,286.904 281.198,285.367 281.206 C 284.725 281.209,283.930 281.396,283.600 281.621 M280.453 282.653 C 279.713 282.976,279.192 283.325,279.295 283.428 C 279.399 283.532,280.275 283.266,281.242 282.837 C 282.209 282.408,282.730 282.058,282.400 282.061 C 282.070 282.063,281.194 282.330,280.453 282.653 M276.960 284.730 C 273.174 287.472,269.584 292.846,269.028 296.600 C 268.856 297.762,268.894 297.981,269.168 297.400 C 269.374 296.960,269.556 296.266,269.572 295.857 C 269.672 293.205,274.040 287.167,277.800 284.482 C 278.460 284.011,278.892 283.620,278.760 283.613 C 278.628 283.606,277.818 284.109,276.960 284.730 M150.493 293.600 C 150.493 294.370,150.575 294.685,150.676 294.300 C 150.776 293.915,150.776 293.285,150.676 292.900 C 150.575 292.515,150.493 292.830,150.493 293.600 M150.828 296.433 C 150.844 297.185,151.012 298.160,151.203 298.600 C 151.426 299.115,151.467 298.687,151.318 297.400 C 151.044 295.022,150.789 294.519,150.828 296.433 M98.650 297.650 C 98.317 299.317,98.640 299.640,99.000 298.000 C 99.152 297.309,99.193 296.659,99.091 296.558 C 98.989 296.456,98.791 296.947,98.650 297.650 M98.046 300.467 C 98.021 300.834,97.896 301.464,97.770 301.867 C 97.552 302.562,97.563 302.563,97.997 301.887 C 98.248 301.496,98.373 300.866,98.273 300.487 C 98.111 299.868,98.088 299.866,98.046 300.467 M268.460 302.876 C 268.427 304.568,268.535 306.037,268.700 306.139 C 268.865 306.242,268.949 305.307,268.887 304.063 C 268.692 300.156,268.522 299.685,268.460 302.876 M252.326 318.700 C 256.576 318.764,263.416 318.764,267.526 318.699 C 271.637 318.634,268.160 318.581,259.800 318.581 C 251.440 318.582,248.077 318.635,252.326 318.700 M243.640 319.500 C 243.742 321.285,244.343 322.206,244.293 320.500 C 244.266 319.565,244.099 318.800,243.922 318.800 C 243.745 318.800,243.618 319.115,243.640 319.500 M380.334 320.427 C 380.419 321.321,380.304 322.806,380.077 323.727 C 379.850 324.647,379.454 326.480,379.197 327.800 C 378.940 329.120,378.565 330.513,378.365 330.895 C 378.164 331.277,378.000 331.941,378.000 332.371 C 378.000 332.801,377.820 333.264,377.600 333.400 C 377.380 333.536,377.200 333.999,377.200 334.429 C 377.200 334.859,377.041 335.523,376.847 335.905 C 376.652 336.287,376.310 337.050,376.087 337.600 C 368.860 355.378,355.378 368.860,337.600 376.087 C 337.050 376.310,336.287 376.652,335.905 376.847 C 335.523 377.041,334.936 377.200,334.600 377.200 C 334.264 377.200,333.677 377.358,333.295 377.551 C 332.368 378.019,330.282 378.622,327.600 379.197 C 326.390 379.457,324.749 379.834,323.954 380.035 C 323.158 380.236,321.808 380.403,320.954 380.406 C 320.099 380.409,319.130 380.604,318.800 380.837 C 318.362 381.148,318.793 381.195,320.400 381.011 C 326.612 380.302,334.850 378.050,340.204 375.598 C 341.643 374.939,342.909 374.400,343.017 374.400 C 343.126 374.400,344.345 373.713,345.727 372.874 C 347.109 372.034,348.503 371.246,348.826 371.122 C 353.716 369.246,367.294 355.615,371.161 348.700 C 371.998 347.203,373.140 345.184,373.956 343.755 C 377.505 337.544,382.581 318.800,380.714 318.800 C 380.329 318.800,380.223 319.258,380.334 320.427 M244.406 324.033 C 244.409 324.785,244.592 325.670,244.812 326.000 C 245.091 326.419,245.133 326.058,244.950 324.800 C 244.625 322.559,244.398 322.240,244.406 324.033 M82.314 325.920 C 75.232 331.959,67.185 335.646,58.100 337.014 L 56.400 337.270 56.400 359.235 L 56.400 381.200 124.936 381.200 L 193.472 381.200 193.735 371.900 C 194.066 360.210,194.080 338.273,193.757 337.433 C 193.615 337.062,193.046 336.800,192.382 336.800 C 186.383 336.800,173.194 330.966,167.800 325.925 L 166.600 324.804 125.114 324.802 L 83.628 324.800 82.314 325.920 M167.944 326.731 C 174.289 331.967,182.529 335.729,190.900 337.212 L 193.600 337.691 193.600 353.245 L 193.600 368.800 160.946 368.800 C 139.847 368.800,127.356 368.650,125.646 368.375 C 120.709 367.583,118.605 367.127,116.359 366.363 C 115.126 365.943,113.916 365.600,113.669 365.600 C 113.132 365.600,108.741 363.646,105.400 361.920 C 95.935 357.032,86.478 347.436,81.626 337.800 C 78.009 330.617,77.805 329.724,79.544 328.697 C 80.174 328.325,81.389 327.390,82.244 326.620 L 83.800 325.219 124.944 325.209 L 166.089 325.200 167.944 326.731 M245.200 328.110 C 245.200 328.683,245.387 329.268,245.616 329.410 C 245.889 329.579,245.938 329.277,245.760 328.534 C 245.392 327.001,245.200 326.856,245.200 328.110 M246.034 331.000 C 246.022 331.440,246.187 332.070,246.400 332.400 C 246.914 333.195,246.914 332.196,246.400 331.000 L 246.056 330.200 246.034 331.000 M247.628 335.851 C 247.588 336.494,248.810 339.324,249.032 339.102 C 249.134 339.000,248.866 338.125,248.437 337.158 C 248.008 336.191,247.644 335.603,247.628 335.851 M250.000 341.820 C 250.000 342.272,251.266 344.467,251.431 344.302 C 251.620 344.114,250.447 341.600,250.171 341.600 C 250.077 341.600,250.000 341.699,250.000 341.820 M252.834 347.000 C 253.919 349.038,257.301 354.158,257.986 354.800 C 258.104 354.910,259.189 356.170,260.397 357.600 C 264.359 362.288,274.788 371.252,276.195 371.179 C 276.418 371.167,276.155 370.852,275.610 370.479 C 266.561 364.269,260.252 357.940,254.957 349.757 C 251.594 344.561,251.407 344.317,252.834 347.000 M277.600 371.967 C 278.563 372.752,279.200 373.008,279.200 372.610 C 279.200 372.506,278.615 372.135,277.900 371.786 L 276.600 371.152 277.600 371.967 M281.200 373.919 C 281.200 374.232,283.649 375.284,283.869 375.065 C 283.935 374.998,283.362 374.644,282.595 374.278 C 281.828 373.912,281.200 373.751,281.200 373.919 M284.400 375.387 C 284.400 375.593,286.411 376.501,288.400 377.193 C 289.170 377.461,290.160 377.818,290.600 377.985 C 293.783 379.195,300.468 380.699,303.800 380.954 C 306.841 381.186,306.753 381.163,300.000 379.966 C 295.640 379.193,291.082 377.870,286.500 376.047 C 285.345 375.588,284.400 375.291,284.400 375.387 M310.117 381.497 C 311.611 381.574,313.951 381.574,315.317 381.496 C 316.682 381.418,315.460 381.355,312.600 381.355 C 309.740 381.356,308.622 381.420,310.117 381.497 " stroke="none" fill="#2b333c" fill-rule="evenodd"></path><path id="path8" d="M124.801 132.257 C 125.131 132.347,126.031 133.405,126.801 134.608 C 127.570 135.811,128.341 136.797,128.514 136.798 C 128.686 136.799,128.066 135.720,127.135 134.400 C 126.204 133.080,125.163 132.021,124.821 132.046 C 124.288 132.086,124.285 132.116,124.801 132.257 M119.511 138.900 C 117.874 140.936,115.019 144.177,113.167 146.103 C 111.315 148.029,109.905 149.603,110.033 149.602 C 110.461 149.598,116.595 143.041,119.391 139.600 C 122.768 135.442,122.950 135.200,122.693 135.200 C 122.580 135.200,121.148 136.865,119.511 138.900 M129.236 137.900 C 131.960 141.471,138.668 148.577,141.991 151.413 C 142.756 152.066,141.196 150.404,138.525 147.721 C 135.854 145.037,132.643 141.572,131.389 140.021 C 130.135 138.469,129.018 137.200,128.906 137.200 C 128.794 137.200,128.942 137.515,129.236 137.900 M107.775 151.294 C 106.832 152.332,106.795 152.431,107.588 151.794 C 109.206 150.493,109.678 150.000,109.303 150.000 C 109.109 150.000,108.421 150.582,107.775 151.294 M104.143 154.145 C 103.011 155.055,101.481 156.306,100.743 156.924 L 99.400 158.049 100.800 157.150 C 101.570 156.656,103.100 155.529,104.200 154.645 C 105.300 153.762,106.275 152.985,106.367 152.919 C 106.458 152.854,106.458 152.730,106.367 152.645 C 106.275 152.560,105.274 153.235,104.143 154.145 M143.600 152.629 C 143.600 152.911,144.017 153.279,146.100 154.833 C 147.863 156.149,147.368 155.434,145.400 153.821 C 144.410 153.010,143.600 152.474,143.600 152.629 M147.605 155.873 C 147.608 156.053,148.257 156.619,149.048 157.132 C 149.840 157.645,150.372 157.878,150.231 157.651 C 149.841 157.018,147.599 155.501,147.605 155.873 M150.800 158.124 C 150.800 158.217,151.565 158.798,152.500 159.415 C 153.435 160.032,153.989 160.280,153.731 159.968 C 153.234 159.367,150.800 157.836,150.800 158.124 M92.913 161.885 C 91.545 162.696,90.488 163.421,90.563 163.496 C 90.727 163.661,95.600 160.840,95.600 160.581 C 95.600 160.298,95.546 160.324,92.913 161.885 M155.161 161.075 C 156.454 162.052,160.874 164.460,161.050 164.284 C 161.127 164.206,160.501 163.775,159.659 163.326 C 158.816 162.876,157.243 162.022,156.163 161.429 C 155.084 160.835,154.632 160.676,155.161 161.075 M86.647 165.215 C 83.364 166.837,82.259 167.538,84.075 166.847 C 85.696 166.231,90.000 164.013,90.000 163.794 C 90.000 163.542,90.257 163.433,86.647 165.215 M161.793 164.789 C 162.027 165.167,170.411 168.922,170.600 168.733 C 170.677 168.656,168.685 167.670,166.174 166.542 C 163.663 165.414,161.692 164.625,161.793 164.789 M80.600 168.029 C 79.720 168.452,79.450 168.686,80.000 168.549 C 81.133 168.267,83.212 167.225,82.600 167.246 C 82.380 167.253,81.480 167.606,80.600 168.029 M75.200 170.000 C 74.667 170.345,74.667 170.388,75.200 170.388 C 75.530 170.388,76.070 170.213,76.400 170.000 C 76.933 169.655,76.933 169.612,76.400 169.612 C 76.070 169.612,75.530 169.787,75.200 170.000 M72.600 170.800 C 72.096 171.017,72.022 171.144,72.400 171.144 C 72.730 171.144,73.360 170.989,73.800 170.800 C 74.304 170.583,74.378 170.456,74.000 170.456 C 73.670 170.456,73.040 170.611,72.600 170.800 M176.200 170.800 C 176.640 170.989,177.270 171.144,177.600 171.144 C 177.978 171.144,177.904 171.017,177.400 170.800 C 176.960 170.611,176.330 170.456,176.000 170.456 C 175.622 170.456,175.696 170.583,176.200 170.800 M69.800 171.600 L 69.000 171.944 69.800 171.966 C 70.240 171.978,70.870 171.813,71.200 171.600 C 71.995 171.086,70.996 171.086,69.800 171.600 M179.200 171.600 C 179.530 171.813,180.070 171.988,180.400 171.988 C 180.933 171.988,180.933 171.945,180.400 171.600 C 180.070 171.387,179.530 171.212,179.200 171.212 C 178.667 171.212,178.667 171.255,179.200 171.600 M182.000 172.400 C 182.330 172.613,182.870 172.788,183.200 172.788 C 183.733 172.788,183.733 172.745,183.200 172.400 C 182.870 172.187,182.330 172.012,182.000 172.012 C 181.467 172.012,181.467 172.055,182.000 172.400 M63.200 173.200 L 62.200 173.520 63.276 173.560 C 63.868 173.582,64.464 173.420,64.600 173.200 C 64.881 172.745,64.620 172.745,63.200 173.200 M185.600 173.200 C 185.930 173.413,186.650 173.573,187.200 173.554 L 188.200 173.520 187.200 173.200 C 185.658 172.706,184.836 172.706,185.600 173.200 M58.600 174.000 L 57.400 174.305 58.800 174.347 C 59.570 174.369,60.470 174.213,60.800 174.000 C 61.539 173.523,60.476 173.523,58.600 174.000 M189.600 174.000 C 189.930 174.213,190.830 174.369,191.600 174.347 L 193.000 174.305 191.800 174.000 C 189.924 173.523,188.861 173.523,189.600 174.000 M191.697 212.807 C 190.012 215.385,190.308 215.380,192.162 212.800 C 192.952 211.700,193.464 210.803,193.299 210.807 C 193.135 210.811,192.414 211.711,191.697 212.807 M59.445 215.012 C 59.810 215.569,60.186 215.947,60.282 215.851 C 60.519 215.614,59.484 214.000,59.095 214.000 C 58.922 214.000,59.080 214.456,59.445 215.012 M62.168 218.900 C 63.166 220.275,65.808 224.058,68.039 227.306 C 70.271 230.555,72.283 233.327,72.510 233.468 C 72.737 233.609,71.190 231.221,69.071 228.162 C 66.952 225.103,64.270 221.211,63.109 219.514 C 61.949 217.816,60.854 216.421,60.676 216.414 C 60.499 216.406,61.170 217.525,62.168 218.900 M185.488 221.718 C 183.557 224.623,182.430 226.448,182.983 225.774 C 184.669 223.718,189.606 216.399,189.294 216.418 C 189.132 216.428,187.420 218.813,185.488 221.718 M179.253 230.474 C 178.073 232.251,177.281 233.597,177.495 233.465 C 178.096 233.094,182.090 227.197,181.724 227.221 C 181.546 227.233,180.434 228.697,179.253 230.474 M75.423 237.900 C 78.231 241.904,78.808 242.285,76.346 238.509 C 75.166 236.699,74.049 235.214,73.865 235.209 C 73.681 235.204,74.382 236.415,75.423 237.900 M172.006 240.914 C 169.432 244.769,169.832 244.219,166.844 248.015 C 163.689 252.025,159.191 256.248,155.340 258.815 C 151.755 261.206,150.833 261.977,152.665 261.054 C 154.752 260.001,160.031 255.859,162.744 253.145 C 166.359 249.528,175.414 237.574,174.509 237.614 C 174.339 237.621,173.213 239.106,172.006 240.914 M80.259 244.700 C 85.035 251.489,90.843 257.093,96.900 260.758 C 99.422 262.284,98.569 261.430,95.597 259.454 C 90.272 255.913,84.100 249.842,81.000 245.097 C 79.900 243.413,78.856 242.028,78.680 242.018 C 78.504 242.008,79.214 243.215,80.259 244.700 M140.800 266.000 C 140.267 266.345,140.267 266.388,140.800 266.388 C 141.130 266.388,141.670 266.213,142.000 266.000 C 142.533 265.655,142.533 265.612,142.000 265.612 C 141.670 265.612,141.130 265.787,140.800 266.000 M110.433 266.557 C 110.790 266.892,115.722 267.998,116.732 267.969 C 117.320 267.953,116.270 267.601,114.400 267.189 C 110.854 266.406,110.155 266.295,110.433 266.557 M137.600 266.800 L 136.600 267.120 137.600 267.154 C 138.150 267.173,138.870 267.013,139.200 266.800 C 139.964 266.306,139.142 266.306,137.600 266.800 M133.800 267.600 L 132.200 267.886 133.600 267.915 C 134.370 267.931,135.360 267.789,135.800 267.600 C 136.743 267.195,136.062 267.195,133.800 267.600 M119.442 268.477 C 121.454 268.835,128.546 268.835,130.558 268.477 C 131.415 268.325,128.914 268.200,125.000 268.200 C 121.086 268.200,118.585 268.325,119.442 268.477 M100.091 285.080 C 100.041 289.744,99.811 294.514,99.580 295.680 C 98.701 300.118,97.447 304.680,96.536 306.761 C 96.016 307.950,95.667 309.000,95.761 309.094 C 96.021 309.354,97.543 305.807,98.291 303.200 C 100.186 296.589,100.470 294.010,100.318 284.800 L 100.182 276.600 100.091 285.080 M101.000 277.200 C 101.136 277.420,101.642 277.587,102.124 277.572 C 102.969 277.545,102.971 277.531,102.200 277.200 C 101.099 276.727,100.708 276.727,101.000 277.200 M147.800 277.200 C 147.029 277.531,147.031 277.545,147.876 277.572 C 148.358 277.587,148.864 277.420,149.000 277.200 C 149.292 276.727,148.901 276.727,147.800 277.200 M149.770 285.200 C 149.770 289.930,149.828 291.865,149.898 289.500 C 149.969 287.135,149.969 283.265,149.898 280.900 C 149.828 278.535,149.770 280.470,149.770 285.200 M103.400 278.000 C 103.536 278.220,104.042 278.387,104.524 278.372 C 105.369 278.345,105.371 278.331,104.600 278.000 C 103.499 277.527,103.108 277.527,103.400 278.000 M144.200 278.400 C 143.100 278.806,142.470 279.149,142.800 279.163 C 143.504 279.192,146.262 278.271,146.659 277.874 C 147.087 277.446,146.370 277.599,144.200 278.400 M105.790 278.784 C 105.932 279.013,106.517 279.200,107.090 279.200 C 108.344 279.200,108.199 279.008,106.666 278.640 C 105.923 278.462,105.621 278.511,105.790 278.784 M108.604 279.606 C 108.738 279.823,109.407 280.000,110.090 280.000 C 111.601 280.000,111.449 279.800,109.680 279.463 C 108.855 279.306,108.452 279.360,108.604 279.606 M139.800 279.600 L 138.600 279.905 139.876 279.953 C 140.578 279.979,141.264 279.820,141.400 279.600 C 141.674 279.157,141.540 279.157,139.800 279.600 M112.000 280.397 C 112.541 280.750,115.964 280.999,115.567 280.656 C 115.475 280.577,114.500 280.399,113.400 280.259 C 112.035 280.086,111.590 280.130,112.000 280.397 M135.800 280.400 L 134.200 280.686 136.076 280.743 C 137.108 280.774,138.064 280.620,138.200 280.400 C 138.468 279.966,138.222 279.966,135.800 280.400 M116.876 281.260 C 118.110 281.607,132.414 281.618,133.285 281.272 C 133.662 281.122,129.916 281.000,124.961 281.000 C 120.007 281.000,116.368 281.117,116.876 281.260 M150.250 296.200 C 150.610 300.081,152.004 304.784,154.041 308.994 C 154.679 310.311,155.200 311.616,155.200 311.894 C 155.200 312.172,155.380 312.400,155.600 312.400 C 156.143 312.400,156.115 312.254,155.239 310.512 C 153.420 306.894,151.962 302.889,151.268 299.600 C 149.971 293.451,150.005 293.566,150.250 296.200 " stroke="none" fill="#a48474" fill-rule="evenodd"></path></g></svg>