<svg id="svg" version="1.1" xmlns="http://www.w3.org/2000/svg" xmlns:xlink="http://www.w3.org/1999/xlink" width="400" height="400" viewBox="0, 0, 400,400"><g id="svgg"><path id="path0" d="M376.000 173.373 L 376.000 198.746 374.700 199.654 C 373.985 200.153,373.109 200.886,372.753 201.281 C 372.397 201.676,371.924 202.000,371.701 202.000 C 371.479 202.000,370.555 202.720,369.648 203.600 C 368.741 204.480,367.802 205.200,367.560 205.200 C 367.319 205.200,366.617 205.740,366.000 206.400 C 365.383 207.060,364.681 207.600,364.440 207.600 C 364.198 207.600,364.000 207.780,364.000 208.000 C 364.000 208.220,363.804 208.400,363.564 208.400 C 363.198 208.400,359.917 210.968,358.088 212.686 C 357.804 212.953,357.053 213.478,356.420 213.852 C 355.786 214.226,355.087 214.931,354.865 215.418 L 354.461 216.303 328.231 216.601 L 302.000 216.899 302.000 250.226 C 302.000 272.012,302.139 283.638,302.400 283.800 C 302.620 283.936,302.800 284.577,302.800 285.224 C 302.800 285.871,302.980 286.400,303.200 286.400 C 303.420 286.400,303.600 286.940,303.600 287.600 C 303.600 288.260,303.736 288.800,303.902 288.800 C 304.069 288.800,304.460 289.385,304.772 290.100 C 305.084 290.815,305.668 291.691,306.070 292.047 C 306.471 292.403,306.800 292.906,306.800 293.165 C 306.800 293.424,307.205 294.064,307.700 294.587 C 308.195 295.110,309.285 296.272,310.123 297.169 C 310.960 298.066,311.815 298.800,312.023 298.800 C 312.230 298.800,312.400 298.980,312.400 299.200 C 312.400 299.420,312.670 299.600,313.000 299.600 C 313.330 299.600,313.600 299.750,313.600 299.932 C 313.600 300.115,314.095 300.520,314.700 300.832 C 315.305 301.144,315.935 301.579,316.100 301.799 C 316.289 302.052,316.536 301.989,316.769 301.627 C 317.081 301.142,317.703 301.228,320.829 302.187 C 327.313 304.176,334.421 303.782,339.852 301.132 C 340.321 300.903,341.086 300.837,341.552 300.985 C 342.054 301.144,342.400 301.080,342.400 300.827 C 342.400 300.592,342.663 300.400,342.985 300.400 C 343.747 300.400,351.200 292.947,351.200 292.185 C 351.200 291.863,351.346 291.600,351.525 291.600 C 351.704 291.600,352.098 290.970,352.400 290.200 C 352.702 289.430,353.096 288.800,353.275 288.800 C 353.454 288.800,353.600 288.361,353.600 287.824 C 353.600 287.287,353.780 286.736,354.000 286.600 C 354.220 286.464,354.400 285.834,354.400 285.200 C 354.400 284.566,354.580 283.936,354.800 283.800 C 355.057 283.641,355.200 276.929,355.200 264.976 C 355.200 248.731,355.275 246.400,355.800 246.400 C 356.130 246.400,356.400 246.220,356.400 246.000 C 356.400 245.780,356.630 245.600,356.912 245.600 C 357.193 245.600,357.683 245.240,358.000 244.800 C 358.317 244.360,358.735 244.000,358.928 244.000 C 359.121 244.000,359.758 243.487,360.345 242.859 C 360.931 242.232,362.007 241.410,362.736 241.033 C 363.466 240.656,364.615 239.819,365.291 239.174 C 365.966 238.528,366.690 238.000,366.899 238.000 C 367.108 238.000,367.783 237.460,368.400 236.800 C 369.017 236.140,369.684 235.600,369.882 235.600 C 370.231 235.600,371.738 234.340,374.907 231.399 C 375.735 230.629,376.608 230.000,376.846 230.000 C 377.084 230.000,377.783 229.460,378.400 228.800 C 379.017 228.140,379.692 227.600,379.901 227.600 C 380.110 227.600,380.834 227.072,381.509 226.426 C 382.185 225.781,383.246 224.981,383.869 224.649 C 384.491 224.317,385.575 223.495,386.278 222.823 C 386.981 222.150,387.703 221.600,387.883 221.600 C 388.188 221.600,389.672 220.378,393.106 217.300 C 393.904 216.585,394.719 216.000,394.918 216.000 C 395.116 216.000,395.783 215.460,396.400 214.800 C 397.017 214.140,397.685 213.600,397.885 213.600 C 398.085 213.600,398.643 213.233,399.125 212.784 L 400.000 211.969 400.000 179.984 L 400.000 148.000 388.000 148.000 L 376.000 148.000 376.000 173.373 M0.000 358.402 L 0.000 388.800 138.800 388.800 L 277.600 388.800 277.600 358.399 L 277.600 327.998 138.800 328.001 L 0.000 328.004 0.000 358.402 " stroke="none" fill="#63d0fc" fill-rule="evenodd"></path><path id="path1" d="M138.263 89.800 C 138.077 90.240,137.676 91.538,137.372 92.686 C 134.974 101.714,127.208 109.936,118.200 112.983 C 113.878 114.445,112.570 114.529,90.200 114.764 L 67.800 115.000 67.692 136.600 C 67.590 156.902,67.816 163.765,68.781 169.600 C 69.323 172.879,70.893 179.085,71.565 180.600 C 71.760 181.040,72.143 182.030,72.416 182.800 C 77.979 198.473,92.561 214.213,108.227 221.450 L 111.294 222.868 111.029 224.334 C 110.883 225.140,110.577 226.880,110.348 228.200 C 110.119 229.520,109.782 231.410,109.600 232.400 C 109.418 233.390,109.058 235.370,108.800 236.800 C 108.542 238.230,108.182 240.210,108.000 241.200 C 107.818 242.190,107.458 244.170,107.200 245.600 C 106.942 247.030,106.565 249.100,106.361 250.200 C 106.157 251.300,105.879 253.061,105.743 254.114 C 105.435 256.496,105.059 256.712,100.302 257.227 C 98.266 257.448,94.980 257.803,93.000 258.016 C 89.197 258.425,84.176 258.991,79.200 259.572 C 77.550 259.764,73.140 260.198,69.400 260.536 C 50.530 262.240,42.966 263.447,37.200 265.674 C 33.469 267.115,27.918 269.897,25.400 271.587 C 24.080 272.473,22.630 273.198,22.178 273.199 C 21.400 273.200,20.724 273.728,16.381 277.726 C 14.071 279.852,9.800 285.120,9.429 286.300 C 9.273 286.795,8.978 287.200,8.773 287.200 C 8.568 287.200,8.400 287.470,8.400 287.800 C 8.400 288.130,8.220 288.400,8.000 288.400 C 7.780 288.400,7.600 288.670,7.600 289.000 C 7.600 289.330,7.420 289.600,7.200 289.600 C 6.980 289.600,6.800 289.960,6.800 290.400 C 6.800 290.840,6.654 291.200,6.475 291.200 C 6.296 291.200,5.902 291.830,5.600 292.600 C 5.298 293.370,4.904 294.000,4.725 294.000 C 4.546 294.000,4.400 294.450,4.400 295.000 C 4.400 295.550,4.265 296.001,4.100 296.003 C 3.699 296.007,2.800 297.981,2.800 298.856 C 2.800 299.239,2.620 299.664,2.400 299.800 C 2.180 299.936,2.000 300.487,2.000 301.024 C 2.000 301.561,1.820 302.000,1.600 302.000 C 1.380 302.000,1.200 302.705,1.200 303.567 C 1.200 304.432,0.985 305.205,0.719 305.294 C 0.364 305.412,0.193 308.363,0.070 316.461 L -0.096 327.467 103.452 327.733 C 160.403 327.880,222.885 328.000,242.300 328.000 L 277.600 328.000 277.600 319.624 C 277.600 314.471,277.446 311.152,277.200 311.000 C 276.980 310.864,276.800 309.874,276.800 308.800 C 276.800 307.726,276.620 306.736,276.400 306.600 C 276.180 306.464,276.000 305.654,276.000 304.800 C 276.000 303.946,275.820 303.136,275.600 303.000 C 275.380 302.864,275.200 302.320,275.200 301.791 C 275.200 300.202,271.159 290.795,270.335 290.467 C 270.151 290.393,270.000 289.988,270.000 289.567 C 270.000 289.145,269.850 288.800,269.668 288.800 C 269.485 288.800,269.080 288.305,268.768 287.700 C 268.455 287.095,267.885 286.251,267.500 285.825 C 267.115 285.398,266.800 284.885,266.800 284.685 C 266.800 284.485,266.298 283.844,265.685 283.260 C 265.071 282.677,264.135 281.570,263.604 280.800 C 263.073 280.030,262.516 279.310,262.367 279.200 C 261.866 278.832,257.532 275.011,256.554 274.075 C 255.931 273.480,255.317 273.236,254.830 273.390 C 254.317 273.553,252.942 272.893,250.547 271.331 C 245.901 268.303,239.142 265.380,234.400 264.348 C 229.489 263.280,227.461 262.977,218.500 261.971 C 216.685 261.767,213.625 261.415,211.700 261.190 C 209.775 260.964,206.625 260.604,204.700 260.390 C 200.693 259.944,195.242 259.325,190.600 258.789 C 185.655 258.219,180.138 257.619,176.400 257.246 C 171.362 256.743,171.819 257.355,170.394 249.200 C 170.144 247.770,169.778 245.790,169.581 244.800 C 169.384 243.810,168.590 239.400,167.817 235.000 C 167.044 230.600,166.229 226.232,166.006 225.294 C 165.783 224.356,165.600 223.438,165.600 223.254 C 165.600 223.070,167.445 221.973,169.700 220.816 C 179.833 215.617,187.092 209.661,194.466 200.498 C 201.050 192.317,206.767 178.923,208.509 167.600 C 208.729 166.170,208.979 153.800,209.066 140.111 L 209.223 115.221 208.312 115.011 C 207.810 114.896,197.230 114.756,184.800 114.701 L 162.200 114.600 158.400 113.079 C 149.494 109.515,139.600 99.108,139.600 93.305 C 139.600 92.895,139.433 92.389,139.229 92.180 C 139.024 91.971,138.799 91.170,138.729 90.400 C 138.621 89.225,138.546 89.129,138.263 89.800 M348.994 154.100 L 343.800 159.400 349.000 154.345 C 351.860 151.564,354.470 149.194,354.800 149.076 C 355.329 148.888,355.329 148.859,354.794 148.832 C 354.461 148.814,351.851 151.185,348.994 154.100 M332.413 170.187 C 329.670 172.922,327.510 175.216,327.613 175.286 C 327.716 175.356,330.112 173.115,332.938 170.306 C 335.765 167.498,337.925 165.204,337.738 165.208 C 337.552 165.212,335.156 167.453,332.413 170.187 M354.243 177.033 C 353.867 178.011,353.949 178.108,354.600 177.457 C 355.280 176.777,355.367 176.400,354.843 176.400 C 354.646 176.400,354.376 176.685,354.243 177.033 M314.051 188.549 C 309.333 193.272,306.879 196.002,307.182 196.189 C 307.441 196.349,307.761 196.372,307.893 196.240 C 308.025 196.108,307.880 196.000,307.571 196.000 C 307.261 196.000,310.334 192.670,314.400 188.600 C 318.466 184.530,321.702 181.200,321.592 181.200 C 321.482 181.200,318.089 184.507,314.051 188.549 M351.400 184.400 C 351.059 185.060,350.869 185.600,350.979 185.600 C 351.089 185.600,351.459 185.060,351.800 184.400 C 352.141 183.740,352.331 183.200,352.221 183.200 C 352.111 183.200,351.741 183.740,351.400 184.400 M348.026 188.916 C 345.983 191.204,345.845 191.428,347.358 190.000 C 349.013 188.438,351.102 185.968,350.727 186.016 C 350.657 186.025,349.442 187.330,348.026 188.916 M341.200 194.000 C 340.430 194.422,339.944 194.774,340.120 194.783 C 340.544 194.805,342.800 193.632,342.800 193.390 C 342.800 193.128,342.777 193.137,341.200 194.000 M335.400 196.000 C 334.293 196.282,334.277 196.309,335.200 196.347 C 335.750 196.369,336.470 196.213,336.800 196.000 C 337.481 195.560,337.129 195.560,335.400 196.000 M321.200 196.772 C 326.590 196.903,331.630 196.905,332.400 196.776 C 333.170 196.647,328.760 196.540,322.600 196.538 L 311.400 196.534 321.200 196.772 " stroke="none" fill="#fbcaca" fill-rule="evenodd"></path><path id="path2" d="M129.058 11.476 C 128.906 11.627,127.121 11.899,125.091 12.079 C 119.143 12.608,117.424 12.855,117.020 13.239 C 116.811 13.437,115.877 13.600,114.944 13.600 C 114.011 13.600,113.148 13.761,113.026 13.958 C 112.905 14.155,112.129 14.418,111.303 14.542 C 107.722 15.083,106.800 15.309,106.800 15.644 C 106.800 15.840,106.258 16.000,105.595 16.000 C 104.932 16.000,104.032 16.180,103.595 16.400 C 103.158 16.620,102.442 16.980,102.005 17.200 C 101.568 17.420,100.758 17.600,100.205 17.600 C 99.652 17.600,99.200 17.780,99.200 18.000 C 99.200 18.220,98.761 18.400,98.224 18.400 C 97.687 18.400,97.136 18.580,97.000 18.800 C 96.864 19.020,96.403 19.200,95.976 19.200 C 95.549 19.200,95.200 19.380,95.200 19.600 C 95.200 19.820,94.851 20.000,94.424 20.000 C 93.997 20.000,93.536 20.180,93.400 20.400 C 93.264 20.620,92.713 20.800,92.176 20.800 C 91.639 20.800,91.200 20.980,91.200 21.200 C 91.200 21.420,90.840 21.600,90.400 21.600 C 89.960 21.600,89.600 21.780,89.600 22.000 C 89.600 22.220,89.240 22.400,88.800 22.400 C 88.360 22.400,88.000 22.580,88.000 22.800 C 88.000 23.020,87.640 23.200,87.200 23.200 C 86.760 23.200,86.400 23.380,86.400 23.600 C 86.400 23.820,86.040 24.000,85.600 24.000 C 85.160 24.000,84.800 24.180,84.800 24.400 C 84.800 24.620,84.440 24.800,84.000 24.800 C 83.560 24.800,83.200 24.980,83.200 25.200 C 83.200 25.420,82.851 25.600,82.424 25.600 C 81.997 25.600,81.543 25.769,81.416 25.975 C 81.288 26.181,80.693 26.605,80.092 26.917 C 77.060 28.495,75.600 29.375,75.600 29.626 C 75.600 29.778,75.060 30.127,74.400 30.400 C 73.740 30.673,73.200 31.033,73.200 31.200 C 73.200 31.367,72.660 31.727,72.000 32.000 C 71.340 32.273,70.800 32.625,70.800 32.781 C 70.800 32.937,70.305 33.320,69.700 33.632 C 69.095 33.945,68.123 34.695,67.540 35.300 C 66.956 35.905,66.299 36.400,66.080 36.400 C 65.861 36.400,64.762 37.300,63.639 38.400 C 62.515 39.500,61.481 40.400,61.340 40.400 C 60.473 40.400,49.169 52.581,45.750 57.200 C 44.691 58.630,43.727 59.890,43.609 60.000 C 43.099 60.472,41.200 63.619,41.200 63.991 C 41.200 64.216,41.020 64.400,40.800 64.400 C 40.580 64.400,40.400 64.670,40.400 65.000 C 40.400 65.330,40.220 65.600,40.000 65.600 C 39.780 65.600,39.600 65.855,39.600 66.167 C 39.600 66.478,39.465 66.793,39.300 66.867 C 38.924 67.034,37.625 69.164,37.329 70.100 C 37.207 70.485,36.948 70.800,36.753 70.800 C 36.559 70.800,36.400 71.160,36.400 71.600 C 36.400 72.040,36.220 72.400,36.000 72.400 C 35.780 72.400,35.600 72.760,35.600 73.200 C 35.600 73.640,35.420 74.000,35.200 74.000 C 34.980 74.000,34.800 74.360,34.800 74.800 C 34.800 75.240,34.620 75.600,34.400 75.600 C 34.180 75.600,34.000 75.870,34.000 76.200 C 34.000 76.530,33.820 76.800,33.600 76.800 C 33.380 76.800,33.200 77.053,33.200 77.362 C 33.200 77.671,32.814 78.706,32.343 79.662 C 31.872 80.618,31.350 81.760,31.183 82.200 C 31.016 82.640,30.534 83.810,30.112 84.800 C 29.690 85.790,29.101 87.410,28.803 88.400 C 28.505 89.390,28.112 90.371,27.930 90.580 C 27.749 90.789,27.600 91.363,27.600 91.856 C 27.600 92.349,27.441 92.851,27.246 92.971 C 27.051 93.092,26.791 93.687,26.667 94.295 C 26.542 94.903,26.151 96.660,25.797 98.200 C 25.443 99.740,25.051 101.945,24.927 103.100 C 24.803 104.255,24.543 105.200,24.350 105.200 C 24.158 105.200,24.000 106.100,24.000 107.200 C 24.000 108.300,23.820 109.200,23.600 109.200 C 23.367 109.200,23.200 110.533,23.200 112.400 C 23.200 114.267,23.033 115.600,22.800 115.600 C 22.535 115.600,22.400 142.133,22.400 194.400 C 22.400 237.740,22.535 273.199,22.700 273.199 C 22.865 273.198,24.080 272.473,25.400 271.587 C 27.918 269.897,33.469 267.115,37.200 265.674 C 42.966 263.447,50.530 262.240,69.400 260.536 C 73.140 260.198,77.550 259.764,79.200 259.572 C 84.176 258.991,89.197 258.425,93.000 258.016 C 106.250 256.590,105.389 256.854,105.743 254.114 C 105.879 253.061,106.157 251.300,106.361 250.200 C 106.565 249.100,106.942 247.030,107.200 245.600 C 107.458 244.170,107.818 242.190,108.000 241.200 C 108.182 240.210,108.542 238.230,108.800 236.800 C 109.058 235.370,109.418 233.390,109.600 232.400 C 109.782 231.410,110.119 229.520,110.348 228.200 C 110.577 226.880,110.883 225.140,111.029 224.334 L 111.294 222.868 108.227 221.450 C 92.561 214.213,77.979 198.473,72.416 182.800 C 72.143 182.030,71.760 181.040,71.565 180.600 C 71.157 179.681,70.069 175.715,69.612 173.484 C 69.190 171.426,68.623 170.994,68.975 173.000 C 69.843 177.932,74.471 190.217,75.983 191.600 C 76.103 191.710,76.466 192.340,76.790 193.000 C 79.383 198.287,87.316 207.687,93.000 212.209 C 94.100 213.084,95.090 213.901,95.200 214.024 C 96.770 215.783,108.896 222.800,110.367 222.800 C 110.898 222.800,110.905 223.124,110.416 225.294 C 110.205 226.232,109.845 228.035,109.616 229.300 C 109.387 230.565,109.028 232.545,108.818 233.700 C 108.608 234.855,108.236 236.970,107.992 238.400 C 107.747 239.830,107.395 241.720,107.209 242.600 C 107.023 243.480,106.660 245.460,106.402 247.000 C 104.729 256.976,105.324 256.136,99.467 256.776 C 90.844 257.718,82.258 258.683,77.600 259.233 C 75.950 259.428,73.025 259.703,71.100 259.843 L 67.600 260.098 67.600 214.849 C 67.600 173.560,67.742 166.856,68.542 170.500 C 68.770 171.539,68.616 169.305,68.011 162.800 C 67.751 160.008,67.626 149.711,67.692 136.600 L 67.800 115.000 90.200 114.764 C 112.570 114.529,113.878 114.445,118.200 112.983 C 127.254 109.921,135.022 101.664,137.385 92.592 C 138.205 89.443,138.772 88.588,138.788 90.476 C 138.795 91.288,138.980 92.064,139.200 92.200 C 139.420 92.336,139.600 92.808,139.600 93.249 C 139.600 99.107,149.450 109.497,158.400 113.079 L 162.200 114.600 184.800 114.701 C 197.230 114.756,207.810 114.896,208.312 115.011 L 209.223 115.221 209.052 140.111 C 208.957 153.800,208.784 165.990,208.666 167.200 L 208.452 169.400 208.921 167.000 C 209.249 165.322,209.392 157.075,209.395 139.600 L 209.400 114.600 186.000 114.380 C 167.736 114.209,162.293 114.042,161.200 113.620 C 160.430 113.323,159.440 112.951,159.000 112.793 C 151.592 110.135,145.263 104.497,141.945 97.600 C 140.264 94.106,140.119 93.714,139.653 91.400 C 138.490 85.614,138.400 82.469,138.400 47.393 L 138.400 11.200 133.867 11.200 C 131.373 11.200,129.209 11.324,129.058 11.476 M347.899 155.503 C 344.434 158.967,341.471 161.980,341.314 162.200 C 341.157 162.420,343.992 159.695,347.614 156.144 C 351.236 152.594,354.470 149.593,354.800 149.476 C 355.333 149.287,355.333 149.260,354.800 149.235 C 354.470 149.220,351.365 152.040,347.899 155.503 M302.034 179.400 C 302.047 193.605,302.203 203.858,302.400 203.400 C 302.887 202.266,302.887 155.954,302.400 155.200 C 302.148 154.809,302.020 163.251,302.034 179.400 M336.406 166.782 C 335.859 167.202,335.499 167.624,335.606 167.721 C 335.713 167.817,336.246 167.469,336.792 166.948 C 337.982 165.810,337.782 165.724,336.406 166.782 M333.402 169.598 C 333.003 170.039,332.807 170.400,332.967 170.400 C 333.388 170.400,334.528 169.195,334.312 168.979 C 334.211 168.878,333.802 169.156,333.402 169.598 M207.466 172.667 C 207.075 174.390,206.652 176.160,206.528 176.600 C 206.403 177.040,206.424 177.284,206.576 177.141 C 206.946 176.793,208.477 170.430,208.310 169.930 C 208.237 169.712,207.858 170.944,207.466 172.667 M317.638 185.363 C 309.635 193.321,307.235 195.928,307.733 196.119 C 308.649 196.470,333.984 196.551,334.324 196.204 C 334.476 196.048,333.520 195.960,332.200 196.008 C 330.880 196.056,324.851 196.074,318.803 196.048 L 307.806 196.000 318.400 185.400 C 324.227 179.570,328.816 174.813,328.597 174.830 C 328.379 174.846,323.447 179.586,317.638 185.363 M354.256 175.078 C 354.115 175.218,354.000 175.766,354.000 176.295 C 354.000 177.150,354.067 177.190,354.600 176.657 C 354.930 176.327,355.200 175.875,355.200 175.652 C 355.200 175.125,354.584 174.750,354.256 175.078 M206.032 178.031 C 206.014 178.378,205.540 179.793,204.978 181.176 C 204.417 182.559,204.028 183.761,204.114 183.848 C 204.402 184.135,206.472 178.415,206.266 177.903 C 206.132 177.570,206.052 177.614,206.032 178.031 M350.625 185.152 C 349.679 186.982,346.170 190.607,343.995 192.003 C 341.754 193.441,341.310 194.029,343.300 192.923 C 345.873 191.492,352.692 184.000,351.421 184.000 C 351.311 184.000,350.953 184.518,350.625 185.152 M203.600 184.484 C 203.600 184.604,203.328 185.354,202.995 186.151 C 202.662 186.948,202.473 187.600,202.576 187.600 C 202.931 187.600,204.104 184.770,203.852 184.519 C 203.714 184.380,203.600 184.365,203.600 184.484 M197.058 196.796 C 194.985 199.913,194.810 200.140,191.341 204.179 C 188.421 207.580,184.877 210.866,180.900 213.861 C 179.305 215.062,178.000 216.146,178.000 216.270 C 178.000 216.803,183.925 212.073,187.339 208.814 C 191.819 204.538,200.172 194.000,199.082 194.000 C 198.992 194.000,198.081 195.258,197.058 196.796 M175.694 217.480 C 174.777 218.075,174.095 218.628,174.177 218.710 C 174.334 218.867,177.600 216.802,177.600 216.547 C 177.600 216.280,177.376 216.390,175.694 217.480 M169.500 220.882 C 165.550 222.946,165.248 223.303,166.020 225.000 C 166.314 225.646,166.366 225.538,166.292 224.441 C 166.202 223.116,166.286 223.037,169.600 221.317 C 172.530 219.795,174.205 218.745,173.580 218.822 C 173.481 218.834,171.645 219.761,169.500 220.882 M166.672 228.600 C 166.799 229.700,166.969 230.675,167.051 230.767 C 167.332 231.082,167.120 228.599,166.780 227.600 C 166.551 226.926,166.516 227.251,166.672 228.600 M167.472 233.000 C 167.599 234.100,167.769 235.075,167.851 235.167 C 168.132 235.482,167.920 232.999,167.580 232.000 C 167.351 231.326,167.316 231.651,167.472 233.000 M168.075 236.200 C 168.086 236.640,168.232 237.540,168.400 238.200 L 168.705 239.400 168.725 238.200 C 168.735 237.540,168.589 236.640,168.400 236.200 L 168.056 235.400 168.075 236.200 M168.832 240.292 C 168.794 240.879,169.899 246.816,170.415 248.800 L 170.780 250.200 170.583 248.600 C 170.065 244.385,168.918 238.944,168.832 240.292 M170.851 251.400 C 170.842 252.060,171.085 253.500,171.391 254.600 C 172.103 257.166,172.115 255.740,171.408 252.600 C 171.056 251.036,170.862 250.618,170.851 251.400 M173.000 256.779 C 173.756 257.124,177.521 257.369,177.167 257.050 C 177.075 256.968,175.920 256.791,174.600 256.657 C 173.016 256.496,172.472 256.538,173.000 256.779 M180.000 257.600 C 180.550 257.776,181.810 257.916,182.800 257.910 L 184.600 257.900 182.800 257.580 C 181.810 257.403,180.550 257.264,180.000 257.270 L 179.000 257.280 180.000 257.600 M187.200 258.389 C 188.178 258.713,192.296 258.942,191.967 258.655 C 191.875 258.575,190.540 258.408,189.000 258.284 C 187.296 258.147,186.591 258.188,187.200 258.389 M194.200 259.184 C 194.953 259.523,199.125 259.769,198.767 259.453 C 198.675 259.372,197.430 259.198,196.000 259.065 C 194.324 258.909,193.684 258.952,194.200 259.184 M201.200 259.984 C 202.180 260.314,205.895 260.542,205.567 260.253 C 205.475 260.172,204.230 260.003,202.800 259.877 C 201.170 259.734,200.573 259.774,201.200 259.984 M208.400 260.794 C 209.377 261.113,213.897 261.342,213.567 261.056 C 213.475 260.976,212.050 260.811,210.400 260.689 C 208.624 260.558,207.808 260.601,208.400 260.794 M215.200 261.594 C 216.177 261.913,220.697 262.142,220.367 261.856 C 220.275 261.776,218.850 261.611,217.200 261.489 C 215.424 261.358,214.608 261.401,215.200 261.594 M223.000 262.418 C 224.100 262.602,226.710 263.023,228.800 263.354 C 235.282 264.381,236.896 264.822,242.800 267.179 C 244.010 267.662,244.820 267.892,244.600 267.690 C 242.547 265.804,230.952 262.790,223.800 262.283 C 221.364 262.110,221.260 262.128,223.000 262.418 M250.334 271.200 C 252.375 272.520,254.260 273.597,254.523 273.593 C 254.785 273.590,254.340 273.185,253.534 272.693 C 252.727 272.202,250.963 271.125,249.612 270.300 C 245.745 267.937,246.236 268.550,250.334 271.200 " stroke="none" fill="#fbe374" fill-rule="evenodd"></path><path id="path3" d="M138.400 47.393 C 138.400 82.469,138.490 85.614,139.653 91.400 C 140.119 93.714,140.264 94.106,141.945 97.600 C 145.263 104.497,151.592 110.135,159.000 112.793 C 159.440 112.951,160.430 113.323,161.200 113.620 C 162.293 114.042,167.736 114.209,186.000 114.380 L 209.400 114.600 209.400 139.600 C 209.400 165.188,209.328 166.663,207.755 173.200 C 203.691 190.095,193.336 205.548,179.562 215.272 C 175.721 217.983,174.383 218.791,169.400 221.407 C 165.631 223.386,165.783 222.457,167.642 232.200 C 167.852 233.300,168.199 235.145,168.412 236.300 C 168.625 237.455,168.996 239.435,169.236 240.700 C 170.023 244.851,170.336 246.539,171.230 251.451 L 172.112 256.302 175.556 256.729 C 177.450 256.964,180.710 257.351,182.800 257.588 C 196.994 259.198,208.120 260.442,210.000 260.629 C 211.210 260.748,213.460 261.004,215.000 261.197 C 216.540 261.390,219.600 261.745,221.800 261.987 C 235.567 263.498,243.951 266.226,252.134 271.855 C 253.210 272.595,254.340 273.200,254.645 273.200 C 255.114 273.200,255.200 267.875,255.200 238.800 L 255.200 204.400 278.600 204.400 L 302.000 204.400 302.000 179.400 L 302.000 154.400 278.608 154.400 L 255.216 154.400 255.037 136.700 C 254.849 118.249,254.625 112.745,254.007 111.400 C 253.804 110.960,253.545 109.700,253.430 108.600 C 252.963 104.124,252.705 102.582,252.361 102.220 C 252.163 102.011,252.000 101.156,252.000 100.320 C 252.000 99.484,251.820 98.800,251.600 98.800 C 251.380 98.800,251.200 98.170,251.200 97.400 C 251.200 96.630,251.020 96.000,250.800 96.000 C 250.580 96.000,250.400 95.471,250.400 94.824 C 250.400 94.177,250.220 93.536,250.000 93.400 C 249.780 93.264,249.600 92.713,249.600 92.176 C 249.600 91.639,249.420 91.200,249.200 91.200 C 248.980 91.200,248.800 90.660,248.800 90.000 C 248.800 89.340,248.620 88.800,248.400 88.800 C 248.180 88.800,248.000 88.260,248.000 87.600 C 248.000 86.940,247.820 86.400,247.600 86.400 C 247.380 86.400,247.200 86.051,247.200 85.624 C 247.200 85.197,247.020 84.736,246.800 84.600 C 246.580 84.464,246.400 83.913,246.400 83.376 C 246.400 82.839,246.220 82.400,246.000 82.400 C 245.780 82.400,245.600 82.040,245.600 81.600 C 245.600 81.160,245.420 80.800,245.200 80.800 C 244.980 80.800,244.800 80.350,244.800 79.800 C 244.800 79.250,244.620 78.800,244.400 78.800 C 244.180 78.800,244.000 78.440,244.000 78.000 C 244.000 77.560,243.820 77.200,243.600 77.200 C 243.380 77.200,243.200 76.840,243.200 76.400 C 243.200 75.960,243.020 75.600,242.800 75.600 C 242.580 75.600,242.400 75.240,242.400 74.800 C 242.400 74.360,242.220 74.000,242.000 74.000 C 241.780 74.000,241.600 73.713,241.600 73.362 C 241.600 72.656,240.373 70.277,239.900 70.067 C 239.735 69.993,239.600 69.588,239.600 69.167 C 239.600 68.745,239.420 68.400,239.200 68.400 C 238.980 68.400,238.800 68.164,238.800 67.875 C 238.800 67.587,238.485 67.002,238.100 66.575 C 237.715 66.149,237.145 65.305,236.832 64.700 C 236.520 64.095,236.115 63.600,235.932 63.600 C 235.750 63.600,235.600 63.280,235.600 62.888 C 235.600 62.497,235.240 61.917,234.800 61.600 C 234.360 61.283,234.000 60.793,234.000 60.512 C 234.000 60.230,233.859 60.000,233.686 60.000 C 233.514 60.000,233.047 59.450,232.650 58.777 C 232.253 58.105,231.314 56.941,230.564 56.191 C 229.814 55.440,229.200 54.637,229.200 54.405 C 229.200 54.174,228.297 53.043,227.194 51.892 C 226.090 50.741,224.221 48.623,223.041 47.185 C 221.860 45.747,219.838 43.767,218.547 42.785 C 217.257 41.803,215.358 40.145,214.327 39.100 C 213.295 38.055,212.246 37.200,211.995 37.200 C 211.743 37.200,210.846 36.480,210.000 35.600 C 209.154 34.720,208.269 34.000,208.031 34.000 C 207.794 34.000,207.600 33.850,207.600 33.668 C 207.600 33.485,207.105 33.081,206.500 32.770 C 205.895 32.460,205.130 31.933,204.800 31.600 C 204.470 31.267,203.705 30.740,203.100 30.430 C 202.495 30.119,202.000 29.715,202.000 29.532 C 202.000 29.350,201.722 29.200,201.383 29.200 C 201.044 29.200,200.380 28.840,199.908 28.400 C 199.436 27.960,198.813 27.600,198.525 27.600 C 198.236 27.600,198.000 27.420,198.000 27.200 C 198.000 26.980,197.640 26.800,197.200 26.800 C 196.760 26.800,196.400 26.655,196.400 26.477 C 196.400 26.123,193.612 24.800,192.866 24.800 C 192.610 24.800,192.400 24.654,192.400 24.475 C 192.400 24.296,191.770 23.902,191.000 23.600 C 190.230 23.298,189.600 22.904,189.600 22.725 C 189.600 22.546,189.335 22.400,189.012 22.400 C 188.689 22.400,187.783 22.040,187.000 21.600 C 186.217 21.160,185.221 20.800,184.788 20.800 C 184.355 20.800,184.000 20.620,184.000 20.400 C 184.000 20.180,183.640 20.000,183.200 20.000 C 182.760 20.000,182.400 19.820,182.400 19.600 C 182.400 19.380,181.860 19.200,181.200 19.200 C 180.540 19.200,180.000 19.020,180.000 18.800 C 180.000 18.580,179.651 18.400,179.224 18.400 C 178.797 18.400,178.336 18.220,178.200 18.000 C 178.064 17.780,177.513 17.600,176.976 17.600 C 176.439 17.600,176.000 17.420,176.000 17.200 C 176.000 16.980,175.460 16.800,174.800 16.800 C 174.140 16.800,173.600 16.620,173.600 16.400 C 173.600 16.180,172.970 16.000,172.200 16.000 C 171.430 16.000,170.800 15.820,170.800 15.600 C 170.800 15.380,170.181 15.200,169.424 15.200 C 168.667 15.200,167.936 15.020,167.800 14.800 C 167.664 14.580,166.843 14.400,165.976 14.400 C 165.109 14.400,164.400 14.220,164.400 14.000 C 164.400 13.780,163.500 13.600,162.400 13.600 C 161.300 13.600,160.400 13.420,160.400 13.200 C 160.400 12.980,159.511 12.800,158.424 12.800 C 157.337 12.800,156.336 12.620,156.200 12.400 C 156.064 12.180,154.534 12.000,152.800 12.000 C 151.066 12.000,149.536 11.820,149.400 11.600 C 149.255 11.365,146.929 11.200,143.776 11.200 L 138.400 11.200 138.400 47.393 M331.072 172.676 C 318.392 185.367,308.071 195.804,308.136 195.869 C 308.621 196.354,335.223 195.946,336.898 195.427 C 345.690 192.704,352.697 185.058,353.969 176.800 C 354.134 175.729,354.439 175.041,354.723 175.100 C 355.084 175.176,355.200 172.100,355.200 162.400 C 355.200 151.954,355.101 149.600,354.663 149.600 C 354.367 149.600,343.751 159.984,331.072 172.676 M67.600 214.849 L 67.600 260.098 71.100 259.843 C 73.025 259.703,75.950 259.428,77.600 259.233 C 82.258 258.683,90.844 257.718,99.467 256.776 C 105.324 256.136,104.729 256.976,106.402 247.000 C 106.660 245.460,107.023 243.480,107.209 242.600 C 107.395 241.720,107.747 239.830,107.992 238.400 C 108.236 236.970,108.619 234.810,108.842 233.600 C 109.065 232.390,109.425 230.410,109.640 229.200 C 109.856 227.990,110.205 226.232,110.416 225.294 C 110.905 223.124,110.898 222.800,110.367 222.800 C 108.896 222.800,96.770 215.783,95.200 214.024 C 95.090 213.901,94.100 213.084,93.000 212.209 C 87.316 207.687,79.383 198.287,76.790 193.000 C 76.466 192.340,76.103 191.710,75.983 191.600 C 75.634 191.281,72.931 185.608,71.981 183.200 C 70.854 180.344,69.386 175.258,68.778 172.100 C 68.513 170.725,68.139 169.600,67.948 169.600 C 67.753 169.600,67.600 189.461,67.600 214.849 " stroke="none" fill="#fcb916" fill-rule="evenodd"></path><path id="path4" d="M322.200 27.301 C 321.540 27.517,320.687 27.853,320.305 28.047 C 319.923 28.241,319.158 28.400,318.605 28.400 C 318.052 28.400,317.600 28.580,317.600 28.800 C 317.600 29.020,317.240 29.200,316.800 29.200 C 316.360 29.200,316.000 29.380,316.000 29.600 C 316.000 29.820,315.640 30.000,315.200 30.000 C 314.760 30.000,314.400 30.141,314.400 30.314 C 314.400 30.486,313.847 30.954,313.170 31.354 C 311.215 32.509,306.000 38.133,306.000 39.086 C 306.000 39.369,305.820 39.600,305.600 39.600 C 305.380 39.600,305.200 39.960,305.200 40.400 C 305.200 40.840,305.020 41.200,304.800 41.200 C 304.580 41.200,304.400 41.560,304.400 42.000 C 304.400 42.440,304.220 42.800,304.000 42.800 C 303.780 42.800,303.600 43.239,303.600 43.776 C 303.600 44.313,303.420 44.864,303.200 45.000 C 302.980 45.136,302.800 45.676,302.800 46.200 C 302.800 46.724,302.620 47.264,302.400 47.400 C 302.137 47.563,302.000 65.863,302.000 101.000 C 302.000 136.137,302.137 154.437,302.400 154.600 C 302.660 154.760,302.800 163.463,302.800 179.400 C 302.800 195.337,302.660 204.040,302.400 204.200 C 302.161 204.348,302.000 206.954,302.000 210.674 L 302.000 216.901 328.100 216.616 C 351.376 216.363,354.254 216.262,354.700 215.690 C 355.301 214.918,355.441 177.200,354.843 177.200 C 354.431 177.200,354.000 178.173,354.000 179.104 C 354.000 180.504,350.714 186.430,348.739 188.591 C 344.592 193.128,340.241 195.440,333.755 196.553 C 330.459 197.119,307.790 196.750,307.160 196.120 C 306.756 195.716,353.567 149.095,354.603 148.871 C 355.288 148.722,355.531 48.644,354.849 47.295 C 354.656 46.913,354.279 45.880,354.012 45.000 C 353.298 42.650,352.645 41.200,352.302 41.200 C 352.136 41.200,352.000 40.917,352.000 40.571 C 352.000 40.226,351.728 39.671,351.396 39.339 C 351.064 39.007,350.912 38.542,351.058 38.306 C 351.215 38.051,351.136 37.993,350.862 38.162 C 350.608 38.319,350.400 38.248,350.400 38.004 C 350.400 37.441,344.581 31.600,344.019 31.600 C 343.789 31.600,343.600 31.420,343.600 31.200 C 343.600 30.980,343.330 30.800,343.000 30.800 C 342.670 30.800,342.400 30.620,342.400 30.400 C 342.400 30.180,342.040 30.000,341.600 30.000 C 341.160 30.000,340.799 29.865,340.797 29.700 C 340.793 29.294,338.814 28.400,337.920 28.400 C 337.524 28.400,337.200 28.240,337.200 28.044 C 337.200 27.134,324.611 26.511,322.200 27.301 M339.780 301.122 C 336.974 303.500,326.773 304.110,321.000 302.244 C 319.240 301.676,317.575 301.208,317.300 301.205 C 316.917 301.201,316.800 303.024,316.800 309.000 C 316.800 313.933,316.947 316.800,317.200 316.800 C 317.420 316.800,317.600 317.522,317.600 318.405 C 317.600 319.288,317.759 320.323,317.953 320.705 C 318.296 321.378,318.541 321.950,319.664 324.700 C 319.956 325.415,320.331 326.000,320.498 326.000 C 320.664 326.000,320.800 326.232,320.800 326.516 C 320.800 326.800,321.520 327.828,322.400 328.800 C 323.280 329.772,324.000 330.811,324.000 331.108 C 324.000 331.404,324.180 331.536,324.400 331.400 C 324.620 331.264,324.800 331.412,324.800 331.728 C 324.800 332.044,325.338 332.526,325.995 332.798 C 326.652 333.070,327.101 333.436,326.993 333.612 C 326.884 333.787,327.336 334.170,327.998 334.463 C 328.659 334.756,329.200 335.131,329.200 335.298 C 329.200 335.464,329.481 335.600,329.824 335.600 C 330.209 335.600,330.337 335.791,330.159 336.100 C 330.001 336.375,330.016 336.470,330.192 336.311 C 330.368 336.151,330.982 336.264,331.556 336.562 C 332.130 336.859,333.140 337.325,333.800 337.598 C 334.460 337.870,335.313 338.252,335.695 338.447 C 336.077 338.641,337.112 338.800,337.995 338.800 C 338.878 338.800,339.600 338.980,339.600 339.200 C 339.600 339.461,345.705 339.600,357.114 339.600 L 374.628 339.600 375.314 340.762 C 375.941 341.824,376.000 343.937,376.000 365.362 L 376.000 388.800 388.018 388.800 L 400.035 388.800 399.918 360.533 C 399.825 338.359,399.692 332.230,399.300 332.100 C 399.025 332.008,398.800 331.714,398.800 331.445 C 398.800 330.712,396.845 326.936,396.181 326.384 C 395.861 326.119,395.600 325.744,395.600 325.551 C 395.600 324.993,389.914 319.455,388.700 318.831 C 388.095 318.519,387.600 318.115,387.600 317.932 C 387.600 317.750,387.418 317.600,387.196 317.600 C 386.806 317.600,383.737 316.324,382.305 315.567 C 381.923 315.365,380.888 315.200,380.005 315.200 C 379.122 315.200,378.400 315.020,378.400 314.800 C 378.400 314.539,372.267 314.400,360.800 314.400 C 350.181 314.400,343.200 314.252,343.200 314.027 C 343.200 313.822,342.840 313.540,342.400 313.400 C 341.646 313.161,341.600 312.795,341.600 306.973 C 341.600 300.590,341.351 299.790,339.780 301.122 M0.071 327.804 C 0.334 328.067,137.673 328.061,137.936 327.798 C 138.044 327.689,107.023 327.600,69.000 327.600 C 30.977 327.600,-0.041 327.692,0.071 327.804 " stroke="none" fill="#dbf0fc" fill-rule="evenodd"></path></g></svg>