<svg id="svg" version="1.1" xmlns="http://www.w3.org/2000/svg" xmlns:xlink="http://www.w3.org/1999/xlink" width="400" height="400" viewBox="0, 0, 400,400"><g id="svgg"><path id="path0" d="M194.400 48.814 C 185.990 49.253,174.386 51.099,169.600 52.760 C 169.050 52.951,167.790 53.329,166.800 53.599 C 165.810 53.870,164.640 54.233,164.200 54.407 C 163.760 54.580,162.320 55.117,161.000 55.600 C 156.844 57.120,154.844 57.982,150.800 59.994 C 145.942 62.410,144.183 63.415,139.000 66.735 C 136.511 68.329,130.526 72.625,130.000 73.194 C 129.890 73.313,128.810 74.214,127.600 75.194 C 123.084 78.855,116.212 86.150,110.200 93.665 C 106.476 98.320,99.792 110.096,97.069 116.800 C 96.059 119.287,95.662 120.253,95.221 121.300 C 95.012 121.795,94.451 123.460,93.974 125.000 C 93.498 126.540,92.949 128.113,92.754 128.495 C 92.559 128.877,92.400 129.631,92.400 130.171 C 92.400 130.711,92.239 131.252,92.042 131.374 C 91.845 131.495,91.590 132.271,91.475 133.097 C 91.360 133.924,91.058 135.410,90.805 136.400 C 90.312 138.324,89.866 140.793,89.142 145.600 C 88.826 147.696,88.645 167.252,88.540 210.500 L 88.390 272.400 126.182 272.400 C 166.228 272.400,165.407 272.440,162.362 270.641 C 161.080 269.884,155.290 265.597,153.600 264.154 C 147.619 259.046,145.592 257.192,141.847 253.406 C 136.485 247.983,129.127 239.512,127.685 237.100 C 127.323 236.495,126.886 236.000,126.714 236.000 C 126.541 236.000,126.400 235.745,126.400 235.433 C 126.400 235.122,126.251 234.807,126.070 234.733 C 125.656 234.566,120.699 227.198,118.310 223.200 C 115.920 219.200,111.685 210.742,110.349 207.300 C 109.637 205.466,109.097 204.181,108.753 203.505 C 108.559 203.123,108.400 202.484,108.400 202.085 C 108.400 201.686,108.251 201.189,108.070 200.980 C 107.888 200.771,107.509 199.790,107.228 198.800 C 106.947 197.810,106.547 196.568,106.339 196.039 C 105.762 194.571,106.119 194.478,113.200 194.241 C 116.830 194.120,121.330 193.840,123.200 193.619 C 125.070 193.398,127.590 193.115,128.800 192.989 C 130.010 192.864,131.360 192.601,131.800 192.406 C 132.240 192.210,133.230 191.957,134.000 191.844 C 136.763 191.438,138.213 191.140,139.000 190.818 C 139.440 190.638,140.610 190.266,141.600 189.992 C 144.896 189.077,146.196 188.640,146.580 188.318 C 146.789 188.143,147.286 188.000,147.684 188.000 C 148.335 188.000,151.065 186.935,152.895 185.967 C 153.277 185.765,153.773 185.600,153.997 185.600 C 154.967 185.600,166.295 179.772,168.862 177.953 C 169.446 177.539,170.041 177.200,170.184 177.200 C 170.468 177.200,175.277 174.014,175.600 173.611 C 175.710 173.474,176.430 172.929,177.200 172.400 C 177.970 171.871,178.690 171.331,178.800 171.201 C 178.910 171.070,180.080 170.136,181.400 169.126 C 185.996 165.609,194.190 157.240,198.661 151.497 C 199.764 150.081,200.294 150.306,202.518 153.137 C 208.287 160.480,217.499 169.104,224.800 173.997 C 226.230 174.956,227.490 175.843,227.600 175.970 C 227.710 176.096,228.250 176.459,228.800 176.776 C 229.350 177.092,230.939 178.048,232.332 178.900 C 239.243 183.125,249.885 187.723,258.000 189.990 C 258.990 190.267,260.250 190.635,260.800 190.808 C 262.026 191.195,264.674 191.797,267.600 192.354 C 268.810 192.585,270.340 192.878,271.000 193.006 C 274.283 193.643,278.870 194.038,285.400 194.246 C 293.954 194.519,294.107 194.627,291.951 198.895 C 291.758 199.277,291.600 199.864,291.600 200.200 C 291.600 200.536,291.434 201.123,291.232 201.505 C 291.030 201.887,290.458 203.280,289.963 204.600 C 289.094 206.912,288.394 208.553,286.163 213.500 C 284.755 216.622,281.080 223.163,278.730 226.729 C 277.669 228.341,276.800 229.811,276.800 229.996 C 276.800 230.182,276.653 230.393,276.472 230.467 C 276.292 230.540,275.362 231.770,274.405 233.200 C 273.449 234.630,272.291 236.267,271.833 236.837 C 271.375 237.408,270.460 238.574,269.800 239.429 C 261.894 249.671,248.911 262.216,239.100 269.094 C 233.985 272.679,231.037 272.400,274.000 272.400 L 312.000 272.400 312.000 213.805 L 312.000 155.210 308.900 155.305 L 305.800 155.400 305.681 153.564 L 305.561 151.727 295.081 151.465 C 289.316 151.320,281.059 151.201,276.731 151.201 C 269.080 151.200,268.830 151.174,267.731 150.268 C 262.002 145.544,249.986 138.710,242.000 135.634 C 240.130 134.913,238.240 134.166,237.800 133.973 C 231.402 131.164,216.307 128.226,205.400 127.667 L 200.200 127.400 200.097 97.042 L 199.995 66.683 205.497 66.949 C 213.952 67.357,221.465 68.532,229.381 70.684 C 242.522 74.257,253.461 79.438,265.136 87.621 L 269.673 90.800 278.370 90.800 C 283.153 90.800,287.182 90.684,287.324 90.543 C 287.734 90.133,280.780 82.604,275.169 77.382 C 266.705 69.506,252.746 60.690,242.600 56.813 C 242.160 56.645,241.350 56.322,240.800 56.096 C 237.307 54.662,235.402 54.000,234.770 54.000 C 234.373 54.000,233.949 53.841,233.829 53.646 C 233.708 53.451,233.113 53.199,232.505 53.084 C 231.897 52.970,229.960 52.497,228.200 52.034 C 222.425 50.515,216.820 49.544,209.516 48.797 C 205.344 48.371,202.838 48.373,194.400 48.814 " stroke="none" fill="#935631" fill-rule="evenodd"></path><path id="path1" d="M197.800 153.694 C 193.392 159.184,186.846 165.533,178.721 172.199 C 172.971 176.917,159.552 184.360,151.000 187.576 C 149.680 188.072,148.240 188.621,147.800 188.795 C 146.129 189.458,141.412 190.859,138.200 191.645 C 134.057 192.659,133.243 192.835,131.000 193.205 C 123.971 194.361,119.570 194.790,113.700 194.890 C 106.122 195.018,106.355 194.784,108.415 200.200 C 108.582 200.640,108.936 201.630,109.200 202.400 C 109.464 203.170,109.843 204.205,110.040 204.700 C 110.238 205.195,110.562 206.005,110.759 206.500 C 113.740 213.968,123.484 231.511,125.589 233.200 C 125.726 233.310,126.272 234.030,126.803 234.800 C 131.319 241.360,144.727 255.982,150.644 260.800 C 151.859 261.790,153.158 262.870,153.529 263.200 C 154.635 264.182,160.454 268.559,162.500 269.949 L 164.400 271.238 164.400 295.012 L 164.400 318.785 163.322 319.055 C 162.729 319.204,151.974 319.206,139.422 319.059 C 113.720 318.757,107.418 319.184,102.200 321.577 C 101.760 321.779,100.140 322.525,98.600 323.234 C 86.763 328.689,77.460 340.567,75.132 353.200 C 74.909 354.410,74.578 355.581,74.396 355.801 C 74.214 356.023,74.319 356.549,74.633 356.978 C 74.945 357.404,75.200 357.630,75.200 357.480 C 75.200 357.175,76.235 357.971,78.345 359.900 C 79.127 360.615,79.999 361.200,80.283 361.200 C 80.568 361.200,80.800 361.341,80.800 361.514 C 80.800 361.686,81.345 362.149,82.011 362.543 C 82.677 362.936,83.659 363.695,84.193 364.229 C 84.727 364.763,85.442 365.200,85.782 365.200 C 86.122 365.200,86.400 365.350,86.400 365.532 C 86.400 365.715,86.895 366.119,87.500 366.430 C 88.105 366.740,88.870 367.266,89.200 367.597 C 89.530 367.929,90.070 368.258,90.400 368.330 C 90.730 368.401,91.060 368.626,91.133 368.830 C 91.207 369.033,91.532 369.200,91.857 369.200 C 92.201 369.200,92.328 369.392,92.162 369.662 C 91.993 369.936,92.051 370.015,92.306 369.858 C 92.542 369.712,93.007 369.864,93.339 370.196 C 93.671 370.528,94.136 370.800,94.371 370.800 C 94.607 370.800,94.800 370.952,94.800 371.137 C 94.800 371.323,95.655 371.907,96.700 372.435 C 97.745 372.964,99.210 373.802,99.956 374.298 C 100.702 374.794,101.647 375.200,102.056 375.200 C 102.465 375.200,102.800 375.380,102.800 375.600 C 102.800 375.820,103.160 376.000,103.600 376.000 C 104.040 376.000,104.400 376.180,104.400 376.400 C 104.400 376.620,104.760 376.800,105.200 376.800 C 105.640 376.800,106.000 376.952,106.000 377.137 C 106.000 377.323,106.855 377.908,107.900 378.437 C 108.945 378.967,109.860 379.535,109.933 379.700 C 110.007 379.865,110.412 380.000,110.833 380.000 C 111.255 380.000,111.600 380.180,111.600 380.400 C 111.600 380.620,111.960 380.800,112.400 380.800 C 112.840 380.800,113.200 380.980,113.200 381.200 C 113.200 381.420,113.560 381.600,114.000 381.600 C 114.440 381.600,114.800 381.780,114.800 382.000 C 114.800 382.220,115.250 382.400,115.800 382.400 C 116.350 382.400,116.800 382.580,116.800 382.800 C 116.800 383.020,117.065 383.200,117.388 383.200 C 117.711 383.200,118.617 383.560,119.400 384.000 C 120.183 384.440,121.179 384.800,121.612 384.800 C 122.045 384.800,122.400 384.980,122.400 385.200 C 122.400 385.420,122.760 385.600,123.200 385.600 C 123.640 385.600,124.000 385.780,124.000 386.000 C 124.000 386.220,124.540 386.400,125.200 386.400 C 125.860 386.400,126.400 386.580,126.400 386.800 C 126.400 387.020,126.672 387.200,127.005 387.200 C 127.338 387.200,127.923 387.359,128.305 387.553 C 128.687 387.748,129.540 388.129,130.200 388.400 C 130.860 388.671,131.713 389.052,132.095 389.247 C 132.477 389.441,133.141 389.600,133.571 389.600 C 134.001 389.600,134.464 389.780,134.600 390.000 C 134.736 390.220,135.251 390.400,135.744 390.400 C 136.237 390.400,136.830 390.590,137.063 390.823 C 137.296 391.056,138.497 391.350,139.733 391.478 C 140.968 391.605,141.883 391.865,141.766 392.055 C 141.649 392.245,142.103 392.400,142.776 392.400 C 143.449 392.400,144.000 392.580,144.000 392.800 C 144.000 393.020,144.529 393.200,145.176 393.200 C 145.823 393.200,146.452 393.361,146.574 393.558 C 146.782 393.894,147.810 394.105,151.899 394.653 C 152.833 394.778,153.497 395.042,153.375 395.240 C 153.253 395.438,153.973 395.600,154.976 395.600 C 155.979 395.600,156.800 395.780,156.800 396.000 C 156.800 396.220,157.599 396.400,158.576 396.400 C 159.553 396.400,160.464 396.580,160.600 396.800 C 160.736 397.020,161.546 397.200,162.400 397.200 C 163.254 397.200,164.064 397.380,164.200 397.600 C 164.336 397.820,165.517 398.000,166.824 398.000 C 168.141 398.000,169.200 398.178,169.200 398.400 C 169.200 398.628,170.389 398.800,171.967 398.800 C 173.824 398.800,174.788 398.964,174.900 399.300 C 175.031 399.693,180.352 399.800,199.713 399.800 C 218.897 399.800,224.471 399.689,224.860 399.300 C 225.153 399.007,226.393 398.800,227.856 398.800 C 229.229 398.800,230.464 398.620,230.600 398.400 C 230.736 398.180,231.906 398.000,233.200 398.000 C 234.494 398.000,235.664 397.820,235.800 397.600 C 235.936 397.380,236.656 397.200,237.400 397.200 C 238.144 397.200,238.864 397.020,239.000 396.800 C 239.136 396.580,240.137 396.400,241.224 396.400 C 242.311 396.400,243.200 396.220,243.200 396.000 C 243.200 395.780,243.995 395.600,244.967 395.600 C 245.938 395.600,246.793 395.429,246.867 395.220 C 246.940 395.011,247.754 394.797,248.676 394.743 C 249.598 394.690,250.262 394.501,250.153 394.323 C 250.043 394.145,250.493 394.000,251.153 394.000 C 251.813 394.000,252.464 393.820,252.600 393.600 C 252.736 393.380,253.567 393.200,254.447 393.200 C 255.412 393.200,255.949 393.041,255.800 392.800 C 255.656 392.567,256.055 392.400,256.753 392.400 C 257.413 392.400,258.049 392.244,258.167 392.053 C 258.285 391.862,259.302 391.583,260.426 391.434 C 261.550 391.285,262.769 391.001,263.135 390.803 C 264.454 390.088,269.543 388.477,269.769 388.702 C 269.896 388.829,270.000 388.743,270.000 388.511 C 270.000 388.278,270.810 387.849,271.800 387.557 C 272.790 387.265,273.600 386.885,273.600 386.713 C 273.600 386.541,274.039 386.400,274.576 386.400 C 275.113 386.400,275.664 386.220,275.800 386.000 C 275.936 385.780,276.397 385.600,276.824 385.600 C 277.251 385.600,277.600 385.450,277.600 385.267 C 277.600 385.083,277.870 384.903,278.200 384.867 C 278.530 384.830,279.070 384.770,279.400 384.733 C 279.730 384.697,280.000 384.561,280.000 384.431 C 280.000 384.301,280.495 383.991,281.100 383.742 C 281.705 383.493,282.785 383.045,283.500 382.747 C 284.215 382.449,284.800 382.069,284.800 381.902 C 284.800 381.736,285.053 381.600,285.362 381.600 C 285.916 381.600,289.210 380.020,289.600 379.568 C 289.710 379.440,290.385 379.081,291.100 378.770 C 291.815 378.459,292.400 378.069,292.400 377.902 C 292.400 377.736,292.760 377.600,293.200 377.600 C 293.640 377.600,294.000 377.420,294.000 377.200 C 294.000 376.980,294.360 376.800,294.800 376.800 C 295.240 376.800,295.600 376.620,295.600 376.400 C 295.600 376.180,295.960 376.000,296.400 376.000 C 296.840 376.000,297.200 375.842,297.200 375.650 C 297.200 375.457,297.718 375.196,298.352 375.070 C 298.985 374.943,299.795 374.548,300.152 374.191 C 300.508 373.835,300.800 373.653,300.800 373.787 C 300.800 373.921,301.194 373.664,301.675 373.216 C 302.157 372.767,302.862 372.400,303.242 372.400 C 303.622 372.400,303.993 372.265,304.067 372.100 C 304.275 371.631,309.075 368.400,309.564 368.400 C 309.804 368.400,310.000 368.220,310.000 368.000 C 310.000 367.780,310.270 367.600,310.600 367.600 C 310.930 367.600,311.200 367.420,311.200 367.200 C 311.200 366.980,311.425 366.800,311.700 366.799 C 311.975 366.799,312.830 366.259,313.600 365.600 C 314.370 364.941,315.185 364.401,315.412 364.401 C 315.638 364.400,316.083 364.040,316.400 363.600 C 316.717 363.160,317.180 362.800,317.429 362.800 C 317.678 362.800,318.446 362.260,319.137 361.600 C 319.828 360.940,320.574 360.400,320.796 360.400 C 321.018 360.400,321.200 360.262,321.200 360.094 C 321.200 359.926,321.920 359.344,322.800 358.800 C 323.680 358.256,324.400 357.663,324.400 357.482 C 324.400 357.301,324.588 357.269,324.818 357.411 C 325.677 357.942,324.813 353.054,323.119 347.800 C 320.465 339.564,314.304 331.540,306.800 326.545 C 303.602 324.417,298.843 322.000,297.849 322.000 C 297.518 322.000,297.151 321.844,297.033 321.654 C 296.916 321.464,296.230 321.197,295.510 321.061 C 294.789 320.925,293.030 320.517,291.600 320.155 C 289.372 319.591,285.197 319.462,262.400 319.249 L 235.800 319.000 235.697 294.951 L 235.594 270.903 240.297 267.383 C 242.884 265.447,245.090 263.749,245.200 263.609 C 245.310 263.468,245.815 263.070,246.322 262.724 C 249.630 260.464,261.159 249.027,265.600 243.600 C 266.590 242.390,267.500 241.310,267.622 241.200 C 268.159 240.717,273.204 233.964,274.795 231.600 C 275.757 230.170,276.692 228.940,276.872 228.867 C 277.053 228.793,277.200 228.556,277.200 228.339 C 277.200 228.122,277.740 227.159,278.400 226.200 C 279.060 225.241,279.600 224.372,279.600 224.269 C 279.600 224.166,280.328 222.883,281.218 221.418 C 283.130 218.272,286.648 211.190,287.985 207.800 C 288.505 206.480,289.048 205.220,289.191 205.000 C 289.334 204.780,289.877 203.250,290.398 201.600 C 290.918 199.950,291.492 198.429,291.672 198.220 C 291.852 198.011,292.000 197.246,292.000 196.520 L 292.000 195.200 289.700 195.172 C 281.065 195.069,272.363 194.106,264.600 192.396 C 263.500 192.154,262.013 191.856,261.296 191.734 C 260.579 191.612,259.894 191.351,259.773 191.156 C 259.652 190.960,259.180 190.800,258.724 190.800 C 257.848 190.800,251.086 188.642,249.905 187.986 C 249.523 187.774,249.030 187.600,248.808 187.600 C 247.536 187.600,234.563 181.244,231.538 179.139 C 230.954 178.733,230.279 178.400,230.038 178.400 C 229.797 178.400,229.600 178.232,229.600 178.027 C 229.600 177.822,229.262 177.547,228.849 177.416 C 228.436 177.284,227.581 176.733,226.949 176.189 C 226.317 175.646,225.575 175.201,225.300 175.200 C 225.025 175.200,224.800 175.059,224.800 174.886 C 224.800 174.714,224.284 174.267,223.652 173.895 C 219.215 171.273,209.165 162.010,203.261 155.100 C 201.428 152.955,199.900 151.201,199.865 151.201 C 199.829 151.202,198.900 152.324,197.800 153.694 " stroke="none" fill="#fbcaba" fill-rule="evenodd"></path><path id="path2" d="M178.300 0.274 C 176.375 0.360,174.800 0.589,174.800 0.783 C 174.800 0.976,173.585 1.232,172.100 1.352 C 167.240 1.744,165.006 2.068,164.620 2.437 C 164.411 2.637,163.286 2.800,162.120 2.800 C 160.954 2.800,160.000 2.980,160.000 3.200 C 160.000 3.420,159.201 3.600,158.224 3.600 C 157.247 3.600,156.336 3.780,156.200 4.000 C 156.064 4.220,155.243 4.400,154.376 4.400 C 153.509 4.400,152.800 4.580,152.800 4.800 C 152.800 5.020,152.181 5.200,151.424 5.200 C 150.667 5.200,149.936 5.380,149.800 5.600 C 149.664 5.820,148.933 6.000,148.176 6.000 C 147.419 6.000,146.800 6.180,146.800 6.400 C 146.800 6.620,146.271 6.800,145.624 6.800 C 144.977 6.800,144.336 6.980,144.200 7.200 C 144.064 7.420,143.434 7.600,142.800 7.600 C 142.166 7.600,141.536 7.780,141.400 8.000 C 141.264 8.220,140.634 8.400,140.000 8.400 C 139.366 8.400,138.728 8.592,138.583 8.827 C 138.438 9.062,138.088 9.166,137.805 9.057 C 137.523 8.949,136.956 9.090,136.546 9.371 C 136.136 9.652,135.530 9.889,135.200 9.897 C 134.324 9.918,128.223 12.143,128.067 12.498 C 127.993 12.664,127.408 12.800,126.767 12.800 C 126.125 12.800,125.600 12.980,125.600 13.200 C 125.600 13.420,125.240 13.600,124.800 13.600 C 124.360 13.600,124.000 13.780,124.000 14.000 C 124.000 14.220,123.645 14.400,123.212 14.400 C 122.779 14.400,121.783 14.760,121.000 15.200 C 120.217 15.640,119.311 16.000,118.988 16.000 C 118.665 16.000,118.400 16.180,118.400 16.400 C 118.400 16.620,118.029 16.800,117.576 16.800 C 117.123 16.800,116.864 16.980,117.000 17.200 C 117.141 17.428,116.796 17.600,116.200 17.600 C 115.624 17.600,115.236 17.735,115.338 17.900 C 115.440 18.065,115.051 18.228,114.474 18.263 C 113.897 18.298,113.359 18.523,113.279 18.763 C 113.199 19.003,112.788 19.200,112.367 19.200 C 111.945 19.200,111.600 19.380,111.600 19.600 C 111.600 19.820,111.240 20.000,110.800 20.000 C 110.360 20.000,110.000 20.180,110.000 20.400 C 110.000 20.620,109.640 20.800,109.200 20.800 C 108.760 20.800,108.400 20.980,108.400 21.200 C 108.400 21.420,108.040 21.600,107.600 21.600 C 107.160 21.600,106.800 21.780,106.800 22.000 C 106.800 22.220,106.395 22.403,105.900 22.406 C 105.172 22.411,105.115 22.486,105.600 22.800 C 106.068 23.102,105.957 23.189,105.100 23.194 C 104.495 23.197,104.000 23.380,104.000 23.600 C 104.000 23.820,103.730 24.000,103.400 24.000 C 103.070 24.000,102.800 24.180,102.800 24.400 C 102.800 24.620,102.440 24.800,102.000 24.800 C 101.560 24.800,101.200 24.980,101.200 25.200 C 101.200 25.420,100.912 25.600,100.560 25.600 C 99.892 25.600,95.099 28.378,94.867 28.900 C 94.793 29.065,94.478 29.200,94.167 29.200 C 93.855 29.200,93.600 29.358,93.600 29.551 C 93.600 29.745,93.060 30.127,92.400 30.400 C 91.740 30.673,91.200 31.055,91.200 31.249 C 91.200 31.442,90.964 31.600,90.675 31.600 C 90.387 31.600,89.764 31.960,89.292 32.400 C 88.820 32.840,88.196 33.200,87.905 33.200 C 87.614 33.200,87.117 33.560,86.800 34.000 C 86.483 34.440,86.038 34.800,85.812 34.801 C 85.585 34.801,84.770 35.341,84.000 36.000 C 83.230 36.659,82.415 37.199,82.188 37.199 C 81.962 37.200,81.517 37.560,81.200 38.000 C 80.883 38.440,80.485 38.800,80.316 38.800 C 80.042 38.800,79.218 39.403,77.855 40.600 C 77.605 40.820,76.680 41.535,75.800 42.188 C 74.920 42.841,73.851 43.696,73.425 44.088 C 72.998 44.480,72.520 44.800,72.361 44.800 C 72.203 44.800,71.271 45.565,70.290 46.500 C 68.218 48.474,66.875 49.600,66.590 49.600 C 66.480 49.600,64.680 51.310,62.590 53.400 C 60.500 55.490,58.919 57.200,59.076 57.200 C 59.234 57.200,58.952 57.515,58.451 57.900 C 57.292 58.790,49.600 66.354,49.600 66.604 C 49.600 66.892,48.373 68.332,46.489 70.254 C 45.549 71.214,44.887 72.000,45.018 72.000 C 45.150 72.000,45.019 72.264,44.729 72.586 C 44.014 73.378,43.583 73.922,42.188 75.792 C 40.692 77.797,39.934 78.748,39.300 79.416 C 39.025 79.706,38.800 80.096,38.800 80.283 C 38.800 80.470,38.440 80.883,38.000 81.200 C 37.560 81.517,37.200 82.025,37.200 82.328 C 37.200 82.631,36.660 83.383,36.000 84.000 C 35.340 84.617,34.800 85.369,34.800 85.672 C 34.800 85.975,34.440 86.483,34.000 86.800 C 33.560 87.117,33.200 87.697,33.200 88.088 C 33.200 88.480,33.050 88.800,32.868 88.800 C 32.685 88.800,32.280 89.295,31.968 89.900 C 31.656 90.505,31.311 91.090,31.201 91.200 C 30.600 91.799,29.200 94.027,29.200 94.384 C 29.200 94.613,29.049 94.800,28.864 94.800 C 28.358 94.800,27.551 96.797,27.857 97.292 C 28.016 97.550,27.936 97.608,27.659 97.436 C 27.390 97.270,27.078 97.455,26.920 97.875 C 26.768 98.274,26.410 98.838,26.122 99.129 C 25.835 99.419,25.600 100.004,25.600 100.429 C 25.600 100.853,25.420 101.200,25.200 101.200 C 24.980 101.200,24.800 101.560,24.800 102.000 C 24.800 102.440,24.620 102.800,24.400 102.800 C 24.180 102.800,24.000 103.070,24.000 103.400 C 24.000 103.730,23.854 104.000,23.675 104.000 C 23.496 104.000,23.102 104.630,22.800 105.400 C 22.498 106.170,22.104 106.800,21.925 106.800 C 21.746 106.800,21.600 107.160,21.600 107.600 C 21.600 108.040,21.420 108.400,21.200 108.400 C 20.980 108.400,20.800 108.760,20.800 109.200 C 20.800 109.640,20.620 110.000,20.400 110.000 C 20.180 110.000,20.000 110.360,20.000 110.800 C 20.000 111.240,19.820 111.600,19.600 111.600 C 19.380 111.600,19.200 111.960,19.200 112.400 C 19.200 112.840,19.020 113.200,18.800 113.200 C 18.580 113.200,18.400 113.389,18.400 113.619 C 18.400 113.850,18.040 114.784,17.600 115.694 C 17.160 116.605,16.800 117.586,16.800 117.875 C 16.800 118.164,16.620 118.400,16.400 118.400 C 16.180 118.400,16.000 118.636,16.000 118.925 C 16.000 119.214,15.640 120.195,15.200 121.106 C 14.760 122.016,14.400 123.040,14.400 123.381 C 14.400 123.721,14.220 124.000,14.000 124.000 C 13.780 124.000,13.600 124.360,13.600 124.800 C 13.600 125.240,13.420 125.600,13.200 125.600 C 12.980 125.600,12.800 126.140,12.800 126.800 C 12.800 127.460,12.659 128.000,12.487 128.000 C 12.315 128.000,11.929 128.855,11.629 129.900 C 11.329 130.945,10.955 131.980,10.797 132.200 C 10.442 132.695,9.843 134.884,9.942 135.322 C 9.982 135.499,9.742 136.032,9.410 136.507 C 9.077 136.982,8.690 138.237,8.550 139.295 C 8.409 140.352,8.138 141.315,7.947 141.433 C 7.756 141.551,7.600 142.166,7.600 142.800 C 7.600 143.434,7.420 144.064,7.200 144.200 C 6.980 144.336,6.800 144.876,6.800 145.400 C 6.800 145.924,6.620 146.464,6.400 146.600 C 6.180 146.736,6.000 147.456,6.000 148.200 C 6.000 148.944,5.820 149.664,5.600 149.800 C 5.380 149.936,5.200 150.667,5.200 151.424 C 5.200 152.181,5.020 152.800,4.800 152.800 C 4.580 152.800,4.400 153.700,4.400 154.800 C 4.400 155.900,4.220 156.800,4.000 156.800 C 3.780 156.800,3.600 157.509,3.600 158.376 C 3.600 159.243,3.420 160.064,3.200 160.200 C 2.980 160.336,2.800 161.236,2.800 162.200 C 2.800 163.164,2.620 164.064,2.400 164.200 C 2.180 164.336,2.000 165.517,2.000 166.824 C 2.000 168.141,1.822 169.200,1.600 169.200 C 1.376 169.200,1.200 170.307,1.200 171.720 C 1.200 173.203,0.994 174.446,0.700 174.740 C -0.143 175.583,-0.002 225.200,0.843 225.200 C 1.040 225.200,1.200 226.449,1.200 227.976 C 1.200 229.503,1.380 230.864,1.600 231.000 C 1.820 231.136,2.000 232.216,2.000 233.400 C 2.000 234.584,2.180 235.664,2.400 235.800 C 2.620 235.936,2.800 236.836,2.800 237.800 C 2.800 238.764,2.980 239.664,3.200 239.800 C 3.420 239.936,3.600 240.746,3.600 241.600 C 3.600 242.454,3.780 243.264,4.000 243.400 C 4.220 243.536,4.400 244.432,4.400 245.390 C 4.400 246.349,4.591 247.197,4.824 247.275 C 5.057 247.352,5.265 248.004,5.285 248.722 C 5.306 249.441,5.475 250.123,5.661 250.238 C 5.848 250.353,6.000 251.067,6.000 251.824 C 6.000 252.581,6.180 253.200,6.400 253.200 C 6.620 253.200,6.800 253.830,6.800 254.600 C 6.800 255.370,6.980 256.000,7.200 256.000 C 7.420 256.000,7.600 256.529,7.600 257.176 C 7.600 257.823,7.756 258.449,7.947 258.567 C 8.138 258.685,8.413 259.678,8.559 260.774 C 8.704 261.870,9.079 263.022,9.392 263.335 C 9.706 263.649,9.867 263.999,9.752 264.115 C 9.489 264.377,11.288 269.751,11.699 269.933 C 11.865 270.007,12.000 270.502,12.000 271.033 C 12.000 271.565,12.180 272.000,12.400 272.000 C 12.620 272.000,12.800 272.439,12.800 272.976 C 12.800 273.513,12.980 274.064,13.200 274.200 C 13.420 274.336,13.600 274.797,13.600 275.224 C 13.600 275.651,13.780 276.000,14.000 276.000 C 14.220 276.000,14.400 276.279,14.400 276.619 C 14.400 276.960,14.760 277.984,15.200 278.894 C 15.640 279.805,16.000 280.786,16.000 281.075 C 16.000 281.364,16.180 281.600,16.400 281.600 C 16.620 281.600,16.800 281.960,16.800 282.400 C 16.800 282.840,16.980 283.200,17.200 283.200 C 17.420 283.200,17.600 283.650,17.600 284.200 C 17.600 284.750,17.780 285.200,18.000 285.200 C 18.220 285.200,18.400 285.560,18.400 286.000 C 18.400 286.440,18.580 286.800,18.800 286.800 C 19.020 286.800,19.200 287.034,19.200 287.320 C 19.200 288.056,20.141 289.993,20.500 289.997 C 20.665 289.999,20.800 290.360,20.800 290.800 C 20.800 291.240,20.935 291.601,21.100 291.603 C 21.465 291.607,22.400 293.549,22.400 294.303 C 22.400 294.602,22.550 294.755,22.732 294.642 C 22.915 294.529,23.309 295.058,23.607 295.818 C 23.905 296.578,24.296 297.200,24.475 297.200 C 24.654 297.200,24.806 297.515,24.813 297.900 C 24.829 298.791,25.789 300.077,26.161 299.706 C 26.316 299.551,26.328 299.721,26.189 300.084 C 26.032 300.493,26.516 301.626,27.468 303.075 C 28.311 304.358,29.269 305.946,29.597 306.604 C 29.926 307.262,30.511 308.091,30.897 308.447 C 31.284 308.803,31.600 309.348,31.600 309.659 C 31.600 309.969,31.960 310.483,32.400 310.800 C 32.840 311.117,33.200 311.654,33.200 311.993 C 33.200 312.333,33.647 312.946,34.192 313.355 C 34.738 313.765,35.091 314.252,34.977 314.438 C 34.862 314.623,35.316 315.347,35.984 316.047 C 36.653 316.746,37.200 317.562,37.200 317.859 C 37.200 318.157,37.481 318.400,37.824 318.400 C 38.167 318.400,38.336 318.580,38.200 318.800 C 38.064 319.020,38.143 319.200,38.376 319.200 C 38.609 319.200,38.800 319.470,38.800 319.800 C 38.800 320.130,38.980 320.400,39.200 320.400 C 39.420 320.400,39.600 320.681,39.600 321.024 C 39.600 321.367,39.780 321.536,40.000 321.400 C 40.220 321.264,40.400 321.433,40.400 321.776 C 40.400 322.119,40.580 322.400,40.800 322.400 C 41.020 322.400,41.200 322.582,41.200 322.804 C 41.200 323.026,41.695 323.726,42.300 324.360 C 42.905 324.994,44.120 326.513,45.000 327.736 C 45.880 328.959,46.999 330.176,47.486 330.440 C 47.974 330.704,48.278 331.073,48.163 331.260 C 48.047 331.447,48.131 331.600,48.349 331.600 C 48.568 331.600,48.861 331.963,49.002 332.406 C 49.143 332.849,49.425 333.108,49.629 332.982 C 49.833 332.856,50.000 333.022,50.000 333.351 C 50.000 333.976,57.393 341.600,57.999 341.600 C 58.190 341.600,58.460 341.960,58.600 342.400 C 58.740 342.840,59.142 343.200,59.494 343.200 C 59.845 343.200,60.026 343.307,59.895 343.438 C 59.636 343.698,66.243 350.400,66.759 350.400 C 66.933 350.400,67.402 350.760,67.800 351.200 C 68.198 351.640,68.796 352.000,69.129 352.000 C 69.461 352.000,69.624 352.109,69.491 352.242 C 69.106 352.628,72.842 356.000,73.654 356.000 C 73.844 356.000,74.000 355.370,74.000 354.600 C 74.000 353.830,74.180 353.200,74.400 353.200 C 74.620 353.200,74.800 352.491,74.800 351.624 C 74.800 350.757,74.980 349.936,75.200 349.800 C 75.420 349.664,75.600 349.124,75.600 348.600 C 75.600 348.076,75.780 347.536,76.000 347.400 C 76.220 347.264,76.400 346.713,76.400 346.176 C 76.400 345.639,76.580 345.200,76.800 345.200 C 77.020 345.200,77.200 344.926,77.200 344.590 C 77.200 341.654,85.002 331.067,89.319 328.145 C 90.244 327.519,91.291 326.690,91.647 326.303 C 92.003 325.917,92.505 325.600,92.764 325.600 C 93.022 325.600,93.620 325.240,94.092 324.800 C 94.564 324.360,95.187 324.000,95.475 324.000 C 95.764 324.000,96.000 323.820,96.000 323.600 C 96.000 323.380,96.360 323.200,96.800 323.200 C 97.240 323.200,97.600 323.020,97.600 322.800 C 97.600 322.580,97.960 322.400,98.400 322.400 C 98.840 322.400,99.200 322.220,99.200 322.000 C 99.200 321.780,99.549 321.600,99.976 321.600 C 100.403 321.600,100.864 321.420,101.000 321.200 C 101.136 320.980,101.676 320.800,102.200 320.800 C 102.724 320.800,103.264 320.620,103.400 320.400 C 103.536 320.180,104.141 320.000,104.744 320.000 C 105.347 320.000,106.011 319.838,106.220 319.641 C 107.120 318.791,111.658 318.664,137.100 318.782 L 164.000 318.906 164.000 295.853 L 164.000 272.800 125.785 272.800 L 87.569 272.800 87.722 211.100 C 87.829 167.644,88.007 148.690,88.325 147.000 C 88.573 145.680,88.968 143.340,89.204 141.800 C 89.439 140.260,89.805 138.235,90.016 137.300 C 90.944 133.190,91.296 131.737,91.590 130.800 C 91.762 130.250,92.304 128.450,92.793 126.800 C 93.282 125.150,93.844 123.487,94.041 123.105 C 94.238 122.723,94.400 122.226,94.400 122.001 C 94.400 121.776,94.739 120.828,95.153 119.896 C 95.567 118.963,96.141 117.570,96.428 116.800 C 103.158 98.776,119.704 78.984,138.802 66.111 C 140.462 64.992,141.170 64.569,144.900 62.468 C 155.620 56.428,168.849 51.673,180.200 49.780 C 205.441 45.571,229.760 49.226,251.534 60.502 C 253.660 61.603,255.804 62.706,256.297 62.952 C 256.790 63.198,257.195 63.535,257.197 63.700 C 257.199 63.865,257.391 64.000,257.624 64.000 C 260.636 64.000,283.983 83.986,287.065 89.202 L 287.772 90.400 296.464 90.400 L 305.156 90.400 305.278 88.500 L 305.400 86.600 307.799 86.477 C 310.000 86.364,316.278 87.550,317.975 88.400 C 318.319 88.572,319.500 89.131,320.600 89.642 C 328.216 93.182,335.121 100.480,337.971 108.000 C 339.599 112.296,338.763 111.958,349.000 112.456 C 353.180 112.660,359.390 112.991,362.800 113.193 C 376.854 114.023,380.271 114.112,381.039 113.666 C 381.458 113.423,381.575 113.219,381.300 113.212 C 381.025 113.205,380.800 112.966,380.800 112.680 C 380.800 111.944,379.859 110.007,379.500 110.003 C 379.335 110.001,379.200 109.640,379.200 109.200 C 379.200 108.760,379.054 108.400,378.875 108.400 C 378.696 108.400,378.302 107.770,378.000 107.000 C 377.698 106.230,377.324 105.600,377.169 105.600 C 377.014 105.600,376.777 105.163,376.643 104.628 C 376.509 104.093,376.119 103.376,375.778 103.035 C 375.436 102.693,375.083 102.032,374.993 101.565 C 374.828 100.708,374.641 100.369,371.654 95.507 C 370.744 94.026,370.000 92.671,370.000 92.496 C 370.000 92.320,369.640 91.917,369.200 91.600 C 368.760 91.283,368.400 90.827,368.400 90.587 C 368.400 90.347,368.085 89.802,367.700 89.375 C 367.315 88.949,366.745 88.105,366.432 87.500 C 366.120 86.895,365.715 86.400,365.532 86.400 C 365.350 86.400,365.200 86.128,365.200 85.796 C 365.200 85.464,364.660 84.628,364.000 83.937 C 363.340 83.246,362.800 82.481,362.800 82.237 C 362.800 81.992,362.440 81.568,362.000 81.293 C 361.560 81.018,361.200 80.602,361.200 80.368 C 361.200 79.731,360.141 78.797,359.783 79.119 C 359.612 79.274,359.587 79.198,359.727 78.952 C 359.868 78.706,359.537 77.986,358.992 77.352 C 358.447 76.718,358.001 76.103,358.000 75.984 C 358.000 75.865,357.280 74.972,356.400 74.000 C 355.520 73.028,354.800 72.110,354.800 71.962 C 354.800 71.813,353.810 70.636,352.600 69.346 C 351.390 68.056,350.400 66.863,350.400 66.695 C 350.400 66.190,343.692 59.642,343.436 59.897 C 343.306 60.027,343.200 59.845,343.200 59.494 C 343.200 59.142,342.840 58.740,342.400 58.600 C 341.960 58.460,341.600 58.200,341.600 58.022 C 341.600 57.549,335.319 51.200,334.851 51.200 C 334.633 51.200,334.352 50.885,334.228 50.500 C 334.004 49.806,331.676 48.189,331.100 48.328 C 330.935 48.368,330.800 48.258,330.800 48.083 C 330.800 47.909,330.170 47.099,329.400 46.282 C 328.630 45.466,328.000 44.901,328.000 45.028 C 328.000 45.154,327.752 45.019,327.449 44.729 C 327.146 44.438,326.491 43.930,325.994 43.600 C 325.497 43.270,324.673 42.595,324.163 42.100 C 323.653 41.605,323.137 41.200,323.015 41.200 C 322.893 41.200,322.228 40.660,321.537 40.000 C 320.846 39.340,320.078 38.800,319.829 38.800 C 319.580 38.800,319.117 38.440,318.800 38.000 C 318.483 37.560,318.020 37.200,317.771 37.200 C 317.522 37.200,316.754 36.660,316.063 36.000 C 315.372 35.340,314.536 34.800,314.204 34.800 C 313.872 34.800,313.600 34.650,313.600 34.468 C 313.600 34.285,313.105 33.881,312.500 33.570 C 311.895 33.260,311.109 32.689,310.753 32.303 C 310.397 31.916,309.878 31.600,309.600 31.600 C 309.322 31.600,308.771 31.228,308.377 30.774 C 307.983 30.319,307.602 29.990,307.530 30.042 C 307.459 30.094,306.680 29.683,305.800 29.128 C 304.920 28.574,303.570 27.798,302.800 27.404 C 302.030 27.011,301.310 26.564,301.200 26.413 C 300.900 25.999,298.350 24.800,297.772 24.800 C 297.494 24.800,297.207 24.665,297.133 24.500 C 296.966 24.124,294.836 22.825,293.900 22.529 C 293.515 22.407,293.200 22.148,293.200 21.953 C 293.200 21.759,292.928 21.600,292.595 21.600 C 292.039 21.600,290.478 20.878,290.000 20.400 C 289.522 19.922,287.961 19.200,287.405 19.200 C 287.072 19.200,286.800 19.020,286.800 18.800 C 286.800 18.580,286.451 18.400,286.024 18.400 C 285.597 18.400,285.136 18.220,285.000 18.000 C 284.864 17.780,284.403 17.600,283.976 17.600 C 283.549 17.600,283.200 17.420,283.200 17.200 C 283.200 16.980,282.840 16.800,282.400 16.800 C 281.960 16.800,281.600 16.620,281.600 16.400 C 281.600 16.180,281.240 16.000,280.800 16.000 C 280.360 16.000,280.000 15.820,280.000 15.600 C 280.000 15.380,279.651 15.200,279.224 15.200 C 278.797 15.200,278.336 15.020,278.200 14.800 C 278.064 14.580,277.513 14.400,276.976 14.400 C 276.439 14.400,276.000 14.220,276.000 14.000 C 276.000 13.780,275.640 13.600,275.200 13.600 C 274.760 13.600,274.400 13.420,274.400 13.200 C 274.400 12.980,273.961 12.800,273.424 12.800 C 272.887 12.800,272.336 12.620,272.200 12.400 C 272.064 12.180,271.549 12.000,271.056 12.000 C 270.563 12.000,269.989 11.835,269.780 11.633 C 269.206 11.079,260.931 8.400,259.794 8.400 C 259.247 8.400,258.800 8.220,258.800 8.000 C 258.800 7.780,258.181 7.600,257.424 7.600 C 256.667 7.600,255.936 7.420,255.800 7.200 C 255.664 6.980,255.023 6.800,254.376 6.800 C 253.729 6.800,253.200 6.620,253.200 6.400 C 253.200 6.180,252.570 6.000,251.800 6.000 C 251.030 6.000,250.400 5.820,250.400 5.600 C 250.400 5.380,249.680 5.200,248.800 5.200 C 247.920 5.200,247.200 5.020,247.200 4.800 C 247.200 4.580,246.300 4.400,245.200 4.400 C 244.100 4.400,243.200 4.220,243.200 4.000 C 243.200 3.780,242.480 3.600,241.600 3.600 C 240.720 3.600,240.000 3.420,240.000 3.200 C 240.000 2.980,239.111 2.800,238.024 2.800 C 236.937 2.800,235.936 2.620,235.800 2.400 C 235.664 2.180,234.483 2.000,233.176 2.000 C 231.859 2.000,230.800 1.822,230.800 1.600 C 230.800 1.372,229.611 1.200,228.033 1.200 C 226.215 1.200,225.211 1.033,225.104 0.713 C 224.944 0.232,187.144 -0.123,178.300 0.274 M383.200 127.639 C 379.799 128.013,362.392 129.056,345.261 129.913 L 339.522 130.200 338.222 133.400 C 333.752 144.401,323.119 153.675,313.600 154.874 L 312.600 155.000 312.499 213.900 L 312.397 272.800 274.199 272.800 L 236.000 272.800 236.000 295.800 L 236.000 318.800 261.500 318.800 C 288.126 318.800,288.704 318.831,295.395 320.605 C 309.452 324.330,321.921 337.731,324.939 352.354 C 325.855 356.793,326.416 356.879,330.057 353.142 C 331.097 352.074,332.130 351.200,332.353 351.200 C 332.576 351.200,334.703 349.230,337.079 346.821 C 342.316 341.514,341.514 342.316,346.821 337.079 C 349.230 334.703,351.200 332.584,351.200 332.371 C 351.200 332.157,352.190 330.993,353.400 329.783 C 354.610 328.573,355.600 327.421,355.600 327.223 C 355.600 327.025,356.320 326.136,357.200 325.247 C 358.080 324.358,358.800 323.394,358.800 323.104 C 358.800 322.814,359.160 322.317,359.600 322.000 C 360.040 321.683,360.400 321.193,360.400 320.912 C 360.400 320.630,360.580 320.400,360.800 320.400 C 361.020 320.400,361.200 320.212,361.200 319.982 C 361.200 319.752,361.650 319.114,362.200 318.564 C 362.750 318.014,363.200 317.400,363.200 317.200 C 363.200 317.000,363.650 316.386,364.200 315.836 C 364.750 315.286,365.200 314.598,365.200 314.306 C 365.200 314.015,365.560 313.517,366.000 313.200 C 366.440 312.883,366.800 312.343,366.800 312.000 C 366.800 311.657,367.160 311.117,367.600 310.800 C 368.040 310.483,368.400 309.918,368.400 309.545 C 368.400 309.172,368.549 308.807,368.731 308.733 C 369.069 308.597,372.400 303.704,372.400 303.344 C 372.400 303.234,372.930 302.374,373.577 301.433 C 374.224 300.493,374.884 299.206,375.042 298.575 C 375.201 297.943,375.661 297.072,376.065 296.638 C 376.469 296.204,376.800 295.613,376.800 295.325 C 376.800 295.036,376.980 294.800,377.200 294.800 C 377.420 294.800,377.600 294.440,377.600 294.000 C 377.600 293.560,377.780 293.200,378.000 293.200 C 378.220 293.200,378.400 292.840,378.400 292.400 C 378.400 291.960,378.580 291.600,378.800 291.600 C 379.020 291.600,379.200 291.255,379.200 290.833 C 379.200 290.412,379.335 290.007,379.500 289.933 C 379.995 289.713,382.400 284.746,382.400 283.944 C 382.400 283.535,382.580 283.200,382.800 283.200 C 383.020 283.200,383.200 282.840,383.200 282.400 C 383.200 281.960,383.380 281.600,383.600 281.600 C 383.820 281.600,384.000 281.240,384.000 280.800 C 384.000 280.360,384.147 280.000,384.328 280.000 C 384.508 280.000,384.900 279.100,385.200 278.000 C 385.500 276.900,385.892 276.000,386.072 276.000 C 386.253 276.000,386.400 275.728,386.400 275.395 C 386.400 275.062,386.608 274.387,386.862 273.895 C 387.826 272.030,388.000 271.595,388.000 271.043 C 388.000 270.731,388.341 269.784,388.758 268.938 C 389.174 268.092,389.747 266.590,390.030 265.600 C 390.313 264.610,390.680 263.616,390.846 263.390 C 391.013 263.165,391.273 262.040,391.426 260.890 C 391.578 259.741,391.860 258.800,392.052 258.800 C 392.243 258.800,392.400 258.170,392.400 257.400 C 392.400 256.630,392.580 256.000,392.800 256.000 C 393.020 256.000,393.200 255.471,393.200 254.824 C 393.200 254.177,393.380 253.536,393.600 253.400 C 393.820 253.264,394.000 252.544,394.000 251.800 C 394.000 251.056,394.180 250.336,394.400 250.200 C 394.620 250.064,394.800 249.333,394.800 248.576 C 394.800 247.819,394.980 247.200,395.200 247.200 C 395.420 247.200,395.600 246.491,395.600 245.624 C 395.600 244.757,395.780 243.936,396.000 243.800 C 396.220 243.664,396.400 242.764,396.400 241.800 C 396.400 240.836,396.580 239.936,396.800 239.800 C 397.020 239.664,397.200 238.764,397.200 237.800 C 397.200 236.836,397.380 235.936,397.600 235.800 C 397.820 235.664,398.000 234.483,398.000 233.176 C 398.000 231.859,398.178 230.800,398.400 230.800 C 398.628 230.800,398.800 229.611,398.800 228.033 C 398.800 226.176,398.964 225.212,399.300 225.100 C 400.032 224.856,400.032 175.144,399.300 174.900 C 398.965 174.788,398.800 173.829,398.800 171.990 C 398.800 170.482,398.620 169.136,398.400 169.000 C 398.180 168.864,398.000 167.784,398.000 166.600 C 398.000 165.416,397.820 164.336,397.600 164.200 C 397.380 164.064,397.200 163.164,397.200 162.200 C 397.200 161.236,397.020 160.336,396.800 160.200 C 396.580 160.064,396.400 159.254,396.400 158.400 C 396.400 157.546,396.220 156.736,396.000 156.600 C 395.780 156.464,395.600 155.553,395.600 154.576 C 395.600 153.599,395.420 152.800,395.200 152.800 C 394.980 152.800,394.800 152.080,394.800 151.200 C 394.800 150.320,394.620 149.600,394.400 149.600 C 394.180 149.600,394.000 148.981,394.000 148.224 C 394.000 147.467,393.820 146.736,393.600 146.600 C 393.380 146.464,393.200 145.823,393.200 145.176 C 393.200 144.529,393.020 144.000,392.800 144.000 C 392.580 144.000,392.400 143.370,392.400 142.600 C 392.400 141.830,392.243 141.200,392.052 141.200 C 391.860 141.200,391.578 140.259,391.426 139.110 C 391.273 137.960,391.013 136.835,390.846 136.610 C 390.680 136.384,390.311 135.390,390.026 134.400 C 389.742 133.410,389.325 132.150,389.101 131.600 C 388.877 131.050,388.516 130.150,388.300 129.600 C 387.300 127.054,387.573 127.159,383.200 127.639 " stroke="none" fill="#fb5d9b" fill-rule="evenodd"></path><path id="path3" d="M306.000 88.520 C 306.000 91.154,305.869 91.200,298.320 91.200 L 291.600 91.200 291.600 92.899 C 291.600 94.147,291.058 95.673,289.554 98.653 C 286.599 104.512,286.596 106.986,289.535 112.944 C 292.580 119.116,292.579 122.833,289.533 129.022 C 287.603 132.945,287.467 133.418,287.467 136.214 C 287.467 139.024,287.594 139.459,289.533 143.305 C 291.152 146.515,291.600 147.812,291.600 149.292 L 291.600 151.181 298.500 151.291 L 305.400 151.400 305.600 153.400 C 305.797 155.371,305.821 155.402,307.263 155.522 C 310.259 155.772,319.743 152.855,322.862 150.725 C 323.446 150.326,324.121 150.000,324.362 150.000 C 324.603 150.000,324.800 149.859,324.800 149.686 C 324.800 149.514,325.352 149.046,326.027 148.648 C 330.329 146.106,335.629 139.014,337.969 132.670 L 339.027 129.800 343.613 129.521 C 346.136 129.368,351.710 129.041,356.000 128.796 C 360.290 128.551,366.500 128.191,369.800 127.997 C 373.100 127.803,378.086 127.518,380.880 127.362 C 386.157 127.069,387.131 126.674,385.816 125.359 C 385.496 125.039,385.327 124.535,385.440 124.240 C 385.553 123.945,385.380 123.601,385.054 123.476 C 384.685 123.334,384.543 122.939,384.678 122.424 C 384.800 121.955,384.701 121.600,384.447 121.600 C 384.201 121.600,384.000 121.060,384.000 120.400 C 384.000 119.740,383.820 119.200,383.600 119.200 C 383.380 119.200,383.194 118.705,383.187 118.100 C 383.173 116.867,382.287 115.455,381.811 115.906 C 381.640 116.068,381.632 115.772,381.793 115.250 C 381.990 114.609,381.945 114.387,381.653 114.567 C 381.415 114.714,378.651 114.655,375.510 114.435 C 372.370 114.215,366.110 113.826,361.600 113.570 C 357.090 113.315,350.166 112.902,346.213 112.653 L 339.027 112.200 337.968 109.328 C 333.283 96.624,320.088 86.803,307.700 86.800 L 306.000 86.800 306.000 88.520 " stroke="none" fill="#5e63af" fill-rule="evenodd"></path><path id="path4" d="M200.000 97.200 L 200.000 127.200 202.900 127.213 C 208.373 127.237,220.038 128.813,226.200 130.361 C 227.080 130.583,228.520 130.931,229.400 131.137 C 239.633 133.524,264.485 145.662,267.200 149.598 C 268.159 150.989,269.929 151.200,280.632 151.200 L 291.304 151.200 291.100 149.390 C 290.983 148.355,290.019 145.816,288.848 143.459 C 285.883 137.493,285.893 134.888,288.900 128.836 C 292.188 122.221,292.032 118.854,288.111 111.800 C 286.128 108.231,286.434 103.186,288.922 98.424 C 290.121 96.131,290.932 94.004,291.078 92.773 L 291.311 90.800 280.156 90.791 C 269.519 90.783,268.953 90.744,268.000 89.965 C 258.346 82.070,240.938 73.693,227.400 70.425 C 221.168 68.921,221.150 68.918,212.123 67.615 C 210.541 67.387,207.166 67.200,204.623 67.200 L 200.000 67.200 200.000 97.200 " stroke="none" fill="#fbd43f" fill-rule="evenodd"></path><path id="path5" d="M190.800 48.432 C 187.445 48.697,185.631 48.929,180.000 49.818 C 176.690 50.340,170.217 51.945,166.000 53.289 C 158.987 55.524,151.248 58.891,144.900 62.468 C 141.170 64.569,140.462 64.992,138.802 66.111 C 119.704 78.984,103.158 98.776,96.428 116.800 C 96.141 117.570,95.567 118.963,95.153 119.896 C 94.739 120.828,94.400 121.776,94.400 122.001 C 94.400 122.226,94.238 122.723,94.041 123.105 C 93.844 123.487,93.282 125.150,92.793 126.800 C 92.304 128.450,91.762 130.250,91.590 130.800 C 91.418 131.350,91.092 132.610,90.866 133.600 C 90.641 134.590,90.271 136.210,90.044 137.200 C 89.817 138.190,89.439 140.260,89.204 141.800 C 88.968 143.340,88.573 145.680,88.325 147.000 C 88.007 148.690,87.829 167.644,87.722 211.100 L 87.569 272.800 125.885 272.702 L 164.200 272.604 126.295 272.500 L 88.390 272.396 88.540 210.498 C 88.645 167.251,88.826 147.696,89.142 145.600 C 89.866 140.793,90.312 138.324,90.805 136.400 C 91.058 135.410,91.360 133.924,91.475 133.097 C 91.590 132.271,91.845 131.495,92.042 131.374 C 92.239 131.252,92.400 130.711,92.400 130.171 C 92.400 129.631,92.559 128.877,92.754 128.495 C 92.949 128.113,93.498 126.540,93.974 125.000 C 94.451 123.460,95.012 121.795,95.221 121.300 C 95.662 120.253,96.059 119.287,97.069 116.800 C 99.792 110.096,106.476 98.320,110.200 93.665 C 116.212 86.150,123.084 78.855,127.600 75.194 C 128.810 74.214,129.890 73.313,130.000 73.194 C 130.526 72.625,136.511 68.329,139.000 66.735 C 144.183 63.415,145.942 62.410,150.800 59.994 C 154.844 57.982,156.844 57.120,161.000 55.600 C 162.320 55.117,163.760 54.580,164.200 54.407 C 164.640 54.233,165.810 53.870,166.800 53.599 C 167.790 53.329,169.050 52.951,169.600 52.760 C 174.952 50.903,187.670 49.093,199.800 48.463 L 206.200 48.130 200.400 48.131 C 197.210 48.131,192.890 48.267,190.800 48.432 M207.233 48.552 C 207.325 48.635,209.020 48.808,211.000 48.934 C 213.205 49.076,214.212 49.032,213.600 48.823 C 212.630 48.490,206.898 48.246,207.233 48.552 M216.200 49.600 C 217.979 50.053,220.053 50.053,219.000 49.600 C 218.560 49.411,217.480 49.265,216.600 49.275 C 215.071 49.294,215.053 49.308,216.200 49.600 M221.200 50.400 C 222.667 50.870,224.494 50.870,223.400 50.400 C 222.960 50.211,222.060 50.062,221.400 50.068 C 220.230 50.079,220.225 50.088,221.200 50.400 M224.433 50.965 C 224.584 51.114,229.924 52.536,232.400 53.087 C 234.904 53.644,232.523 52.668,229.223 51.785 C 225.811 50.872,224.031 50.567,224.433 50.965 M233.800 53.600 C 233.936 53.820,234.442 53.997,234.924 53.994 C 235.636 53.989,235.688 53.915,235.200 53.600 C 234.412 53.091,233.485 53.091,233.800 53.600 M236.000 54.146 C 236.000 54.226,236.855 54.600,237.900 54.977 C 238.945 55.354,240.250 55.852,240.800 56.085 C 241.350 56.317,242.160 56.645,242.600 56.813 C 248.701 59.144,257.919 64.223,264.600 68.933 C 272.028 74.171,275.552 77.380,285.980 88.400 C 287.422 89.923,287.543 89.991,286.772 88.841 C 282.843 82.979,260.598 64.000,257.657 64.000 C 257.442 64.000,257.207 63.865,257.133 63.700 C 256.533 62.350,236.000 53.067,236.000 54.146 M201.500 67.093 C 202.435 67.177,203.965 67.177,204.900 67.093 C 205.835 67.009,205.070 66.940,203.200 66.940 C 201.330 66.940,200.565 67.009,201.500 67.093 M217.600 68.400 C 218.968 68.838,220.019 68.838,219.000 68.400 C 218.560 68.211,217.840 68.062,217.400 68.068 C 216.757 68.077,216.796 68.143,217.600 68.400 M222.200 69.200 C 222.640 69.389,223.270 69.544,223.600 69.544 C 223.978 69.544,223.904 69.417,223.400 69.200 C 222.960 69.011,222.330 68.856,222.000 68.856 C 221.622 68.856,221.696 68.983,222.200 69.200 M225.800 70.000 C 226.240 70.189,226.870 70.344,227.200 70.344 C 227.578 70.344,227.504 70.217,227.000 70.000 C 226.560 69.811,225.930 69.656,225.600 69.656 C 225.222 69.656,225.296 69.783,225.800 70.000 M266.800 88.946 C 266.800 89.056,267.340 89.530,268.000 90.000 C 268.660 90.470,269.200 90.764,269.200 90.654 C 269.200 90.544,268.660 90.070,268.000 89.600 C 267.340 89.130,266.800 88.836,266.800 88.946 M291.314 121.000 C 291.317 122.100,291.395 122.503,291.487 121.895 C 291.579 121.286,291.577 120.386,291.482 119.895 C 291.387 119.403,291.311 119.900,291.314 121.000 M202.112 127.495 C 203.164 127.577,204.784 127.576,205.712 127.492 C 206.640 127.408,205.780 127.341,203.800 127.342 C 201.820 127.343,201.060 127.412,202.112 127.495 M208.900 127.876 C 209.285 127.976,209.915 127.976,210.300 127.876 C 210.685 127.775,210.370 127.693,209.600 127.693 C 208.830 127.693,208.515 127.775,208.900 127.876 M213.105 128.283 C 213.602 128.379,214.322 128.375,214.705 128.275 C 215.087 128.175,214.680 128.096,213.800 128.101 C 212.920 128.105,212.607 128.187,213.105 128.283 M291.334 150.400 L 291.400 151.400 298.300 151.415 L 305.201 151.429 298.427 151.305 C 291.794 151.184,291.649 151.163,291.461 150.291 C 291.295 149.522,291.278 149.537,291.334 150.400 M197.681 152.622 C 196.736 153.820,196.106 154.790,196.281 154.778 C 196.456 154.765,197.374 153.775,198.319 152.578 C 199.264 151.380,199.894 150.410,199.719 150.422 C 199.544 150.435,198.626 151.425,197.681 152.622 M194.575 156.500 L 193.400 157.800 194.700 156.625 C 195.415 155.979,196.000 155.394,196.000 155.325 C 196.000 155.016,195.670 155.288,194.575 156.500 M312.000 213.798 L 312.000 272.396 273.900 272.500 L 235.800 272.604 274.100 272.702 L 312.400 272.800 312.400 214.000 C 312.400 181.660,312.310 155.200,312.200 155.200 C 312.090 155.200,312.000 181.569,312.000 213.798 M205.600 157.325 C 205.600 157.394,206.185 157.979,206.900 158.625 L 208.200 159.800 207.025 158.500 C 205.930 157.288,205.600 157.016,205.600 157.325 M188.400 162.720 C 185.870 165.229,182.720 168.113,181.400 169.128 C 180.080 170.144,178.768 171.199,178.485 171.474 C 178.202 171.748,177.437 172.287,176.785 172.672 C 176.133 173.057,175.600 173.535,175.600 173.734 C 175.600 174.134,177.104 173.054,181.600 169.425 C 184.898 166.764,194.038 157.984,193.400 158.091 C 193.180 158.127,190.930 160.211,188.400 162.720 M212.200 163.961 C 213.118 165.027,217.600 168.966,217.600 168.707 C 217.600 168.612,216.205 167.297,214.500 165.784 C 212.795 164.270,211.760 163.450,212.200 163.961 M223.600 173.359 C 223.600 173.450,224.500 174.172,225.600 174.962 C 226.700 175.752,227.597 176.264,227.593 176.099 C 227.585 175.794,223.600 173.059,223.600 173.359 M228.400 176.820 C 229.787 177.761,230.578 178.035,229.600 177.236 C 229.050 176.786,228.420 176.417,228.200 176.415 C 227.980 176.413,228.070 176.596,228.400 176.820 M168.481 178.172 C 167.756 178.684,167.036 179.239,166.881 179.403 C 166.464 179.847,168.873 178.559,169.800 177.843 C 171.075 176.859,169.937 177.142,168.481 178.172 M236.400 181.379 C 236.400 181.489,236.940 181.859,237.600 182.200 C 238.260 182.541,238.800 182.731,238.800 182.621 C 238.800 182.511,238.260 182.141,237.600 181.800 C 236.940 181.459,236.400 181.269,236.400 181.379 M157.400 184.181 C 155.860 184.929,154.722 185.555,154.872 185.571 C 155.258 185.612,160.400 183.206,160.400 182.984 C 160.400 182.718,160.455 182.696,157.400 184.181 M152.800 185.991 C 152.470 186.180,151.390 186.714,150.400 187.177 C 149.410 187.641,149.050 187.900,149.600 187.755 C 151.159 187.341,154.670 185.667,154.000 185.656 C 153.670 185.651,153.130 185.802,152.800 185.991 M146.600 188.400 C 146.308 188.873,146.699 188.873,147.800 188.400 C 148.571 188.069,148.569 188.055,147.724 188.028 C 147.242 188.013,146.736 188.180,146.600 188.400 M141.600 190.018 C 141.162 190.315,141.324 190.352,142.200 190.156 C 143.671 189.827,143.990 189.598,142.967 189.606 C 142.545 189.609,141.930 189.795,141.600 190.018 M256.033 189.744 C 256.125 189.823,256.740 190.008,257.400 190.156 C 258.276 190.352,258.438 190.315,258.000 190.018 C 257.460 189.653,255.632 189.398,256.033 189.744 M258.833 190.544 C 258.925 190.623,259.540 190.808,260.200 190.956 C 261.076 191.152,261.238 191.115,260.800 190.818 C 260.260 190.453,258.432 190.198,258.833 190.544 M135.600 191.606 C 135.178 191.882,135.415 191.923,136.400 191.742 C 138.125 191.425,138.451 191.198,137.167 191.206 C 136.635 191.209,135.930 191.389,135.600 191.606 M131.790 192.416 C 131.621 192.689,131.923 192.738,132.666 192.560 C 134.199 192.192,134.344 192.000,133.090 192.000 C 132.517 192.000,131.932 192.187,131.790 192.416 M265.233 192.147 C 265.325 192.228,266.120 192.404,267.000 192.538 C 268.115 192.707,268.358 192.671,267.800 192.419 C 267.032 192.071,264.890 191.844,265.233 192.147 M126.800 193.200 C 126.061 193.677,127.124 193.677,129.000 193.200 L 130.200 192.895 128.800 192.853 C 128.030 192.831,127.130 192.987,126.800 193.200 M269.233 192.944 C 269.325 193.024,270.210 193.196,271.200 193.327 C 272.402 193.486,272.734 193.447,272.200 193.210 C 271.436 192.872,268.886 192.643,269.233 192.944 M119.600 194.021 C 118.969 194.237,119.632 194.278,121.400 194.132 C 122.940 194.005,124.275 193.834,124.367 193.751 C 124.696 193.453,120.579 193.687,119.600 194.021 M276.400 194.020 C 278.814 194.450,280.706 194.413,278.600 193.977 C 277.720 193.795,276.460 193.658,275.800 193.673 C 274.900 193.693,275.050 193.780,276.400 194.020 M106.202 194.797 C 106.067 195.015,106.160 195.510,106.409 195.897 C 106.824 196.543,106.841 196.538,106.617 195.832 C 106.479 195.397,106.596 194.923,106.886 194.738 C 107.252 194.506,107.263 194.410,106.924 194.406 C 106.662 194.403,106.337 194.579,106.202 194.797 M109.500 194.682 C 109.995 194.778,110.805 194.778,111.300 194.682 C 111.795 194.587,111.390 194.509,110.400 194.509 C 109.410 194.509,109.005 194.587,109.500 194.682 M287.740 194.699 L 292.881 194.825 292.635 195.912 C 292.429 196.823,292.460 196.882,292.828 196.276 C 293.823 194.634,293.140 194.395,287.713 194.487 L 282.600 194.574 287.740 194.699 M284.682 215.811 C 284.092 217.015,283.694 218.000,283.798 218.000 C 284.067 218.000,286.084 213.951,285.905 213.771 C 285.823 213.689,285.273 214.607,284.682 215.811 M116.372 219.900 C 117.196 221.467,118.969 224.094,118.734 223.400 C 118.502 222.710,115.932 218.400,115.754 218.400 C 115.660 218.400,115.938 219.075,116.372 219.900 M281.814 221.035 C 281.441 221.604,281.205 222.138,281.289 222.222 C 281.373 222.307,281.758 221.841,282.144 221.188 C 283.006 219.728,282.748 219.609,281.814 221.035 M280.553 223.300 C 279.176 225.636,279.086 225.835,279.787 225.000 C 280.600 224.032,281.300 222.800,281.038 222.800 C 280.933 222.800,280.715 223.025,280.553 223.300 M119.048 224.500 C 120.065 226.222,122.903 230.400,123.056 230.400 C 123.157 230.400,123.096 230.172,122.920 229.894 C 120.696 226.374,119.093 224.000,118.941 224.000 C 118.837 224.000,118.886 224.225,119.048 224.500 M128.068 237.752 C 128.581 238.543,129.147 239.192,129.327 239.195 C 129.699 239.201,128.182 236.959,127.549 236.569 C 127.322 236.428,127.555 236.960,128.068 237.752 M130.773 241.097 C 133.383 244.532,141.600 253.534,141.600 252.958 C 141.600 252.810,140.295 251.317,138.700 249.640 C 137.105 247.964,134.900 245.515,133.800 244.200 C 130.852 240.674,129.044 238.821,130.773 241.097 M266.287 243.261 C 265.235 244.548,264.456 245.600,264.556 245.600 C 264.848 245.600,268.530 241.194,268.357 241.052 C 268.271 240.981,267.339 241.975,266.287 243.261 M261.978 248.300 L 260.600 249.800 262.100 248.422 C 263.496 247.138,263.784 246.800,263.478 246.800 C 263.412 246.800,262.737 247.475,261.978 248.300 M142.800 254.122 C 142.800 254.669,149.739 261.089,153.019 263.578 C 153.950 264.284,152.274 262.667,149.600 260.279 C 148.610 259.394,146.675 257.580,145.300 256.247 C 143.925 254.914,142.800 253.958,142.800 254.122 M251.583 258.700 L 249.800 260.600 251.793 258.800 C 252.888 257.810,253.863 256.955,253.959 256.900 C 254.055 256.845,253.961 256.800,253.750 256.800 C 253.539 256.800,252.564 257.655,251.583 258.700 M248.094 261.612 C 247.375 262.265,246.937 262.800,247.119 262.800 C 247.301 262.800,247.968 262.260,248.600 261.600 C 250.070 260.065,249.786 260.072,248.094 261.612 M154.425 264.689 C 154.461 265.133,160.551 269.582,160.793 269.341 C 160.903 269.230,160.676 268.963,160.289 268.746 C 159.902 268.529,158.418 267.458,156.993 266.365 C 155.567 265.272,154.411 264.518,154.425 264.689 M240.785 267.629 L 239.400 268.858 240.900 267.781 C 242.226 266.830,242.657 266.400,242.285 266.400 C 242.222 266.400,241.547 266.953,240.785 267.629 " stroke="none" fill="#c26d65" fill-rule="evenodd"></path><path id="path6" d="M288.800 90.556 C 288.800 90.642,289.430 90.786,290.200 90.876 C 290.970 90.966,291.600 90.896,291.600 90.720 C 291.600 90.544,290.970 90.400,290.200 90.400 C 289.430 90.400,288.800 90.470,288.800 90.556 M291.036 93.992 C 290.849 94.757,289.877 96.954,288.875 98.873 C 285.987 104.406,286.087 108.137,289.271 113.600 C 290.104 115.030,290.789 115.988,290.793 115.729 C 290.797 115.469,290.165 114.191,289.389 112.888 C 286.610 108.223,286.689 104.157,289.672 98.420 C 290.902 96.055,291.589 94.258,291.507 93.620 C 291.387 92.693,291.344 92.727,291.036 93.992 M290.840 116.876 C 290.959 118.446,291.520 119.416,291.560 118.124 C 291.582 117.422,291.420 116.736,291.200 116.600 C 290.980 116.464,290.818 116.588,290.840 116.876 M291.098 124.000 C 290.937 124.770,289.955 127.072,288.915 129.115 C 286.947 132.982,286.151 137.311,287.097 139.002 C 287.365 139.481,287.480 138.682,287.481 136.343 C 287.482 132.837,287.450 132.939,290.362 127.299 C 291.144 125.782,291.601 124.364,291.522 123.699 C 291.398 122.655,291.377 122.670,291.098 124.000 M287.616 140.471 C 287.607 140.839,288.317 142.369,289.193 143.871 C 290.069 145.372,290.789 146.380,290.793 146.112 C 290.797 145.844,290.410 144.944,289.933 144.112 C 289.456 143.280,288.744 141.970,288.349 141.200 C 287.949 140.418,287.625 140.096,287.616 140.471 M290.840 147.276 C 290.959 148.846,291.520 149.816,291.560 148.524 C 291.582 147.822,291.420 147.136,291.200 147.000 C 290.980 146.864,290.818 146.988,290.840 147.276 M198.155 152.700 C 195.139 156.417,193.792 157.868,188.230 163.390 C 185.134 166.464,183.500 168.232,184.600 167.318 C 188.098 164.412,195.832 156.258,199.807 151.283 C 199.858 151.219,201.406 152.929,203.247 155.083 C 209.090 161.922,217.556 169.772,223.200 173.584 C 225.363 175.044,224.243 174.054,218.800 169.691 C 213.015 165.053,204.978 156.984,201.480 152.300 C 200.065 150.406,200.010 150.413,198.155 152.700 M180.400 170.449 C 179.319 171.426,179.079 171.758,179.800 171.281 C 180.906 170.549,182.737 168.784,182.362 168.812 C 182.273 168.819,181.390 169.555,180.400 170.449 M173.400 175.435 C 170.760 177.241,167.700 179.179,166.600 179.740 C 165.500 180.302,164.240 181.056,163.800 181.415 C 162.121 182.785,168.814 178.922,173.400 175.875 C 178.840 172.260,178.589 172.442,178.367 172.276 C 178.275 172.208,176.040 173.629,173.400 175.435 M229.600 177.976 C 229.600 178.209,229.797 178.400,230.038 178.400 C 230.279 178.400,230.954 178.733,231.538 179.139 C 234.294 181.057,243.200 185.561,243.200 185.036 C 243.200 184.957,241.450 184.035,239.312 182.988 C 237.173 181.940,234.248 180.368,232.812 179.494 C 231.375 178.620,230.065 177.826,229.900 177.729 C 229.735 177.632,229.600 177.743,229.600 177.976 M161.070 182.679 C 160.448 183.005,160.026 183.360,160.133 183.466 C 160.342 183.676,162.800 182.500,162.800 182.190 C 162.800 181.892,162.294 182.035,161.070 182.679 M155.000 185.600 C 153.680 186.226,152.780 186.744,153.000 186.750 C 153.220 186.756,154.480 186.245,155.800 185.615 C 157.120 184.984,158.020 184.467,157.800 184.465 C 157.580 184.463,156.320 184.974,155.000 185.600 M245.941 186.415 C 247.338 187.089,248.671 187.576,248.903 187.499 C 249.135 187.422,248.351 186.980,247.162 186.518 C 243.635 185.147,243.240 185.114,245.941 186.415 M146.600 188.800 C 145.829 189.131,145.831 189.145,146.676 189.172 C 147.158 189.187,147.664 189.020,147.800 188.800 C 148.092 188.327,147.701 188.327,146.600 188.800 M252.000 188.800 C 252.330 189.013,252.870 189.188,253.200 189.188 C 253.733 189.188,253.733 189.145,253.200 188.800 C 252.870 188.587,252.330 188.412,252.000 188.412 C 251.467 188.412,251.467 188.455,252.000 188.800 M254.400 189.600 C 254.730 189.813,255.270 189.988,255.600 189.988 C 256.133 189.988,256.133 189.945,255.600 189.600 C 255.270 189.387,254.730 189.212,254.400 189.212 C 253.867 189.212,253.867 189.255,254.400 189.600 M141.400 190.400 L 140.600 190.744 141.400 190.766 C 141.840 190.778,142.470 190.613,142.800 190.400 C 143.595 189.886,142.596 189.886,141.400 190.400 M256.800 190.400 C 257.130 190.613,257.760 190.778,258.200 190.766 L 259.000 190.744 258.200 190.400 C 257.004 189.886,256.005 189.886,256.800 190.400 M138.600 191.200 L 137.800 191.544 138.600 191.566 C 139.040 191.578,139.670 191.413,140.000 191.200 C 140.795 190.686,139.796 190.686,138.600 191.200 M259.800 191.200 C 259.936 191.420,260.442 191.587,260.924 191.572 C 261.769 191.545,261.771 191.531,261.000 191.200 C 259.899 190.727,259.508 190.727,259.800 191.200 M133.000 192.412 C 131.240 192.808,130.292 193.148,130.894 193.166 C 132.030 193.201,135.207 192.539,136.600 191.977 C 137.884 191.459,136.469 191.630,133.000 192.412 M262.800 192.000 C 263.130 192.213,263.850 192.373,264.400 192.354 L 265.400 192.320 264.400 192.000 C 262.858 191.506,262.036 191.506,262.800 192.000 M266.400 192.779 C 266.730 193.004,267.525 193.191,268.167 193.194 C 269.704 193.202,269.384 192.970,267.400 192.638 C 266.254 192.446,265.970 192.486,266.400 192.779 M270.600 193.592 C 271.357 193.925,275.121 194.163,274.767 193.856 C 274.675 193.776,273.520 193.605,272.200 193.476 C 270.676 193.326,270.092 193.369,270.600 193.592 M122.400 194.021 C 121.190 194.198,117.183 194.418,113.496 194.510 C 105.656 194.704,106.186 194.457,107.190 197.436 C 107.628 198.736,107.886 199.260,107.765 198.600 C 107.643 197.940,107.451 196.860,107.340 196.200 L 107.137 195.000 113.868 194.872 C 117.571 194.802,122.220 194.507,124.200 194.216 C 126.180 193.926,127.080 193.690,126.200 193.693 C 125.320 193.695,123.610 193.843,122.400 194.021 M276.000 194.399 C 276.972 194.711,283.100 194.944,282.767 194.656 C 282.675 194.576,280.890 194.414,278.800 194.294 C 276.663 194.172,275.438 194.218,276.000 194.399 M288.700 195.098 L 292.000 195.232 292.040 196.516 C 292.078 197.739,292.095 197.753,292.400 196.800 C 293.040 194.800,293.032 194.795,289.100 194.881 L 285.400 194.963 288.700 195.098 M291.438 198.443 C 291.339 198.749,290.868 200.138,290.392 201.530 C 289.916 202.921,289.601 204.134,289.691 204.225 C 289.782 204.315,290.341 203.014,290.933 201.333 C 291.526 199.653,291.922 198.189,291.815 198.081 C 291.707 197.974,291.538 198.136,291.438 198.443 M108.372 201.046 C 108.875 202.719,109.546 204.265,109.569 203.800 C 109.594 203.265,108.617 200.483,108.286 200.153 C 108.142 200.009,108.181 200.411,108.372 201.046 M288.605 206.249 C 288.272 207.046,288.000 207.761,288.000 207.839 C 288.000 208.078,285.676 213.070,284.195 216.010 C 283.422 217.544,282.893 218.800,283.019 218.800 C 283.277 218.800,287.946 209.107,288.943 206.500 C 289.734 204.432,289.452 204.222,288.605 206.249 M110.647 207.079 C 111.037 208.258,112.026 210.400,112.181 210.400 C 112.456 210.400,111.901 208.786,111.552 208.570 C 111.358 208.451,111.200 208.014,111.200 207.600 C 111.200 207.186,111.022 206.737,110.805 206.603 C 110.572 206.459,110.507 206.655,110.647 207.079 M112.407 211.000 C 112.379 211.589,117.156 220.892,118.069 222.027 C 118.499 222.562,118.134 221.650,117.258 220.000 C 116.383 218.350,114.937 215.560,114.046 213.800 C 113.154 212.040,112.417 210.780,112.407 211.000 M281.786 220.500 L 281.152 221.800 281.967 220.800 C 282.752 219.837,283.008 219.200,282.610 219.200 C 282.506 219.200,282.135 219.785,281.786 220.500 M280.222 223.022 C 279.845 223.598,279.616 224.149,279.714 224.247 C 279.812 224.345,280.200 223.954,280.578 223.378 C 280.955 222.802,281.184 222.251,281.086 222.153 C 280.988 222.055,280.600 222.446,280.222 223.022 M118.813 223.309 C 118.798 223.659,120.823 226.800,121.063 226.800 C 121.285 226.800,120.182 224.756,119.443 223.800 C 119.103 223.360,118.820 223.139,118.813 223.309 M278.253 226.391 C 277.121 228.102,276.825 229.118,277.843 227.800 C 278.582 226.844,279.685 224.800,279.463 224.800 C 279.377 224.800,278.832 225.516,278.253 226.391 M275.403 230.701 C 274.744 231.745,272.809 234.445,271.103 236.700 C 269.396 238.955,268.135 240.793,268.300 240.784 C 268.865 240.753,277.445 228.799,276.901 228.801 C 276.735 228.801,276.061 229.656,275.403 230.701 M123.413 230.700 C 125.026 233.218,131.427 241.580,131.748 241.590 C 131.940 241.595,131.474 240.835,130.713 239.900 C 129.952 238.965,128.659 237.300,127.839 236.200 C 127.019 235.100,126.095 233.889,125.786 233.509 C 125.476 233.129,124.744 232.094,124.159 231.209 C 123.573 230.324,123.007 229.600,122.901 229.600 C 122.795 229.600,123.025 230.095,123.413 230.700 M266.531 242.457 C 264.532 245.319,258.663 251.405,249.400 260.222 L 247.000 262.506 249.600 260.365 C 254.835 256.054,268.907 241.182,267.728 241.207 C 267.547 241.211,267.009 241.773,266.531 242.457 M133.653 243.977 C 135.841 246.704,140.890 252.078,144.738 255.776 C 149.665 260.511,148.540 259.133,142.393 252.903 C 139.189 249.656,135.519 245.830,134.237 244.400 C 132.304 242.243,132.204 242.171,133.653 243.977 M150.329 260.937 C 153.829 264.046,160.400 269.099,160.400 268.683 C 160.400 268.588,159.005 267.453,157.300 266.161 C 155.595 264.869,154.110 263.719,154.000 263.606 C 153.231 262.814,148.815 259.200,148.618 259.200 C 148.484 259.200,149.253 259.982,150.329 260.937 M245.771 263.125 C 245.347 263.518,242.885 265.429,240.300 267.369 C 236.276 270.390,235.609 271.049,235.660 271.949 L 235.720 273.000 235.887 271.900 C 235.978 271.295,236.356 270.636,236.727 270.437 C 237.550 269.993,241.917 266.769,244.615 264.614 C 245.707 263.742,246.675 262.977,246.767 262.914 C 246.858 262.851,246.845 262.712,246.738 262.604 C 246.630 262.497,246.195 262.731,245.771 263.125 M160.811 269.081 C 160.817 269.256,161.528 269.836,162.392 270.369 C 163.256 270.901,164.036 271.711,164.127 272.169 C 164.284 272.964,164.293 272.962,164.346 272.119 C 164.384 271.494,163.878 270.879,162.600 270.000 C 161.610 269.319,160.805 268.905,160.811 269.081 " stroke="none" fill="#d29d8c" fill-rule="evenodd"></path><path id="path7" d="M305.467 86.667 C 305.320 86.813,305.200 87.713,305.200 88.667 L 305.200 90.400 298.400 90.400 C 294.133 90.400,291.600 90.549,291.600 90.800 C 291.600 91.408,304.909 91.331,305.520 90.720 C 305.784 90.456,306.000 89.466,306.000 88.520 L 306.000 86.800 307.700 86.800 C 320.088 86.803,333.286 96.626,337.967 109.328 L 339.026 112.200 341.413 112.257 C 342.726 112.288,343.350 112.240,342.800 112.149 C 342.250 112.058,341.259 111.898,340.598 111.792 C 339.381 111.598,339.278 111.448,337.971 108.000 C 334.740 99.474,327.798 92.710,317.800 88.350 C 314.681 86.989,306.289 85.844,305.467 86.667 M348.400 112.820 C 353.904 113.241,358.456 113.217,356.000 112.780 C 355.010 112.603,352.040 112.475,349.400 112.494 L 344.600 112.529 348.400 112.820 M362.600 113.621 C 364.580 113.783,367.460 113.909,369.000 113.901 L 371.800 113.887 369.600 113.583 C 368.390 113.416,365.510 113.290,363.200 113.303 L 359.000 113.327 362.600 113.621 M376.600 114.000 C 374.002 114.143,373.118 114.274,374.441 114.321 C 375.674 114.364,377.789 114.516,379.141 114.657 C 381.259 114.878,381.600 114.823,381.600 114.257 C 381.600 113.896,381.465 113.636,381.300 113.679 C 381.135 113.723,379.020 113.867,376.600 114.000 M384.000 120.800 C 384.000 121.240,384.191 121.600,384.425 121.600 C 384.659 121.600,384.794 121.988,384.725 122.463 C 384.656 122.937,384.825 123.402,385.100 123.496 C 385.697 123.700,385.788 122.163,385.200 121.800 C 384.980 121.664,384.800 121.203,384.800 120.776 C 384.800 120.349,384.620 120.000,384.400 120.000 C 384.180 120.000,384.000 120.360,384.000 120.800 M385.420 124.368 C 385.295 124.570,385.464 125.007,385.795 125.338 C 387.132 126.675,386.178 127.068,380.880 127.362 C 378.086 127.518,373.100 127.803,369.800 127.997 C 366.500 128.191,360.290 128.551,356.000 128.796 C 351.710 129.041,346.136 129.368,343.613 129.521 L 339.027 129.800 337.969 132.670 C 335.629 139.014,330.329 146.106,326.027 148.648 C 325.352 149.046,324.800 149.514,324.800 149.686 C 324.800 149.859,324.603 150.000,324.362 150.000 C 324.121 150.000,323.446 150.329,322.862 150.732 C 322.278 151.134,320.579 151.987,319.086 152.627 C 317.593 153.267,316.546 153.849,316.759 153.920 C 316.972 153.991,318.476 153.435,320.100 152.684 C 328.576 148.768,334.569 142.391,338.222 133.400 L 339.522 130.200 345.061 129.928 C 348.107 129.778,354.110 129.458,358.400 129.217 C 362.690 128.976,369.260 128.609,373.000 128.402 C 386.055 127.679,387.757 127.383,386.885 125.987 C 386.618 125.560,386.400 124.938,386.400 124.605 C 386.400 123.939,385.778 123.788,385.420 124.368 M313.000 154.599 L 311.400 155.136 313.200 154.915 C 315.165 154.673,316.839 154.009,315.400 154.043 C 314.960 154.053,313.880 154.303,313.000 154.599 " stroke="none" fill="#b954a1" fill-rule="evenodd"></path><path id="path8" d="M164.187 295.800 C 164.187 308.560,164.238 313.838,164.300 307.529 C 164.362 301.219,164.362 290.779,164.300 284.329 C 164.238 277.878,164.187 283.040,164.187 295.800 M235.795 296.000 L 235.800 319.000 262.400 319.249 C 285.197 319.462,289.372 319.591,291.600 320.155 C 293.030 320.517,294.789 320.925,295.510 321.061 C 296.230 321.197,296.916 321.464,297.033 321.654 C 297.151 321.844,297.518 322.000,297.849 322.000 C 298.844 322.000,303.604 324.418,306.800 326.547 C 314.416 331.620,320.577 339.702,323.155 348.000 C 323.668 349.650,324.248 351.413,324.444 351.919 C 324.640 352.424,324.803 353.504,324.806 354.319 C 324.813 355.985,325.338 357.148,325.768 356.451 C 325.916 356.212,325.873 355.698,325.673 355.308 C 325.473 354.919,325.187 353.798,325.037 352.817 C 322.912 338.931,309.484 324.339,295.395 320.605 C 288.704 318.831,288.125 318.800,261.503 318.800 L 236.006 318.800 235.898 295.900 L 235.790 273.000 235.795 296.000 M110.000 318.800 C 109.670 319.013,108.736 319.191,107.924 319.194 C 107.112 319.197,106.336 319.380,106.200 319.600 C 106.064 319.820,105.434 320.000,104.800 320.000 C 104.166 320.000,103.536 320.180,103.400 320.400 C 103.264 320.620,102.724 320.800,102.200 320.800 C 101.676 320.800,101.136 320.980,101.000 321.200 C 100.864 321.420,100.403 321.600,99.976 321.600 C 99.549 321.600,99.200 321.780,99.200 322.000 C 99.200 322.220,98.840 322.400,98.400 322.400 C 97.960 322.400,97.600 322.580,97.600 322.800 C 97.600 323.020,97.240 323.200,96.800 323.200 C 96.360 323.200,96.000 323.380,96.000 323.600 C 96.000 323.820,95.764 324.000,95.475 324.000 C 95.187 324.000,94.564 324.360,94.092 324.800 C 93.620 325.240,93.022 325.600,92.764 325.600 C 92.505 325.600,92.003 325.917,91.647 326.303 C 91.291 326.690,90.244 327.519,89.319 328.145 C 85.002 331.067,77.200 341.654,77.200 344.590 C 77.200 344.926,77.020 345.200,76.800 345.200 C 76.580 345.200,76.400 345.639,76.400 346.176 C 76.400 346.713,76.220 347.264,76.000 347.400 C 75.780 347.536,75.600 348.076,75.600 348.600 C 75.600 349.124,75.420 349.664,75.200 349.800 C 74.980 349.936,74.800 350.757,74.800 351.624 C 74.800 352.491,74.620 353.200,74.400 353.200 C 74.180 353.200,74.000 353.841,74.000 354.624 C 74.000 356.607,74.695 355.979,75.033 353.691 C 76.837 341.451,86.685 328.725,98.600 323.234 C 100.140 322.525,101.760 321.779,102.200 321.577 C 105.875 319.892,111.539 319.159,123.400 318.833 L 133.800 318.548 122.200 318.480 C 115.266 318.440,110.359 318.568,110.000 318.800 M141.300 319.099 C 145.425 319.164,152.175 319.164,156.300 319.099 C 160.425 319.034,157.050 318.981,148.800 318.981 C 140.550 318.981,137.175 319.034,141.300 319.099 " stroke="none" fill="#fc84ac" fill-rule="evenodd"></path></g></svg>