<?xml version="1.0"?>
<svg version="1.1" xmlns="http://www.w3.org/2000/svg" width="270" height="50" style=""><path fill="#000000" d="M28.888,41.8l2.828,0l-12.516-9.996l12.516-9.632l-2.828,0l-10.752,8.568l0-8.568l-1.764,0l0,19.628l1.764,0l0-8.568z M43.13552,22.088q-3.136,0-5.264,2.268q-2.1,2.24-2.1,5.46l0,11.984l1.764,0l0-8.792l11.256,0l0,8.792l1.764,0l0-11.984q0-3.22-2.1-5.46q-2.184-2.268-5.32-2.268z M48.79152,31.272l-11.256,0l0-1.456q0-2.408,1.624-4.172q1.652-1.792,3.976-1.792t4.032,1.792q1.624,1.764,1.624,4.172l0,1.456z M59.34304,24.244l10.556,0l0-2.128l-10.556,0q-2.072,0-3.472,1.624q-1.428,1.652-1.428,4.004q0,2.128,1.428,3.696q1.4,1.596,3.472,1.596l2.8,0l2.856,0q1.26,0,2.24,1.064q0.924,1.12,0.924,2.436q0,1.568-0.91,2.548t-2.254,0.98l-10.556,0l0,1.736l10.556,0q2.1,0,3.5-1.456t1.4-3.808q0-2.128-1.4-3.696q-1.428-1.568-3.5-1.568l-2.856,0l-2.8,0q-1.288,0-2.212-1.12q-0.952-1.036-0.952-2.408q0-1.568,0.91-2.534t2.254-0.966z M78.40656,24.244l10.556,0l0-2.128l-10.556,0q-2.072,0-3.472,1.624q-1.428,1.652-1.428,4.004q0,2.128,1.428,3.696q1.4,1.596,3.472,1.596l2.8,0l2.856,0q1.26,0,2.24,1.064q0.924,1.12,0.924,2.436q0,1.568-0.91,2.548t-2.254,0.98l-10.556,0l0,1.736l10.556,0q2.1,0,3.5-1.456t1.4-3.808q0-2.128-1.4-3.696q-1.428-1.568-3.5-1.568l-2.856,0l-2.8,0q-1.288,0-2.212-1.12q-0.952-1.036-0.952-2.408q0-1.568,0.91-2.534t2.254-0.966z M100.29808,22.088q-3.136,0-5.264,2.268q-2.1,2.24-2.1,5.46l0,11.984l1.764,0l0-8.792l11.256,0l0,8.792l1.764,0l0-11.984q0-3.22-2.1-5.46q-2.184-2.268-5.32-2.268z M105.95408,31.272l-11.256,0l0-1.456q0-2.408,1.624-4.172q1.652-1.792,3.976-1.792t4.032,1.792q1.624,1.764,1.624,4.172l0,1.456z M124.9616,31.804q1.092-0.532,1.792-1.764q0.7-1.176,0.7-2.52q0-2.408-1.624-3.892q-1.624-1.456-4.088-1.456l-7.868,0l-0.336,0l-1.428,0l0,19.628l1.428,0l0.336,0l7.868,0q2.464,0,4.088-1.456q1.624-1.484,1.624-3.892q0-1.316-0.686-2.562t-1.806-2.086z M113.8736,23.6l7.868,0q1.68,0,2.772,1.148q1.176,1.232,1.176,2.772q0,1.26-0.924,2.324q-0.868,0.952-2.296,1.26l-0.728,0l-7.868,0l0-7.504z M121.7416,40.372l-7.868,0l0-7.504l7.868,0l0.728,0q1.428,0.308,2.296,1.26q0.924,1.064,0.924,2.324q0,1.512-1.176,2.744q-1.12,1.176-2.772,1.176z M154.40864,31.804q1.092-0.532,1.792-1.764q0.7-1.176,0.7-2.52q0-2.408-1.624-3.892q-1.624-1.456-4.088-1.456l-7.868,0l-0.336,0l-1.428,0l0,19.628l1.428,0l0.336,0l7.868,0q2.464,0,4.088-1.456q1.624-1.484,1.624-3.892q0-1.316-0.686-2.562t-1.806-2.086z M143.32064,23.6l7.868,0q1.68,0,2.772,1.148q1.176,1.232,1.176,2.772q0,1.26-0.924,2.324q-0.868,0.952-2.296,1.26l-0.728,0l-7.868,0l0-7.504z M151.18864,40.372l-7.868,0l0-7.504l7.868,0l0.728,0q1.428,0.308,2.296,1.26q0.924,1.064,0.924,2.324q0,1.512-1.176,2.744q-1.12,1.176-2.772,1.176z M163.05616,36.424q0-1.344,0.952-2.436q0.952-1.148,2.296-1.148l0.364,0l5.236,0l0-1.736l-5.236,0l-0.364,0q-1.428-0.28-2.338-1.232t-0.91-2.268q0-1.652,0.966-2.618t2.646-0.966l9.52,0l0-1.764l-9.52,0q-2.156,0-3.752,1.596q-1.596,1.54-1.596,3.752q0,1.4,0.532,2.548t1.568,1.652q-1.036,0.756-1.568,1.988t-0.532,2.632q0,2.184,1.596,3.724q1.624,1.624,3.752,1.624l9.52,0l0-1.848l-9.52,0q-1.68,0-2.646-0.952t-0.966-2.548z M187.07568,22.088q-3.136,0-5.264,2.268q-2.1,2.24-2.1,5.46l0,11.984l1.764,0l0-8.792l11.256,0l0,8.792l1.764,0l0-11.984q0-3.22-2.1-5.46q-2.184-2.268-5.32-2.268z M192.73168,31.272l-11.256,0l0-1.456q0-2.408,1.624-4.172q1.652-1.792,3.976-1.792t4.032,1.792q1.624,1.764,1.624,4.172l0,1.456z M214.2312,22.172l-1.764,0l0,11.956q0,2.576-1.792,4.312q-1.764,1.68-4.2,1.68q-2.66,0-4.284-1.68q-1.652-1.708-1.652-4.312l0-11.956l-1.792,0l0,11.956q0,3.192,2.184,5.432q2.212,2.296,5.544,2.296q3.108,0,5.46-2.296q2.296-2.24,2.296-5.432l0-11.956z M232.81872,22.2l-15.176,0l0,1.708l6.888,0l0,17.948l1.736,0l0-17.948l6.552,0l0-1.708z M251.15424,22.2l-1.736,0l0,2.072q0,2.576-1.792,4.312q-1.764,1.68-4.2,1.68q-2.604,0-4.284-1.68t-1.68-4.312l0-2.072l-1.736,0l0,2.072q0,3.136,1.904,5.32q1.876,2.212,4.76,2.408l0,9.828l1.764,0l0-9.828q2.94-0.224,4.956-2.408q2.044-2.184,2.044-5.32l0-2.072z"/><path fill="#" d=""/></svg>
