<svg id="svg" version="1.1" xmlns="http://www.w3.org/2000/svg" xmlns:xlink="http://www.w3.org/1999/xlink" width="400" height="400" viewBox="0, 0, 400,400"><g id="svgg"><path id="path0" d="M85.600 40.800 C 85.600 41.020,85.240 41.200,84.800 41.200 C 84.360 41.200,84.000 41.336,84.000 41.502 C 84.000 41.669,83.505 42.028,82.900 42.300 C 81.756 42.815,80.000 45.159,80.000 46.171 C 80.000 46.491,79.820 46.864,79.600 47.000 C 79.371 47.142,79.200 49.204,79.200 51.824 C 79.200 54.608,79.357 56.400,79.600 56.400 C 79.820 56.400,80.000 56.672,80.000 57.005 C 80.000 58.367,83.045 62.000,84.187 62.000 C 84.524 62.000,84.800 62.180,84.800 62.400 C 84.800 62.620,85.700 62.800,86.800 62.800 C 87.900 62.800,88.800 62.980,88.800 63.200 C 88.800 63.448,91.000 63.600,94.600 63.600 L 100.400 63.600 100.400 78.000 L 100.400 92.400 96.928 92.400 C 95.019 92.400,92.904 92.568,92.228 92.773 C 91.553 92.978,90.265 93.357,89.366 93.615 C 88.468 93.873,87.239 94.470,86.635 94.942 C 83.778 97.175,83.200 97.698,83.200 98.052 C 83.200 98.262,82.840 98.820,82.400 99.292 C 81.960 99.764,81.600 100.567,81.600 101.075 C 81.600 101.584,81.437 102.000,81.237 102.000 C 80.696 102.000,80.376 105.691,80.153 114.500 L 79.953 122.400 68.377 122.400 C 60.926 122.400,56.800 122.543,56.800 122.800 C 56.800 123.020,56.457 123.200,56.038 123.200 C 54.045 123.200,47.200 128.631,47.200 130.212 C 47.200 130.536,47.020 130.800,46.800 130.800 C 46.580 130.800,46.400 131.149,46.400 131.576 C 46.400 132.003,46.220 132.464,46.000 132.600 C 45.780 132.736,45.600 133.636,45.600 134.600 C 45.600 135.564,45.420 136.464,45.200 136.600 C 44.646 136.943,44.646 345.057,45.200 345.400 C 45.420 345.536,45.600 346.436,45.600 347.400 C 45.600 348.364,45.780 349.264,46.000 349.400 C 46.220 349.536,46.400 349.997,46.400 350.424 C 46.400 350.851,46.580 351.200,46.800 351.200 C 47.020 351.200,47.200 351.472,47.200 351.804 C 47.200 352.136,47.736 352.991,48.391 353.704 C 51.721 357.330,53.852 358.800,55.780 358.800 C 56.341 358.800,56.800 358.980,56.800 359.200 C 56.800 359.466,101.267 359.600,189.400 359.600 C 264.579 359.600,322.000 359.449,322.000 359.251 C 322.000 359.059,322.720 358.787,323.600 358.646 C 324.480 358.506,325.205 358.258,325.211 358.095 C 325.217 357.933,325.920 357.369,326.774 356.843 C 327.627 356.317,328.567 355.417,328.863 354.843 C 329.158 354.269,329.715 353.451,330.100 353.025 C 330.485 352.598,330.800 351.833,330.800 351.325 C 330.800 350.816,330.980 350.400,331.200 350.400 C 331.420 350.400,331.600 349.680,331.600 348.800 C 331.600 347.920,331.780 347.200,332.000 347.200 C 332.262 347.200,332.400 339.400,332.400 324.600 C 332.400 309.800,332.262 302.000,332.000 302.000 C 331.780 302.000,331.600 301.100,331.600 300.000 C 331.600 298.900,331.420 298.000,331.200 298.000 C 330.980 298.000,330.800 297.640,330.800 297.200 C 330.800 296.760,330.620 296.400,330.400 296.400 C 330.180 296.400,330.000 296.116,330.000 295.769 C 330.000 295.421,329.286 294.476,328.413 293.669 C 326.083 291.513,325.678 291.200,325.217 291.200 C 324.988 291.200,324.800 291.020,324.800 290.800 C 324.800 290.580,324.517 290.400,324.171 290.400 C 322.966 290.400,322.400 289.322,322.400 287.029 L 322.400 284.800 324.200 284.800 C 325.190 284.800,326.000 284.620,326.000 284.400 C 326.000 284.180,326.360 284.000,326.800 284.000 C 327.240 284.000,327.600 283.820,327.600 283.600 C 327.600 283.380,327.874 283.200,328.209 283.200 C 329.001 283.200,333.200 279.001,333.200 278.209 C 333.200 277.874,333.380 277.600,333.600 277.600 C 333.820 277.600,334.000 277.240,334.000 276.800 C 334.000 276.360,334.180 276.000,334.400 276.000 C 334.622 276.000,334.800 274.933,334.800 273.600 C 334.800 272.267,334.978 271.200,335.200 271.200 C 335.441 271.200,335.600 269.541,335.600 267.024 C 335.600 264.671,335.775 262.739,336.000 262.600 C 336.225 262.461,336.400 260.556,336.400 258.256 C 336.400 256.003,336.568 253.989,336.774 253.780 C 337.123 253.426,337.237 252.052,337.807 241.400 C 337.925 239.200,338.192 237.040,338.400 236.600 C 338.608 236.160,338.869 234.090,338.979 232.000 C 339.166 228.454,339.378 225.921,340.384 215.200 C 340.601 212.890,340.994 207.175,341.258 202.500 C 341.521 197.825,341.886 194.000,342.068 194.000 C 342.251 194.000,342.400 192.020,342.400 189.600 C 342.400 186.933,342.558 185.200,342.800 185.200 C 343.041 185.200,343.200 183.533,343.200 181.000 C 343.200 178.467,343.359 176.800,343.600 176.800 C 343.841 176.800,344.000 175.141,344.000 172.624 C 344.000 170.271,344.175 168.339,344.400 168.200 C 344.625 168.061,344.800 166.137,344.800 163.800 C 344.800 161.463,344.975 159.539,345.200 159.400 C 345.425 159.261,345.600 157.337,345.600 155.000 C 345.600 152.663,345.775 150.739,346.000 150.600 C 346.223 150.462,346.400 148.604,346.400 146.400 C 346.400 144.196,346.577 142.338,346.800 142.200 C 347.023 142.062,347.200 140.204,347.200 138.000 C 347.200 135.796,347.377 133.938,347.600 133.800 C 347.825 133.661,348.000 131.737,348.000 129.400 C 348.000 127.063,348.175 125.139,348.400 125.000 C 348.625 124.861,348.800 122.937,348.800 120.600 C 348.800 118.263,348.975 116.339,349.200 116.200 C 349.423 116.062,349.600 114.204,349.600 112.000 C 349.600 109.796,349.777 107.938,350.000 107.800 C 350.225 107.661,350.400 105.756,350.400 103.456 C 350.400 101.203,350.568 99.189,350.774 98.980 C 351.123 98.626,351.237 97.252,351.807 86.600 C 351.925 84.400,352.192 82.240,352.400 81.800 C 352.608 81.360,352.874 79.245,352.989 77.100 C 353.105 74.955,353.295 71.445,353.411 69.300 C 353.526 67.155,353.792 65.040,354.000 64.600 C 354.335 63.892,354.745 58.729,354.826 54.200 C 354.864 52.049,354.399 49.246,353.958 48.974 C 353.761 48.852,353.600 48.403,353.600 47.976 C 353.600 47.549,353.420 47.200,353.200 47.200 C 352.980 47.200,352.800 46.965,352.800 46.678 C 352.800 45.060,347.251 41.200,344.925 41.200 C 344.416 41.200,344.000 41.020,344.000 40.800 C 344.000 40.535,326.141 40.400,291.224 40.400 C 256.471 40.400,238.363 40.537,238.200 40.800 C 238.064 41.020,237.423 41.200,236.776 41.200 C 236.129 41.200,235.600 41.380,235.600 41.600 C 235.600 41.820,235.261 42.000,234.847 42.000 C 233.268 42.000,229.460 46.427,228.457 49.428 C 227.461 52.411,227.460 52.756,228.413 63.000 C 228.638 65.420,228.919 69.200,229.037 71.400 C 229.155 73.600,229.420 75.571,229.626 75.780 C 229.832 75.989,230.000 78.003,230.000 80.256 C 230.000 82.556,230.175 84.461,230.400 84.600 C 230.625 84.739,230.800 86.671,230.800 89.024 C 230.800 91.541,230.959 93.200,231.200 93.200 C 231.441 93.200,231.600 94.859,231.600 97.376 C 231.600 99.729,231.775 101.661,232.000 101.800 C 232.225 101.939,232.400 103.871,232.400 106.224 C 232.400 108.741,232.559 110.400,232.800 110.400 C 233.041 110.400,233.200 112.059,233.200 114.576 C 233.200 116.929,233.375 118.861,233.600 119.000 C 233.825 119.139,234.000 121.071,234.000 123.424 C 234.000 125.941,234.159 127.600,234.400 127.600 C 234.641 127.600,234.800 129.259,234.800 131.776 C 234.800 134.129,234.975 136.061,235.200 136.200 C 235.425 136.339,235.600 138.271,235.600 140.624 C 235.600 143.141,235.759 144.800,236.000 144.800 C 236.241 144.800,236.400 146.459,236.400 148.976 C 236.400 151.329,236.575 153.261,236.800 153.400 C 237.025 153.539,237.200 155.471,237.200 157.824 C 237.200 160.341,237.359 162.000,237.600 162.000 C 237.841 162.000,238.000 163.659,238.000 166.176 C 238.000 168.529,238.175 170.461,238.400 170.600 C 238.625 170.739,238.800 172.671,238.800 175.024 C 238.800 177.541,238.959 179.200,239.200 179.200 C 239.441 179.200,239.600 180.859,239.600 183.376 C 239.600 185.729,239.775 187.661,240.000 187.800 C 240.225 187.939,240.400 189.871,240.400 192.224 C 240.400 194.741,240.559 196.400,240.800 196.400 C 241.040 196.400,241.200 198.000,241.200 200.400 L 241.200 204.400 212.600 204.400 L 184.000 204.400 184.000 169.824 C 184.000 147.204,183.862 135.162,183.600 135.000 C 183.380 134.864,183.200 134.223,183.200 133.576 C 183.200 132.929,183.020 132.400,182.800 132.400 C 182.580 132.400,182.400 131.950,182.400 131.400 C 182.400 130.850,182.220 130.400,182.000 130.400 C 181.780 130.400,181.600 130.130,181.600 129.800 C 181.600 129.470,181.420 129.200,181.200 129.200 C 180.980 129.200,180.800 128.992,180.800 128.738 C 180.800 128.110,177.831 125.327,176.817 125.005 C 176.368 124.863,176.000 124.578,176.000 124.373 C 176.000 124.168,175.640 124.000,175.200 124.000 C 174.760 124.000,174.400 123.820,174.400 123.600 C 174.400 123.380,173.961 123.200,173.424 123.200 C 172.887 123.200,172.336 123.020,172.200 122.800 C 172.044 122.548,167.663 122.400,160.376 122.400 L 148.800 122.400 148.800 113.424 C 148.800 107.871,148.647 104.353,148.400 104.200 C 148.180 104.064,148.000 103.333,148.000 102.576 C 148.000 101.819,147.820 101.200,147.600 101.200 C 147.380 101.200,147.200 100.840,147.200 100.400 C 147.200 99.960,147.020 99.600,146.800 99.600 C 146.580 99.600,146.400 99.352,146.400 99.048 C 146.400 98.309,143.492 95.347,142.438 95.012 C 141.977 94.866,141.600 94.578,141.600 94.373 C 141.600 94.168,141.251 94.000,140.824 94.000 C 140.397 94.000,139.948 93.840,139.827 93.644 C 139.498 93.111,137.072 92.744,132.500 92.536 L 128.400 92.349 128.400 77.974 L 128.400 63.600 135.603 63.600 L 142.807 63.600 148.576 69.300 C 155.270 75.913,155.369 76.000,156.183 76.000 C 156.522 76.000,156.800 76.180,156.800 76.400 C 156.800 76.641,158.467 76.800,161.000 76.800 C 163.533 76.800,165.200 76.641,165.200 76.400 C 165.200 76.180,165.481 76.000,165.823 76.000 C 166.166 76.000,167.273 75.235,168.282 74.300 C 171.015 71.769,171.600 71.103,171.600 70.525 C 171.600 70.236,171.736 70.000,171.903 70.000 C 172.873 70.000,173.706 62.760,172.800 62.200 C 172.580 62.064,172.400 61.513,172.400 60.976 C 172.400 60.439,172.259 60.000,172.086 60.000 C 171.914 60.000,171.427 59.415,171.005 58.700 C 170.039 57.062,155.355 42.503,154.347 42.183 C 153.936 42.053,153.600 41.778,153.600 41.573 C 153.600 41.368,153.240 41.200,152.800 41.200 C 152.360 41.200,152.000 41.020,152.000 40.800 C 152.000 40.537,140.667 40.400,118.800 40.400 C 96.933 40.400,85.600 40.537,85.600 40.800 M157.479 55.288 C 167.268 65.035,167.251 65.002,164.016 68.335 C 160.925 71.521,160.840 71.486,152.975 63.715 C 145.246 56.081,146.090 56.400,133.633 56.400 L 123.658 56.400 122.829 57.454 C 122.016 58.488,122.000 58.883,122.000 78.273 L 122.000 98.038 123.058 99.019 C 124.085 99.971,124.298 100.000,130.180 100.000 C 136.199 100.000,136.257 100.009,138.093 101.173 C 141.013 103.025,140.976 102.855,141.200 115.492 L 141.400 126.783 142.508 127.892 L 143.617 129.000 156.941 129.200 L 170.265 129.400 172.222 130.611 C 173.433 131.360,174.640 132.567,175.389 133.779 L 176.600 135.737 176.810 172.768 C 176.926 193.136,177.061 209.840,177.110 209.890 C 178.394 211.173,179.139 211.200,213.198 211.200 L 246.836 211.200 247.838 210.198 C 248.738 209.298,248.818 208.965,248.629 206.898 C 248.513 205.634,248.230 202.440,248.001 199.800 C 247.527 194.358,246.957 188.064,246.406 182.200 C 246.199 180.000,245.836 176.040,245.599 173.400 C 245.362 170.760,245.002 166.800,244.800 164.600 C 243.829 154.064,243.518 150.610,242.601 140.200 C 242.059 134.040,241.527 128.100,241.420 127.000 C 241.312 125.900,240.773 119.960,240.221 113.800 C 239.262 103.101,238.849 98.560,237.979 89.200 C 237.764 86.890,237.417 83.110,237.206 80.800 C 236.239 70.167,235.954 67.130,235.575 63.400 C 234.369 51.551,235.289 48.570,240.457 47.572 C 246.293 46.444,342.747 47.374,344.529 48.575 C 347.551 50.612,348.154 53.274,347.224 60.484 C 347.017 62.088,346.652 65.740,346.412 68.600 C 345.959 74.010,345.426 79.911,344.803 86.400 C 344.602 88.490,344.246 92.360,344.011 95.000 C 343.775 97.640,343.231 103.670,342.802 108.400 C 342.372 113.130,341.391 124.110,340.622 132.800 C 339.853 141.490,339.045 150.400,338.827 152.600 C 338.609 154.800,338.240 158.760,338.007 161.400 C 337.548 166.599,337.053 172.087,336.420 179.000 C 336.198 181.420,335.827 185.560,335.594 188.200 C 335.110 193.688,334.604 199.151,334.018 205.200 C 333.795 207.510,333.427 211.560,333.200 214.200 C 332.973 216.840,332.619 220.800,332.412 223.000 C 331.782 229.703,331.251 235.553,330.799 240.800 C 330.561 243.550,330.198 247.420,329.992 249.400 C 329.786 251.380,329.414 255.520,329.166 258.600 C 327.724 276.490,327.001 278.000,319.880 278.000 C 317.523 278.000,317.075 278.128,316.032 279.100 L 314.851 280.200 314.770 287.000 C 314.725 290.740,314.714 294.020,314.744 294.290 C 314.820 294.958,316.927 296.000,318.200 296.000 C 319.421 296.000,321.415 296.943,322.738 298.147 C 324.851 300.068,324.800 299.421,324.800 324.520 L 324.800 347.880 323.659 349.456 C 320.862 353.316,330.362 353.091,172.772 353.038 L 59.745 353.000 57.372 351.789 C 55.457 350.811,54.749 350.159,53.700 348.406 L 52.400 346.235 52.400 240.996 L 52.400 135.757 53.544 133.978 C 54.173 133.000,55.118 131.840,55.644 131.400 C 58.060 129.378,57.811 129.412,72.135 129.200 L 85.671 129.000 86.635 127.878 L 87.600 126.755 87.600 115.958 C 87.600 104.262,87.641 104.006,89.864 101.949 C 91.828 100.132,92.439 100.000,98.919 100.000 C 105.054 100.000,105.097 99.994,106.145 98.945 L 107.200 97.891 107.200 78.127 L 107.200 58.364 106.218 57.382 C 105.239 56.402,105.217 56.400,96.907 56.400 C 86.638 56.400,85.313 55.652,86.207 50.357 C 86.778 46.980,84.496 47.200,118.932 47.200 L 149.355 47.200 157.479 55.288 " stroke="none" fill="#45261e" fill-rule="evenodd"></path><path id="path1" d="M238.400 48.431 C 235.534 50.093,235.056 51.467,235.352 57.177 C 235.599 61.935,235.751 63.805,236.788 74.800 C 237.026 77.330,237.404 81.470,237.629 84.000 C 238.453 93.297,239.420 103.946,240.008 110.200 C 240.496 115.382,241.027 121.225,241.589 127.600 C 241.812 130.130,242.167 134.090,242.378 136.400 C 242.792 140.947,243.023 143.501,244.801 163.200 C 246.709 184.350,246.826 185.629,247.205 189.600 C 247.821 196.052,248.360 202.048,248.644 205.600 C 248.794 207.470,248.995 208.775,249.092 208.500 C 249.358 207.740,265.146 207.810,267.692 208.583 C 271.686 209.795,275.314 212.760,276.664 215.918 C 277.012 216.733,277.456 217.713,277.649 218.095 C 279.028 220.822,277.856 230.098,275.714 233.411 C 272.002 239.155,271.198 239.362,251.600 239.613 L 235.000 239.825 249.322 239.913 L 263.643 240.000 263.522 245.401 L 263.400 250.801 266.304 250.801 C 271.059 250.800,275.116 253.320,277.004 257.447 L 278.000 259.624 278.000 276.312 L 278.000 293.000 295.939 292.892 L 313.879 292.784 314.339 291.773 C 314.613 291.172,314.800 288.602,314.800 285.436 C 314.800 278.664,315.229 278.000,319.606 278.000 C 326.014 278.000,327.545 275.977,328.380 266.400 C 329.358 255.185,329.642 252.027,330.000 248.400 C 330.206 246.310,330.564 242.440,330.796 239.800 C 331.312 233.924,331.895 227.511,332.394 222.200 C 332.601 220.000,332.961 216.040,333.194 213.400 C 333.720 207.446,334.317 200.976,334.799 196.000 C 335.001 193.910,335.362 189.860,335.600 187.000 C 335.838 184.140,336.198 180.090,336.400 178.000 C 337.149 170.257,337.616 165.228,338.199 158.600 C 339.565 143.084,340.005 138.165,340.789 129.673 C 341.242 124.763,341.785 118.733,341.995 116.273 C 342.206 113.813,342.570 109.820,342.805 107.400 C 343.040 104.980,343.404 100.930,343.614 98.400 C 343.824 95.870,344.177 91.910,344.399 89.600 C 344.973 83.604,345.558 77.284,346.009 72.200 C 346.224 69.780,346.582 65.820,346.805 63.400 C 347.891 51.598,347.698 50.501,344.192 48.515 L 342.600 47.613 291.200 47.616 C 240.269 47.618,239.787 47.626,238.400 48.431 M295.920 82.700 C 297.381 84.111,297.503 84.413,297.965 87.798 C 299.053 95.754,303.990 100.818,311.807 101.999 C 321.296 103.431,321.571 111.522,312.176 112.829 C 304.374 113.914,299.176 118.999,298.006 126.691 C 297.306 131.290,296.931 132.075,294.926 133.137 C 291.157 135.134,288.027 132.722,287.222 127.200 C 286.033 119.038,280.909 113.910,272.834 112.805 C 266.452 111.931,264.016 107.101,268.137 103.489 C 269.003 102.729,269.051 102.716,273.556 101.986 C 281.279 100.735,286.093 95.638,287.230 87.509 C 287.734 83.909,287.949 83.456,289.800 82.103 C 291.779 80.656,294.030 80.875,295.920 82.700 M107.200 97.571 C 107.200 99.499,105.543 100.000,99.165 100.000 C 88.117 100.000,87.600 100.733,87.600 116.390 L 87.600 127.083 86.619 128.142 L 85.638 129.200 73.319 129.210 C 57.620 129.222,56.032 129.623,53.509 134.215 L 52.419 136.200 52.409 240.904 L 52.400 345.609 53.239 347.393 C 55.850 352.948,54.784 352.795,90.922 352.798 L 121.645 352.800 120.645 351.900 C 117.819 349.354,117.822 349.377,117.584 332.600 C 117.466 324.240,117.331 317.633,117.284 317.918 C 117.217 318.334,114.215 318.413,102.068 318.318 L 86.936 318.200 85.464 317.076 C 81.640 314.159,82.001 308.240,86.151 305.808 L 87.903 304.781 102.752 304.890 L 117.600 305.000 117.600 297.400 L 117.600 289.800 102.947 289.910 C 88.716 290.016,88.242 289.995,86.541 289.171 C 81.910 286.930,81.472 280.592,85.729 277.437 C 86.829 276.622,87.260 276.600,102.197 276.600 L 117.536 276.600 117.674 267.800 C 117.806 259.448,117.860 258.919,118.743 257.400 C 121.176 253.213,124.400 251.185,129.200 250.825 L 132.200 250.600 132.200 245.146 L 132.200 239.692 129.911 239.453 C 122.200 238.649,117.832 233.066,117.819 224.000 C 117.808 216.099,119.938 212.305,125.995 209.435 L 128.600 208.200 152.343 208.082 C 173.504 207.977,176.135 208.032,176.543 208.590 C 176.886 209.060,176.950 200.145,176.800 172.708 C 176.578 132.228,176.761 134.813,173.931 132.145 C 171.017 129.397,171.157 129.421,156.600 129.200 C 149.340 129.090,143.157 128.843,142.859 128.651 C 141.432 127.731,141.200 125.851,141.200 115.204 L 141.200 104.783 140.157 103.206 C 138.383 100.526,136.712 100.000,129.963 100.000 C 123.709 100.000,122.732 99.726,121.985 97.760 L 121.620 96.800 114.410 96.800 C 107.557 96.800,107.200 96.838,107.200 97.571 M119.809 153.431 C 121.481 154.224,122.315 155.951,122.768 159.553 C 123.644 166.530,128.537 171.287,136.000 172.417 C 139.836 172.998,140.699 173.435,141.636 175.271 C 143.584 179.089,141.643 181.758,136.339 182.554 C 128.448 183.740,123.354 188.721,122.651 195.942 C 121.805 204.626,113.350 204.655,112.397 195.977 C 111.587 188.590,106.880 183.887,99.027 182.615 C 90.178 181.183,90.227 173.776,99.094 172.433 C 106.534 171.306,111.718 166.169,112.379 159.270 C 112.893 153.893,115.864 151.559,119.809 153.431 M247.714 210.280 C 247.227 210.786,246.974 211.200,247.152 211.200 C 247.542 211.200,248.998 209.645,248.764 209.477 C 248.674 209.413,248.201 209.774,247.714 210.280 M196.330 211.500 C 205.641 211.560,220.761 211.560,229.930 211.500 C 239.098 211.440,231.480 211.391,213.000 211.391 C 194.520 211.391,187.018 211.440,196.330 211.500 M274.914 351.842 C 274.427 352.369,274.171 352.800,274.345 352.800 C 274.518 352.800,275.083 352.350,275.600 351.800 C 276.117 351.250,276.373 350.819,276.170 350.842 C 275.966 350.865,275.401 351.315,274.914 351.842 " stroke="none" fill="#b597cf" fill-rule="evenodd"></path><path id="path2" d="M87.489 48.002 C 86.235 48.988,85.777 51.285,86.384 53.540 C 87.128 56.304,87.481 56.400,96.907 56.400 C 105.217 56.400,105.239 56.402,106.218 57.382 L 107.200 58.364 107.200 77.582 C 107.200 90.127,107.339 96.800,107.600 96.800 C 107.861 96.800,108.000 90.333,108.000 78.200 L 108.000 59.600 114.796 59.600 L 121.592 59.600 121.700 78.500 L 121.808 97.400 121.904 77.954 C 121.998 58.961,122.019 58.483,122.829 57.454 L 123.658 56.400 133.633 56.400 C 146.090 56.400,145.246 56.081,152.975 63.715 C 160.832 71.477,160.928 71.518,163.993 68.359 C 167.221 65.033,167.170 64.931,157.494 55.300 L 149.355 47.200 118.932 47.200 C 89.093 47.200,88.488 47.215,87.489 48.002 M260.330 47.500 C 270.742 47.559,287.662 47.559,297.930 47.500 C 308.199 47.440,299.680 47.392,279.000 47.392 C 258.320 47.392,249.919 47.441,260.330 47.500 M234.893 54.400 C 234.893 55.170,234.975 55.485,235.076 55.100 C 235.176 54.715,235.176 54.085,235.076 53.700 C 234.975 53.315,234.893 53.630,234.893 54.400 M314.032 292.296 C 314.007 292.681,309.997 292.815,296.100 292.896 L 278.200 293.000 278.000 320.600 C 277.781 350.769,277.903 349.254,275.485 351.898 C 274.198 353.306,273.927 353.293,297.671 352.936 C 322.980 352.555,321.245 352.787,323.659 349.456 L 324.800 347.880 324.800 324.520 C 324.800 299.421,324.851 300.068,322.738 298.147 C 321.415 296.943,319.421 296.000,318.200 296.000 C 316.551 296.000,314.839 294.912,314.571 293.693 C 314.229 292.142,314.068 291.724,314.032 292.296 M106.332 353.100 C 131.485 353.157,172.525 353.157,197.532 353.100 C 222.539 353.043,201.960 352.997,151.800 352.997 C 101.640 352.997,81.179 353.043,106.332 353.100 " stroke="none" fill="#d48c5f" fill-rule="evenodd"></path><path id="path3" d="M128.942 208.416 C 121.592 209.871,117.806 215.174,117.819 224.000 C 117.830 231.502,120.105 235.612,125.800 238.415 L 127.800 239.400 198.000 239.400 L 268.200 239.400 269.988 238.447 C 273.648 236.496,276.246 233.576,277.494 230.011 C 278.064 228.384,278.184 219.152,277.649 218.095 C 277.456 217.713,277.012 216.733,276.664 215.918 C 274.113 209.953,269.427 208.011,257.572 208.004 L 249.344 208.000 248.772 209.295 C 247.720 211.677,249.110 211.588,213.060 211.594 C 176.653 211.601,177.965 211.687,176.865 209.201 L 176.333 208.000 153.466 208.044 C 140.890 208.068,129.854 208.235,128.942 208.416 M126.400 251.083 C 122.741 252.426,120.018 254.769,118.547 257.840 C 117.832 259.334,117.800 261.256,117.800 303.428 L 117.800 347.456 118.781 349.362 C 120.757 353.205,111.438 352.800,197.858 352.800 L 274.007 352.800 275.111 351.700 C 275.719 351.095,276.458 350.060,276.754 349.400 C 277.051 348.740,277.452 347.887,277.647 347.505 C 277.845 347.116,278.000 327.650,278.000 303.217 L 278.000 259.624 277.004 257.447 C 275.905 255.043,273.684 252.904,270.959 251.623 C 269.259 250.824,128.538 250.299,126.400 251.083 M202.781 276.990 C 204.330 277.791,205.597 279.963,205.614 281.847 C 205.699 291.086,213.645 299.068,222.920 299.229 C 227.121 299.302,229.616 303.517,227.766 307.416 C 226.860 309.325,225.513 310.040,222.044 310.456 C 212.303 311.624,205.701 318.556,205.614 327.706 C 205.587 330.627,202.957 333.200,200.000 333.200 C 196.954 333.200,194.400 330.526,194.400 327.337 C 194.400 319.291,187.744 311.859,179.528 310.732 C 175.048 310.117,174.910 310.072,173.420 308.764 C 169.607 305.416,172.120 299.210,177.295 299.195 C 186.120 299.171,194.400 290.975,194.400 282.263 C 194.400 277.877,198.955 275.012,202.781 276.990 " stroke="none" fill="#8cccdb" fill-rule="evenodd"></path><path id="path4" d="M108.000 78.200 L 108.000 96.800 114.800 96.800 L 121.600 96.800 121.600 78.200 L 121.600 59.600 114.800 59.600 L 108.000 59.600 108.000 78.200 M289.800 82.103 C 287.949 83.456,287.734 83.909,287.230 87.509 C 286.093 95.638,281.279 100.735,273.556 101.986 C 269.051 102.716,269.003 102.729,268.137 103.489 C 264.016 107.101,266.452 111.931,272.834 112.805 C 280.909 113.910,286.033 119.038,287.222 127.200 C 288.027 132.722,291.157 135.134,294.926 133.137 C 296.931 132.075,297.306 131.290,298.006 126.691 C 299.180 118.976,304.372 113.914,312.231 112.821 C 321.533 111.527,321.215 103.419,311.807 101.999 C 303.990 100.818,299.053 95.754,297.965 87.798 C 297.174 82.009,293.465 79.423,289.800 82.103 M115.200 153.501 C 113.438 154.382,112.703 155.884,112.379 159.270 C 111.718 166.169,106.534 171.306,99.094 172.433 C 94.516 173.126,92.805 174.515,92.801 177.538 C 92.798 180.575,94.376 181.863,99.027 182.615 C 106.880 183.887,111.587 188.590,112.397 195.977 C 113.350 204.655,121.805 204.626,122.651 195.942 C 123.354 188.721,128.448 183.740,136.339 182.554 C 144.920 181.266,144.668 173.729,136.000 172.417 C 128.537 171.287,123.644 166.530,122.768 159.553 C 122.039 153.752,119.216 151.494,115.200 153.501 M132.175 240.122 C 132.064 240.409,132.025 242.884,132.087 245.622 L 132.200 250.600 197.800 250.600 L 263.400 250.600 263.511 245.366 L 263.622 240.131 242.311 239.866 C 202.431 239.370,132.401 239.533,132.175 240.122 M86.800 276.847 C 81.612 278.929,81.442 286.703,86.531 289.167 C 88.219 289.984,88.728 290.007,102.837 289.905 L 117.400 289.800 117.400 283.200 L 117.400 276.600 102.600 276.523 C 93.446 276.475,87.419 276.599,86.800 276.847 M197.296 277.198 C 195.569 278.251,194.403 280.242,194.401 282.142 C 194.393 290.920,186.280 299.182,177.654 299.197 C 168.854 299.212,169.842 309.758,178.719 310.549 C 187.249 311.309,194.400 318.950,194.400 327.304 C 194.400 333.109,201.946 335.392,204.734 330.431 C 205.211 329.584,205.600 328.222,205.600 327.403 C 205.600 318.615,213.770 310.400,222.510 310.400 C 223.359 310.400,224.446 310.198,224.926 309.951 C 230.640 307.016,228.867 299.216,222.481 299.195 C 213.815 299.167,205.631 290.953,205.605 282.254 C 205.591 277.807,200.940 274.977,197.296 277.198 M86.095 305.827 C 81.999 308.288,81.668 314.180,85.464 317.076 L 86.936 318.200 102.056 318.318 L 117.176 318.436 117.403 317.518 C 117.528 317.013,117.578 313.990,117.515 310.800 L 117.400 305.000 102.600 304.901 L 87.800 304.802 86.095 305.827 " stroke="none" fill="#fad19b" fill-rule="evenodd"></path></g></svg>